G04 #@! TF.GenerationSoftware,KiCad,Pcbnew,(5.0.0-3-g5ebb6b6)*
G04 #@! TF.CreationDate,2019-01-16T13:26:12+00:00*
G04 #@! TF.ProjectId,Mangler,4D616E676C65722E6B696361645F7063,rev?*
G04 #@! TF.SameCoordinates,Original*
G04 #@! TF.FileFunction,Legend,Top*
G04 #@! TF.FilePolarity,Positive*
%FSLAX46Y46*%
G04 Gerber Fmt 4.6, Leading zero omitted, Abs format (unit mm)*
G04 Created by KiCad (PCBNEW (5.0.0-3-g5ebb6b6)) date Wednesday, 16 January 2019 at 13:26:12*
%MOMM*%
%LPD*%
G01*
G04 APERTURE LIST*
%ADD10C,0.120000*%
%ADD11C,0.150000*%
G04 APERTURE END LIST*
D10*
G04 #@! TO.C,J2*
X43670000Y-30965000D02*
X43735000Y-30965000D01*
X43670000Y-34495000D02*
X43735000Y-34495000D01*
X37265000Y-30965000D02*
X37330000Y-30965000D01*
X37265000Y-34495000D02*
X37330000Y-34495000D01*
X37330000Y-35820000D02*
X37330000Y-34495000D01*
X43735000Y-34495000D02*
X43735000Y-30965000D01*
X37265000Y-34495000D02*
X37265000Y-30965000D01*
G04 #@! TO.C,D2*
X48035000Y-35985000D02*
X48035000Y-33700000D01*
X46565000Y-35985000D02*
X48035000Y-35985000D01*
X46565000Y-33700000D02*
X46565000Y-35985000D01*
G04 #@! TO.C,D1*
X33435000Y-36285000D02*
X33435000Y-34000000D01*
X31965000Y-36285000D02*
X33435000Y-36285000D01*
X31965000Y-34000000D02*
X31965000Y-36285000D01*
G04 #@! TO.C,C1*
X64060000Y-34052064D02*
X64060000Y-32847936D01*
X62240000Y-34052064D02*
X62240000Y-32847936D01*
G04 #@! TO.C,C2*
X70272064Y-39510000D02*
X69067936Y-39510000D01*
X70272064Y-37690000D02*
X69067936Y-37690000D01*
G04 #@! TO.C,C3*
X70528578Y-42910000D02*
X70011422Y-42910000D01*
X70528578Y-41490000D02*
X70011422Y-41490000D01*
G04 #@! TO.C,C4*
X46960000Y-49187221D02*
X46960000Y-49512779D01*
X45940000Y-49187221D02*
X45940000Y-49512779D01*
G04 #@! TO.C,C5*
X55340000Y-49412779D02*
X55340000Y-49087221D01*
X56360000Y-49412779D02*
X56360000Y-49087221D01*
G04 #@! TO.C,C6*
X52462779Y-37320000D02*
X52137221Y-37320000D01*
X52462779Y-38340000D02*
X52137221Y-38340000D01*
G04 #@! TO.C,C7*
X52462779Y-40880000D02*
X52137221Y-40880000D01*
X52462779Y-39860000D02*
X52137221Y-39860000D01*
G04 #@! TO.C,C8*
X55340000Y-45887221D02*
X55340000Y-46212779D01*
X56360000Y-45887221D02*
X56360000Y-46212779D01*
G04 #@! TO.C,J1*
X53240000Y-31510000D02*
X53620000Y-31510000D01*
X53240000Y-27460000D02*
X53240000Y-27200000D01*
X53240000Y-31510000D02*
X53240000Y-29740000D01*
X60860000Y-31510000D02*
X60480000Y-31510000D01*
X60860000Y-29740000D02*
X60860000Y-31510000D01*
X60860000Y-27200000D02*
X60860000Y-27460000D01*
G04 #@! TO.C,J3*
X77670000Y-84720000D02*
X80330000Y-84720000D01*
X77670000Y-84720000D02*
X77670000Y-97480000D01*
X77670000Y-97480000D02*
X80330000Y-97480000D01*
X80330000Y-84720000D02*
X80330000Y-97480000D01*
X80330000Y-82120000D02*
X80330000Y-83450000D01*
X79000000Y-82120000D02*
X80330000Y-82120000D01*
G04 #@! TO.C,J4*
X23420000Y-42270000D02*
X26080000Y-42270000D01*
X23420000Y-42270000D02*
X23420000Y-52490000D01*
X23420000Y-52490000D02*
X26080000Y-52490000D01*
X26080000Y-42270000D02*
X26080000Y-52490000D01*
X26080000Y-39670000D02*
X26080000Y-41000000D01*
X24750000Y-39670000D02*
X26080000Y-39670000D01*
G04 #@! TO.C,J5*
X23420000Y-64370000D02*
X26080000Y-64370000D01*
X23420000Y-64370000D02*
X23420000Y-97450000D01*
X23420000Y-97450000D02*
X26080000Y-97450000D01*
X26080000Y-64370000D02*
X26080000Y-97450000D01*
X26080000Y-61770000D02*
X26080000Y-63100000D01*
X24750000Y-61770000D02*
X26080000Y-61770000D01*
G04 #@! TO.C,J6*
X77670000Y-42270000D02*
X80330000Y-42270000D01*
X77670000Y-42270000D02*
X77670000Y-49950000D01*
X77670000Y-49950000D02*
X80330000Y-49950000D01*
X80330000Y-42270000D02*
X80330000Y-49950000D01*
X80330000Y-39670000D02*
X80330000Y-41000000D01*
X79000000Y-39670000D02*
X80330000Y-39670000D01*
G04 #@! TO.C,J7*
X79000000Y-59645000D02*
X80330000Y-59645000D01*
X80330000Y-59645000D02*
X80330000Y-60975000D01*
X80330000Y-62245000D02*
X80330000Y-72465000D01*
X77670000Y-72465000D02*
X80330000Y-72465000D01*
X77670000Y-62245000D02*
X77670000Y-72465000D01*
X77670000Y-62245000D02*
X80330000Y-62245000D01*
G04 #@! TO.C,R1*
X33170000Y-30937221D02*
X33170000Y-31262779D01*
X32150000Y-30937221D02*
X32150000Y-31262779D01*
G04 #@! TO.C,R2*
X46830000Y-30637221D02*
X46830000Y-30962779D01*
X47850000Y-30637221D02*
X47850000Y-30962779D01*
G04 #@! TO.C,Y1*
X56250000Y-38550000D02*
X56250000Y-39650000D01*
X54350000Y-38550000D02*
X54350000Y-39650000D01*
X56200000Y-37150000D02*
X54400000Y-37150000D01*
G04 #@! TO.C,U1*
X71760000Y-29840000D02*
X70500000Y-29840000D01*
X64940000Y-29840000D02*
X66200000Y-29840000D01*
X71760000Y-33600000D02*
X71760000Y-29840000D01*
X64940000Y-35850000D02*
X64940000Y-29840000D01*
G04 #@! TO.C,J2*
D11*
X40166666Y-32202380D02*
X40166666Y-32916666D01*
X40119047Y-33059523D01*
X40023809Y-33154761D01*
X39880952Y-33202380D01*
X39785714Y-33202380D01*
X40595238Y-32297619D02*
X40642857Y-32250000D01*
X40738095Y-32202380D01*
X40976190Y-32202380D01*
X41071428Y-32250000D01*
X41119047Y-32297619D01*
X41166666Y-32392857D01*
X41166666Y-32488095D01*
X41119047Y-32630952D01*
X40547619Y-33202380D01*
X41166666Y-33202380D01*
X36252380Y-36178571D02*
X35252380Y-36178571D01*
X36157142Y-35130952D02*
X36204761Y-35178571D01*
X36252380Y-35321428D01*
X36252380Y-35416666D01*
X36204761Y-35559523D01*
X36109523Y-35654761D01*
X36014285Y-35702380D01*
X35823809Y-35750000D01*
X35680952Y-35750000D01*
X35490476Y-35702380D01*
X35395238Y-35654761D01*
X35300000Y-35559523D01*
X35252380Y-35416666D01*
X35252380Y-35321428D01*
X35300000Y-35178571D01*
X35347619Y-35130952D01*
X35728571Y-34702380D02*
X35728571Y-34369047D01*
X36252380Y-34226190D02*
X36252380Y-34702380D01*
X35252380Y-34702380D01*
X35252380Y-34226190D01*
X36252380Y-32511904D02*
X36252380Y-33083333D01*
X36252380Y-32797619D02*
X35252380Y-32797619D01*
X35395238Y-32892857D01*
X35490476Y-32988095D01*
X35538095Y-33083333D01*
X35252380Y-31892857D02*
X35252380Y-31797619D01*
X35300000Y-31702380D01*
X35347619Y-31654761D01*
X35442857Y-31607142D01*
X35633333Y-31559523D01*
X35871428Y-31559523D01*
X36061904Y-31607142D01*
X36157142Y-31654761D01*
X36204761Y-31702380D01*
X36252380Y-31797619D01*
X36252380Y-31892857D01*
X36204761Y-31988095D01*
X36157142Y-32035714D01*
X36061904Y-32083333D01*
X35871428Y-32130952D01*
X35633333Y-32130952D01*
X35442857Y-32083333D01*
X35347619Y-32035714D01*
X35300000Y-31988095D01*
X35252380Y-31892857D01*
X35585714Y-31130952D02*
X36585714Y-31130952D01*
X35633333Y-31130952D02*
X35585714Y-31035714D01*
X35585714Y-30845238D01*
X35633333Y-30750000D01*
X35680952Y-30702380D01*
X35776190Y-30654761D01*
X36061904Y-30654761D01*
X36157142Y-30702380D01*
X36204761Y-30750000D01*
X36252380Y-30845238D01*
X36252380Y-31035714D01*
X36204761Y-31130952D01*
X36252380Y-30226190D02*
X35585714Y-30226190D01*
X35252380Y-30226190D02*
X35300000Y-30273809D01*
X35347619Y-30226190D01*
X35300000Y-30178571D01*
X35252380Y-30226190D01*
X35347619Y-30226190D01*
X35585714Y-29750000D02*
X36252380Y-29750000D01*
X35680952Y-29750000D02*
X35633333Y-29702380D01*
X35585714Y-29607142D01*
X35585714Y-29464285D01*
X35633333Y-29369047D01*
X35728571Y-29321428D01*
X36252380Y-29321428D01*
G04 #@! TO.C,D2*
X46352380Y-35238095D02*
X45352380Y-35238095D01*
X45352380Y-35000000D01*
X45400000Y-34857142D01*
X45495238Y-34761904D01*
X45590476Y-34714285D01*
X45780952Y-34666666D01*
X45923809Y-34666666D01*
X46114285Y-34714285D01*
X46209523Y-34761904D01*
X46304761Y-34857142D01*
X46352380Y-35000000D01*
X46352380Y-35238095D01*
X45447619Y-34285714D02*
X45400000Y-34238095D01*
X45352380Y-34142857D01*
X45352380Y-33904761D01*
X45400000Y-33809523D01*
X45447619Y-33761904D01*
X45542857Y-33714285D01*
X45638095Y-33714285D01*
X45780952Y-33761904D01*
X46352380Y-34333333D01*
X46352380Y-33714285D01*
X45038095Y-28904761D02*
X45180952Y-28952380D01*
X45419047Y-28952380D01*
X45514285Y-28904761D01*
X45561904Y-28857142D01*
X45609523Y-28761904D01*
X45609523Y-28666666D01*
X45561904Y-28571428D01*
X45514285Y-28523809D01*
X45419047Y-28476190D01*
X45228571Y-28428571D01*
X45133333Y-28380952D01*
X45085714Y-28333333D01*
X45038095Y-28238095D01*
X45038095Y-28142857D01*
X45085714Y-28047619D01*
X45133333Y-28000000D01*
X45228571Y-27952380D01*
X45466666Y-27952380D01*
X45609523Y-28000000D01*
X45942857Y-27952380D02*
X46180952Y-28952380D01*
X46371428Y-28238095D01*
X46561904Y-28952380D01*
X46800000Y-27952380D01*
X47752380Y-28857142D02*
X47704761Y-28904761D01*
X47561904Y-28952380D01*
X47466666Y-28952380D01*
X47323809Y-28904761D01*
X47228571Y-28809523D01*
X47180952Y-28714285D01*
X47133333Y-28523809D01*
X47133333Y-28380952D01*
X47180952Y-28190476D01*
X47228571Y-28095238D01*
X47323809Y-28000000D01*
X47466666Y-27952380D01*
X47561904Y-27952380D01*
X47704761Y-28000000D01*
X47752380Y-28047619D01*
X48657142Y-28952380D02*
X48180952Y-28952380D01*
X48180952Y-27952380D01*
X48990476Y-28952380D02*
X48990476Y-27952380D01*
X49561904Y-28952380D02*
X49133333Y-28380952D01*
X49561904Y-27952380D02*
X48990476Y-28523809D01*
G04 #@! TO.C,D1*
X34502380Y-35488095D02*
X33502380Y-35488095D01*
X33502380Y-35250000D01*
X33550000Y-35107142D01*
X33645238Y-35011904D01*
X33740476Y-34964285D01*
X33930952Y-34916666D01*
X34073809Y-34916666D01*
X34264285Y-34964285D01*
X34359523Y-35011904D01*
X34454761Y-35107142D01*
X34502380Y-35250000D01*
X34502380Y-35488095D01*
X34502380Y-33964285D02*
X34502380Y-34535714D01*
X34502380Y-34250000D02*
X33502380Y-34250000D01*
X33645238Y-34345238D01*
X33740476Y-34440476D01*
X33788095Y-34535714D01*
X30580952Y-28904761D02*
X30723809Y-28952380D01*
X30961904Y-28952380D01*
X31057142Y-28904761D01*
X31104761Y-28857142D01*
X31152380Y-28761904D01*
X31152380Y-28666666D01*
X31104761Y-28571428D01*
X31057142Y-28523809D01*
X30961904Y-28476190D01*
X30771428Y-28428571D01*
X30676190Y-28380952D01*
X30628571Y-28333333D01*
X30580952Y-28238095D01*
X30580952Y-28142857D01*
X30628571Y-28047619D01*
X30676190Y-28000000D01*
X30771428Y-27952380D01*
X31009523Y-27952380D01*
X31152380Y-28000000D01*
X31485714Y-27952380D02*
X31723809Y-28952380D01*
X31914285Y-28238095D01*
X32104761Y-28952380D01*
X32342857Y-27952380D01*
X32723809Y-28952380D02*
X32723809Y-27952380D01*
X32961904Y-27952380D01*
X33104761Y-28000000D01*
X33200000Y-28095238D01*
X33247619Y-28190476D01*
X33295238Y-28380952D01*
X33295238Y-28523809D01*
X33247619Y-28714285D01*
X33200000Y-28809523D01*
X33104761Y-28904761D01*
X32961904Y-28952380D01*
X32723809Y-28952380D01*
X33723809Y-28952380D02*
X33723809Y-27952380D01*
X34390476Y-27952380D02*
X34580952Y-27952380D01*
X34676190Y-28000000D01*
X34771428Y-28095238D01*
X34819047Y-28285714D01*
X34819047Y-28619047D01*
X34771428Y-28809523D01*
X34676190Y-28904761D01*
X34580952Y-28952380D01*
X34390476Y-28952380D01*
X34295238Y-28904761D01*
X34200000Y-28809523D01*
X34152380Y-28619047D01*
X34152380Y-28285714D01*
X34200000Y-28095238D01*
X34295238Y-28000000D01*
X34390476Y-27952380D01*
G04 #@! TO.C,C1*
X61687142Y-33616666D02*
X61734761Y-33664285D01*
X61782380Y-33807142D01*
X61782380Y-33902380D01*
X61734761Y-34045238D01*
X61639523Y-34140476D01*
X61544285Y-34188095D01*
X61353809Y-34235714D01*
X61210952Y-34235714D01*
X61020476Y-34188095D01*
X60925238Y-34140476D01*
X60830000Y-34045238D01*
X60782380Y-33902380D01*
X60782380Y-33807142D01*
X60830000Y-33664285D01*
X60877619Y-33616666D01*
X61782380Y-32664285D02*
X61782380Y-33235714D01*
X61782380Y-32950000D02*
X60782380Y-32950000D01*
X60925238Y-33045238D01*
X61020476Y-33140476D01*
X61068095Y-33235714D01*
G04 #@! TO.C,C2*
X66033333Y-38957142D02*
X65985714Y-39004761D01*
X65842857Y-39052380D01*
X65747619Y-39052380D01*
X65604761Y-39004761D01*
X65509523Y-38909523D01*
X65461904Y-38814285D01*
X65414285Y-38623809D01*
X65414285Y-38480952D01*
X65461904Y-38290476D01*
X65509523Y-38195238D01*
X65604761Y-38100000D01*
X65747619Y-38052380D01*
X65842857Y-38052380D01*
X65985714Y-38100000D01*
X66033333Y-38147619D01*
X66414285Y-38147619D02*
X66461904Y-38100000D01*
X66557142Y-38052380D01*
X66795238Y-38052380D01*
X66890476Y-38100000D01*
X66938095Y-38147619D01*
X66985714Y-38242857D01*
X66985714Y-38338095D01*
X66938095Y-38480952D01*
X66366666Y-39052380D01*
X66985714Y-39052380D01*
G04 #@! TO.C,C3*
X67183333Y-42557142D02*
X67135714Y-42604761D01*
X66992857Y-42652380D01*
X66897619Y-42652380D01*
X66754761Y-42604761D01*
X66659523Y-42509523D01*
X66611904Y-42414285D01*
X66564285Y-42223809D01*
X66564285Y-42080952D01*
X66611904Y-41890476D01*
X66659523Y-41795238D01*
X66754761Y-41700000D01*
X66897619Y-41652380D01*
X66992857Y-41652380D01*
X67135714Y-41700000D01*
X67183333Y-41747619D01*
X67516666Y-41652380D02*
X68135714Y-41652380D01*
X67802380Y-42033333D01*
X67945238Y-42033333D01*
X68040476Y-42080952D01*
X68088095Y-42128571D01*
X68135714Y-42223809D01*
X68135714Y-42461904D01*
X68088095Y-42557142D01*
X68040476Y-42604761D01*
X67945238Y-42652380D01*
X67659523Y-42652380D01*
X67564285Y-42604761D01*
X67516666Y-42557142D01*
G04 #@! TO.C,C4*
X46907142Y-52086666D02*
X46954761Y-52134285D01*
X47002380Y-52277142D01*
X47002380Y-52372380D01*
X46954761Y-52515238D01*
X46859523Y-52610476D01*
X46764285Y-52658095D01*
X46573809Y-52705714D01*
X46430952Y-52705714D01*
X46240476Y-52658095D01*
X46145238Y-52610476D01*
X46050000Y-52515238D01*
X46002380Y-52372380D01*
X46002380Y-52277142D01*
X46050000Y-52134285D01*
X46097619Y-52086666D01*
X46335714Y-51229523D02*
X47002380Y-51229523D01*
X45954761Y-51467619D02*
X46669047Y-51705714D01*
X46669047Y-51086666D01*
G04 #@! TO.C,C5*
X54857142Y-49416666D02*
X54904761Y-49464285D01*
X54952380Y-49607142D01*
X54952380Y-49702380D01*
X54904761Y-49845238D01*
X54809523Y-49940476D01*
X54714285Y-49988095D01*
X54523809Y-50035714D01*
X54380952Y-50035714D01*
X54190476Y-49988095D01*
X54095238Y-49940476D01*
X54000000Y-49845238D01*
X53952380Y-49702380D01*
X53952380Y-49607142D01*
X54000000Y-49464285D01*
X54047619Y-49416666D01*
X53952380Y-48511904D02*
X53952380Y-48988095D01*
X54428571Y-49035714D01*
X54380952Y-48988095D01*
X54333333Y-48892857D01*
X54333333Y-48654761D01*
X54380952Y-48559523D01*
X54428571Y-48511904D01*
X54523809Y-48464285D01*
X54761904Y-48464285D01*
X54857142Y-48511904D01*
X54904761Y-48559523D01*
X54952380Y-48654761D01*
X54952380Y-48892857D01*
X54904761Y-48988095D01*
X54857142Y-49035714D01*
G04 #@! TO.C,C6*
X52133333Y-36807142D02*
X52085714Y-36854761D01*
X51942857Y-36902380D01*
X51847619Y-36902380D01*
X51704761Y-36854761D01*
X51609523Y-36759523D01*
X51561904Y-36664285D01*
X51514285Y-36473809D01*
X51514285Y-36330952D01*
X51561904Y-36140476D01*
X51609523Y-36045238D01*
X51704761Y-35950000D01*
X51847619Y-35902380D01*
X51942857Y-35902380D01*
X52085714Y-35950000D01*
X52133333Y-35997619D01*
X52990476Y-35902380D02*
X52800000Y-35902380D01*
X52704761Y-35950000D01*
X52657142Y-35997619D01*
X52561904Y-36140476D01*
X52514285Y-36330952D01*
X52514285Y-36711904D01*
X52561904Y-36807142D01*
X52609523Y-36854761D01*
X52704761Y-36902380D01*
X52895238Y-36902380D01*
X52990476Y-36854761D01*
X53038095Y-36807142D01*
X53085714Y-36711904D01*
X53085714Y-36473809D01*
X53038095Y-36378571D01*
X52990476Y-36330952D01*
X52895238Y-36283333D01*
X52704761Y-36283333D01*
X52609523Y-36330952D01*
X52561904Y-36378571D01*
X52514285Y-36473809D01*
G04 #@! TO.C,C7*
X52133333Y-42157142D02*
X52085714Y-42204761D01*
X51942857Y-42252380D01*
X51847619Y-42252380D01*
X51704761Y-42204761D01*
X51609523Y-42109523D01*
X51561904Y-42014285D01*
X51514285Y-41823809D01*
X51514285Y-41680952D01*
X51561904Y-41490476D01*
X51609523Y-41395238D01*
X51704761Y-41300000D01*
X51847619Y-41252380D01*
X51942857Y-41252380D01*
X52085714Y-41300000D01*
X52133333Y-41347619D01*
X52466666Y-41252380D02*
X53133333Y-41252380D01*
X52704761Y-42252380D01*
G04 #@! TO.C,C8*
X54857142Y-46216666D02*
X54904761Y-46264285D01*
X54952380Y-46407142D01*
X54952380Y-46502380D01*
X54904761Y-46645238D01*
X54809523Y-46740476D01*
X54714285Y-46788095D01*
X54523809Y-46835714D01*
X54380952Y-46835714D01*
X54190476Y-46788095D01*
X54095238Y-46740476D01*
X54000000Y-46645238D01*
X53952380Y-46502380D01*
X53952380Y-46407142D01*
X54000000Y-46264285D01*
X54047619Y-46216666D01*
X54380952Y-45645238D02*
X54333333Y-45740476D01*
X54285714Y-45788095D01*
X54190476Y-45835714D01*
X54142857Y-45835714D01*
X54047619Y-45788095D01*
X54000000Y-45740476D01*
X53952380Y-45645238D01*
X53952380Y-45454761D01*
X54000000Y-45359523D01*
X54047619Y-45311904D01*
X54142857Y-45264285D01*
X54190476Y-45264285D01*
X54285714Y-45311904D01*
X54333333Y-45359523D01*
X54380952Y-45454761D01*
X54380952Y-45645238D01*
X54428571Y-45740476D01*
X54476190Y-45788095D01*
X54571428Y-45835714D01*
X54761904Y-45835714D01*
X54857142Y-45788095D01*
X54904761Y-45740476D01*
X54952380Y-45645238D01*
X54952380Y-45454761D01*
X54904761Y-45359523D01*
X54857142Y-45311904D01*
X54761904Y-45264285D01*
X54571428Y-45264285D01*
X54476190Y-45311904D01*
X54428571Y-45359523D01*
X54380952Y-45454761D01*
G04 #@! TO.C,J1*
X56716666Y-32552380D02*
X56716666Y-33266666D01*
X56669047Y-33409523D01*
X56573809Y-33504761D01*
X56430952Y-33552380D01*
X56335714Y-33552380D01*
X57716666Y-33552380D02*
X57145238Y-33552380D01*
X57430952Y-33552380D02*
X57430952Y-32552380D01*
X57335714Y-32695238D01*
X57240476Y-32790476D01*
X57145238Y-32838095D01*
G04 #@! TO.C,J3*
X76380952Y-99086666D02*
X76857142Y-99086666D01*
X76285714Y-99372380D02*
X76619047Y-98372380D01*
X76952380Y-99372380D01*
X77285714Y-99372380D02*
X77285714Y-98372380D01*
X77857142Y-99372380D01*
X77857142Y-98372380D01*
X78285714Y-99086666D02*
X78761904Y-99086666D01*
X78190476Y-99372380D02*
X78523809Y-98372380D01*
X78857142Y-99372380D01*
X79666666Y-99372380D02*
X79190476Y-99372380D01*
X79190476Y-98372380D01*
X80190476Y-98372380D02*
X80380952Y-98372380D01*
X80476190Y-98420000D01*
X80571428Y-98515238D01*
X80619047Y-98705714D01*
X80619047Y-99039047D01*
X80571428Y-99229523D01*
X80476190Y-99324761D01*
X80380952Y-99372380D01*
X80190476Y-99372380D01*
X80095238Y-99324761D01*
X80000000Y-99229523D01*
X79952380Y-99039047D01*
X79952380Y-98705714D01*
X80000000Y-98515238D01*
X80095238Y-98420000D01*
X80190476Y-98372380D01*
X81571428Y-98420000D02*
X81476190Y-98372380D01*
X81333333Y-98372380D01*
X81190476Y-98420000D01*
X81095238Y-98515238D01*
X81047619Y-98610476D01*
X81000000Y-98800952D01*
X81000000Y-98943809D01*
X81047619Y-99134285D01*
X81095238Y-99229523D01*
X81190476Y-99324761D01*
X81333333Y-99372380D01*
X81428571Y-99372380D01*
X81571428Y-99324761D01*
X81619047Y-99277142D01*
X81619047Y-98943809D01*
X81428571Y-98943809D01*
G04 #@! TO.C,J4*
X20630952Y-54382380D02*
X20630952Y-53382380D01*
X21011904Y-53382380D01*
X21107142Y-53430000D01*
X21154761Y-53477619D01*
X21202380Y-53572857D01*
X21202380Y-53715714D01*
X21154761Y-53810952D01*
X21107142Y-53858571D01*
X21011904Y-53906190D01*
X20630952Y-53906190D01*
X21535714Y-53382380D02*
X21773809Y-54382380D01*
X21964285Y-53668095D01*
X22154761Y-54382380D01*
X22392857Y-53382380D01*
X23345238Y-54382380D02*
X23011904Y-53906190D01*
X22773809Y-54382380D02*
X22773809Y-53382380D01*
X23154761Y-53382380D01*
X23250000Y-53430000D01*
X23297619Y-53477619D01*
X23345238Y-53572857D01*
X23345238Y-53715714D01*
X23297619Y-53810952D01*
X23250000Y-53858571D01*
X23154761Y-53906190D01*
X22773809Y-53906190D01*
X24488095Y-53334761D02*
X23630952Y-54620476D01*
X25392857Y-54382380D02*
X25059523Y-53906190D01*
X24821428Y-54382380D02*
X24821428Y-53382380D01*
X25202380Y-53382380D01*
X25297619Y-53430000D01*
X25345238Y-53477619D01*
X25392857Y-53572857D01*
X25392857Y-53715714D01*
X25345238Y-53810952D01*
X25297619Y-53858571D01*
X25202380Y-53906190D01*
X24821428Y-53906190D01*
X25821428Y-53858571D02*
X26154761Y-53858571D01*
X26297619Y-54382380D02*
X25821428Y-54382380D01*
X25821428Y-53382380D01*
X26297619Y-53382380D01*
X26678571Y-54334761D02*
X26821428Y-54382380D01*
X27059523Y-54382380D01*
X27154761Y-54334761D01*
X27202380Y-54287142D01*
X27250000Y-54191904D01*
X27250000Y-54096666D01*
X27202380Y-54001428D01*
X27154761Y-53953809D01*
X27059523Y-53906190D01*
X26869047Y-53858571D01*
X26773809Y-53810952D01*
X26726190Y-53763333D01*
X26678571Y-53668095D01*
X26678571Y-53572857D01*
X26726190Y-53477619D01*
X26773809Y-53430000D01*
X26869047Y-53382380D01*
X27107142Y-53382380D01*
X27250000Y-53430000D01*
X27678571Y-53858571D02*
X28011904Y-53858571D01*
X28154761Y-54382380D02*
X27678571Y-54382380D01*
X27678571Y-53382380D01*
X28154761Y-53382380D01*
X28440476Y-53382380D02*
X29011904Y-53382380D01*
X28726190Y-54382380D02*
X28726190Y-53382380D01*
G04 #@! TO.C,J5*
X22297619Y-99342380D02*
X22297619Y-98342380D01*
X22535714Y-98342380D01*
X22678571Y-98390000D01*
X22773809Y-98485238D01*
X22821428Y-98580476D01*
X22869047Y-98770952D01*
X22869047Y-98913809D01*
X22821428Y-99104285D01*
X22773809Y-99199523D01*
X22678571Y-99294761D01*
X22535714Y-99342380D01*
X22297619Y-99342380D01*
X23297619Y-99342380D02*
X23297619Y-98342380D01*
X24297619Y-98390000D02*
X24202380Y-98342380D01*
X24059523Y-98342380D01*
X23916666Y-98390000D01*
X23821428Y-98485238D01*
X23773809Y-98580476D01*
X23726190Y-98770952D01*
X23726190Y-98913809D01*
X23773809Y-99104285D01*
X23821428Y-99199523D01*
X23916666Y-99294761D01*
X24059523Y-99342380D01*
X24154761Y-99342380D01*
X24297619Y-99294761D01*
X24345238Y-99247142D01*
X24345238Y-98913809D01*
X24154761Y-98913809D01*
X24773809Y-99342380D02*
X24773809Y-98342380D01*
X25107142Y-98342380D02*
X25678571Y-98342380D01*
X25392857Y-99342380D02*
X25392857Y-98342380D01*
X25964285Y-99056666D02*
X26440476Y-99056666D01*
X25869047Y-99342380D02*
X26202380Y-98342380D01*
X26535714Y-99342380D01*
X27345238Y-99342380D02*
X26869047Y-99342380D01*
X26869047Y-98342380D01*
G04 #@! TO.C,J6*
X78023809Y-51842380D02*
X78023809Y-50842380D01*
X78452380Y-50937619D02*
X78500000Y-50890000D01*
X78595238Y-50842380D01*
X78833333Y-50842380D01*
X78928571Y-50890000D01*
X78976190Y-50937619D01*
X79023809Y-51032857D01*
X79023809Y-51128095D01*
X78976190Y-51270952D01*
X78404761Y-51842380D01*
X79023809Y-51842380D01*
X80023809Y-51747142D02*
X79976190Y-51794761D01*
X79833333Y-51842380D01*
X79738095Y-51842380D01*
X79595238Y-51794761D01*
X79500000Y-51699523D01*
X79452380Y-51604285D01*
X79404761Y-51413809D01*
X79404761Y-51270952D01*
X79452380Y-51080476D01*
X79500000Y-50985238D01*
X79595238Y-50890000D01*
X79738095Y-50842380D01*
X79833333Y-50842380D01*
X79976190Y-50890000D01*
X80023809Y-50937619D01*
G04 #@! TO.C,J7*
X77976190Y-74309761D02*
X78119047Y-74357380D01*
X78357142Y-74357380D01*
X78452380Y-74309761D01*
X78500000Y-74262142D01*
X78547619Y-74166904D01*
X78547619Y-74071666D01*
X78500000Y-73976428D01*
X78452380Y-73928809D01*
X78357142Y-73881190D01*
X78166666Y-73833571D01*
X78071428Y-73785952D01*
X78023809Y-73738333D01*
X77976190Y-73643095D01*
X77976190Y-73547857D01*
X78023809Y-73452619D01*
X78071428Y-73405000D01*
X78166666Y-73357380D01*
X78404761Y-73357380D01*
X78547619Y-73405000D01*
X78976190Y-74357380D02*
X78976190Y-73357380D01*
X79357142Y-73357380D01*
X79452380Y-73405000D01*
X79500000Y-73452619D01*
X79547619Y-73547857D01*
X79547619Y-73690714D01*
X79500000Y-73785952D01*
X79452380Y-73833571D01*
X79357142Y-73881190D01*
X78976190Y-73881190D01*
X79976190Y-74357380D02*
X79976190Y-73357380D01*
G04 #@! TO.C,R1*
X34542380Y-31266666D02*
X34066190Y-31600000D01*
X34542380Y-31838095D02*
X33542380Y-31838095D01*
X33542380Y-31457142D01*
X33590000Y-31361904D01*
X33637619Y-31314285D01*
X33732857Y-31266666D01*
X33875714Y-31266666D01*
X33970952Y-31314285D01*
X34018571Y-31361904D01*
X34066190Y-31457142D01*
X34066190Y-31838095D01*
X34542380Y-30314285D02*
X34542380Y-30885714D01*
X34542380Y-30600000D02*
X33542380Y-30600000D01*
X33685238Y-30695238D01*
X33780476Y-30790476D01*
X33828095Y-30885714D01*
G04 #@! TO.C,R2*
X46352380Y-30966666D02*
X45876190Y-31300000D01*
X46352380Y-31538095D02*
X45352380Y-31538095D01*
X45352380Y-31157142D01*
X45400000Y-31061904D01*
X45447619Y-31014285D01*
X45542857Y-30966666D01*
X45685714Y-30966666D01*
X45780952Y-31014285D01*
X45828571Y-31061904D01*
X45876190Y-31157142D01*
X45876190Y-31538095D01*
X45447619Y-30585714D02*
X45400000Y-30538095D01*
X45352380Y-30442857D01*
X45352380Y-30204761D01*
X45400000Y-30109523D01*
X45447619Y-30061904D01*
X45542857Y-30014285D01*
X45638095Y-30014285D01*
X45780952Y-30061904D01*
X46352380Y-30633333D01*
X46352380Y-30014285D01*
G04 #@! TO.C,Y1*
X57226190Y-39576190D02*
X57702380Y-39576190D01*
X56702380Y-39909523D02*
X57226190Y-39576190D01*
X56702380Y-39242857D01*
X57702380Y-38385714D02*
X57702380Y-38957142D01*
X57702380Y-38671428D02*
X56702380Y-38671428D01*
X56845238Y-38766666D01*
X56940476Y-38861904D01*
X56988095Y-38957142D01*
G04 #@! TO.C,U1*
X72152380Y-32511904D02*
X72961904Y-32511904D01*
X73057142Y-32464285D01*
X73104761Y-32416666D01*
X73152380Y-32321428D01*
X73152380Y-32130952D01*
X73104761Y-32035714D01*
X73057142Y-31988095D01*
X72961904Y-31940476D01*
X72152380Y-31940476D01*
X73152380Y-30940476D02*
X73152380Y-31511904D01*
X73152380Y-31226190D02*
X72152380Y-31226190D01*
X72295238Y-31321428D01*
X72390476Y-31416666D01*
X72438095Y-31511904D01*
G04 #@! TD*
M02*
