G04 #@! TF.GenerationSoftware,KiCad,Pcbnew,(5.0.0-3-g5ebb6b6)*
G04 #@! TF.CreationDate,2019-01-16T13:26:12+00:00*
G04 #@! TF.ProjectId,Mangler,4D616E676C65722E6B696361645F7063,rev?*
G04 #@! TF.SameCoordinates,Original*
G04 #@! TF.FileFunction,Legend,Bot*
G04 #@! TF.FilePolarity,Positive*
%FSLAX46Y46*%
G04 Gerber Fmt 4.6, Leading zero omitted, Abs format (unit mm)*
G04 Created by KiCad (PCBNEW (5.0.0-3-g5ebb6b6)) date Wednesday, 16 January 2019 at 13:26:12*
%MOMM*%
%LPD*%
G01*
G04 APERTURE LIST*
%ADD10C,0.120000*%
%ADD11C,0.150000*%
G04 APERTURE END LIST*
D10*
G04 #@! TO.C,U2*
X50400000Y-36560000D02*
G75*
G03X52400000Y-36560000I1000000J0D01*
G01*
X52400000Y-36560000D02*
X57745000Y-36560000D01*
X57745000Y-36560000D02*
X57745000Y-97640000D01*
X57745000Y-97640000D02*
X45055000Y-97640000D01*
X45055000Y-97640000D02*
X45055000Y-36560000D01*
X45055000Y-36560000D02*
X50400000Y-36560000D01*
X61445000Y-36500000D02*
X61445000Y-97700000D01*
X61445000Y-97700000D02*
X41355000Y-97700000D01*
X41355000Y-97700000D02*
X41355000Y-36500000D01*
X41355000Y-36500000D02*
X61445000Y-36500000D01*
D11*
X52161904Y-35012380D02*
X52161904Y-35821904D01*
X52114285Y-35917142D01*
X52066666Y-35964761D01*
X51971428Y-36012380D01*
X51780952Y-36012380D01*
X51685714Y-35964761D01*
X51638095Y-35917142D01*
X51590476Y-35821904D01*
X51590476Y-35012380D01*
X51161904Y-35107619D02*
X51114285Y-35060000D01*
X51019047Y-35012380D01*
X50780952Y-35012380D01*
X50685714Y-35060000D01*
X50638095Y-35107619D01*
X50590476Y-35202857D01*
X50590476Y-35298095D01*
X50638095Y-35440952D01*
X51209523Y-36012380D01*
X50590476Y-36012380D01*
X51804761Y-60954761D02*
X51852380Y-61097619D01*
X51852380Y-61335714D01*
X51804761Y-61430952D01*
X51757142Y-61478571D01*
X51661904Y-61526190D01*
X51566666Y-61526190D01*
X51471428Y-61478571D01*
X51423809Y-61430952D01*
X51376190Y-61335714D01*
X51328571Y-61145238D01*
X51280952Y-61050000D01*
X51233333Y-61002380D01*
X51138095Y-60954761D01*
X51042857Y-60954761D01*
X50947619Y-61002380D01*
X50900000Y-61050000D01*
X50852380Y-61145238D01*
X50852380Y-61383333D01*
X50900000Y-61526190D01*
X51566666Y-61907142D02*
X51566666Y-62383333D01*
X51852380Y-61811904D02*
X50852380Y-62145238D01*
X51852380Y-62478571D01*
X51852380Y-62811904D02*
X50852380Y-62811904D01*
X51566666Y-63145238D01*
X50852380Y-63478571D01*
X51852380Y-63478571D01*
X51852380Y-63954761D02*
X50852380Y-63954761D01*
X50852380Y-64192857D01*
X50900000Y-64335714D01*
X50995238Y-64430952D01*
X51090476Y-64478571D01*
X51280952Y-64526190D01*
X51423809Y-64526190D01*
X51614285Y-64478571D01*
X51709523Y-64430952D01*
X51804761Y-64335714D01*
X51852380Y-64192857D01*
X51852380Y-63954761D01*
X50947619Y-64907142D02*
X50900000Y-64954761D01*
X50852380Y-65049999D01*
X50852380Y-65288095D01*
X50900000Y-65383333D01*
X50947619Y-65430952D01*
X51042857Y-65478571D01*
X51138095Y-65478571D01*
X51280952Y-65430952D01*
X51852380Y-64859523D01*
X51852380Y-65478571D01*
X51852380Y-66430952D02*
X51852380Y-65859523D01*
X51852380Y-66145238D02*
X50852380Y-66145238D01*
X50995238Y-66049999D01*
X51090476Y-65954761D01*
X51138095Y-65859523D01*
X50900000Y-67383333D02*
X50852380Y-67288095D01*
X50852380Y-67145238D01*
X50900000Y-67002380D01*
X50995238Y-66907142D01*
X51090476Y-66859523D01*
X51280952Y-66811904D01*
X51423809Y-66811904D01*
X51614285Y-66859523D01*
X51709523Y-66907142D01*
X51804761Y-67002380D01*
X51852380Y-67145238D01*
X51852380Y-67240476D01*
X51804761Y-67383333D01*
X51757142Y-67430952D01*
X51423809Y-67430952D01*
X51423809Y-67240476D01*
X51852380Y-68383333D02*
X51852380Y-67811904D01*
X51852380Y-68097619D02*
X50852380Y-68097619D01*
X50995238Y-68002380D01*
X51090476Y-67907142D01*
X51138095Y-67811904D01*
X51280952Y-68954761D02*
X51233333Y-68859523D01*
X51185714Y-68811904D01*
X51090476Y-68764285D01*
X51042857Y-68764285D01*
X50947619Y-68811904D01*
X50900000Y-68859523D01*
X50852380Y-68954761D01*
X50852380Y-69145238D01*
X50900000Y-69240476D01*
X50947619Y-69288095D01*
X51042857Y-69335714D01*
X51090476Y-69335714D01*
X51185714Y-69288095D01*
X51233333Y-69240476D01*
X51280952Y-69145238D01*
X51280952Y-68954761D01*
X51328571Y-68859523D01*
X51376190Y-68811904D01*
X51471428Y-68764285D01*
X51661904Y-68764285D01*
X51757142Y-68811904D01*
X51804761Y-68859523D01*
X51852380Y-68954761D01*
X51852380Y-69145238D01*
X51804761Y-69240476D01*
X51757142Y-69288095D01*
X51661904Y-69335714D01*
X51471428Y-69335714D01*
X51376190Y-69288095D01*
X51328571Y-69240476D01*
X51280952Y-69145238D01*
X51566666Y-69716666D02*
X51566666Y-70192857D01*
X51852380Y-69621428D02*
X50852380Y-69954761D01*
X51852380Y-70288095D01*
X51471428Y-70621428D02*
X51471428Y-71383333D01*
X51566666Y-71811904D02*
X51566666Y-72288095D01*
X51852380Y-71716666D02*
X50852380Y-72050000D01*
X51852380Y-72383333D01*
X51328571Y-73050000D02*
X51328571Y-72716666D01*
X51852380Y-72716666D02*
X50852380Y-72716666D01*
X50852380Y-73192857D01*
G04 #@! TD*
M02*
