G04 #@! TF.GenerationSoftware,KiCad,Pcbnew,(5.0.0-3-g5ebb6b6)*
G04 #@! TF.CreationDate,2019-01-16T13:26:12+00:00*
G04 #@! TF.ProjectId,Mangler,4D616E676C65722E6B696361645F7063,rev?*
G04 #@! TF.SameCoordinates,Original*
G04 #@! TF.FileFunction,Soldermask,Top*
G04 #@! TF.FilePolarity,Negative*
%FSLAX46Y46*%
G04 Gerber Fmt 4.6, Leading zero omitted, Abs format (unit mm)*
G04 Created by KiCad (PCBNEW (5.0.0-3-g5ebb6b6)) date Wednesday, 16 January 2019 at 13:26:12*
%MOMM*%
%LPD*%
G01*
G04 APERTURE LIST*
%ADD10R,1.140000X2.800000*%
%ADD11C,0.100000*%
%ADD12C,1.275000*%
%ADD13C,1.650000*%
%ADD14C,1.375000*%
%ADD15R,0.850000X1.780000*%
%ADD16R,1.875000X2.500000*%
%ADD17R,2.775000X2.300000*%
%ADD18R,1.575000X2.300000*%
%ADD19R,2.100000X2.100000*%
%ADD20O,2.100000X2.100000*%
%ADD21R,2.200000X1.400000*%
%ADD22R,4.200000X2.400000*%
%ADD23R,1.900000X2.400000*%
%ADD24O,3.500000X2.000000*%
G04 APERTURE END LIST*
D10*
G04 #@! TO.C,J2*
X43040000Y-30780000D03*
X43040000Y-34680000D03*
X41770000Y-30780000D03*
X41770000Y-34680000D03*
X40500000Y-30780000D03*
X40500000Y-34680000D03*
X39230000Y-30780000D03*
X39230000Y-34680000D03*
X37960000Y-30780000D03*
X37960000Y-34680000D03*
G04 #@! TD*
D11*
G04 #@! TO.C,D2*
G36*
X47687493Y-33076535D02*
X47718435Y-33081125D01*
X47748778Y-33088725D01*
X47778230Y-33099263D01*
X47806508Y-33112638D01*
X47833338Y-33128719D01*
X47858463Y-33147353D01*
X47881640Y-33168360D01*
X47902647Y-33191537D01*
X47921281Y-33216662D01*
X47937362Y-33243492D01*
X47950737Y-33271770D01*
X47961275Y-33301222D01*
X47968875Y-33331565D01*
X47973465Y-33362507D01*
X47975000Y-33393750D01*
X47975000Y-34031250D01*
X47973465Y-34062493D01*
X47968875Y-34093435D01*
X47961275Y-34123778D01*
X47950737Y-34153230D01*
X47937362Y-34181508D01*
X47921281Y-34208338D01*
X47902647Y-34233463D01*
X47881640Y-34256640D01*
X47858463Y-34277647D01*
X47833338Y-34296281D01*
X47806508Y-34312362D01*
X47778230Y-34325737D01*
X47748778Y-34336275D01*
X47718435Y-34343875D01*
X47687493Y-34348465D01*
X47656250Y-34350000D01*
X46943750Y-34350000D01*
X46912507Y-34348465D01*
X46881565Y-34343875D01*
X46851222Y-34336275D01*
X46821770Y-34325737D01*
X46793492Y-34312362D01*
X46766662Y-34296281D01*
X46741537Y-34277647D01*
X46718360Y-34256640D01*
X46697353Y-34233463D01*
X46678719Y-34208338D01*
X46662638Y-34181508D01*
X46649263Y-34153230D01*
X46638725Y-34123778D01*
X46631125Y-34093435D01*
X46626535Y-34062493D01*
X46625000Y-34031250D01*
X46625000Y-33393750D01*
X46626535Y-33362507D01*
X46631125Y-33331565D01*
X46638725Y-33301222D01*
X46649263Y-33271770D01*
X46662638Y-33243492D01*
X46678719Y-33216662D01*
X46697353Y-33191537D01*
X46718360Y-33168360D01*
X46741537Y-33147353D01*
X46766662Y-33128719D01*
X46793492Y-33112638D01*
X46821770Y-33099263D01*
X46851222Y-33088725D01*
X46881565Y-33081125D01*
X46912507Y-33076535D01*
X46943750Y-33075000D01*
X47656250Y-33075000D01*
X47687493Y-33076535D01*
X47687493Y-33076535D01*
G37*
D12*
X47300000Y-33712500D03*
D11*
G36*
X47687493Y-34651535D02*
X47718435Y-34656125D01*
X47748778Y-34663725D01*
X47778230Y-34674263D01*
X47806508Y-34687638D01*
X47833338Y-34703719D01*
X47858463Y-34722353D01*
X47881640Y-34743360D01*
X47902647Y-34766537D01*
X47921281Y-34791662D01*
X47937362Y-34818492D01*
X47950737Y-34846770D01*
X47961275Y-34876222D01*
X47968875Y-34906565D01*
X47973465Y-34937507D01*
X47975000Y-34968750D01*
X47975000Y-35606250D01*
X47973465Y-35637493D01*
X47968875Y-35668435D01*
X47961275Y-35698778D01*
X47950737Y-35728230D01*
X47937362Y-35756508D01*
X47921281Y-35783338D01*
X47902647Y-35808463D01*
X47881640Y-35831640D01*
X47858463Y-35852647D01*
X47833338Y-35871281D01*
X47806508Y-35887362D01*
X47778230Y-35900737D01*
X47748778Y-35911275D01*
X47718435Y-35918875D01*
X47687493Y-35923465D01*
X47656250Y-35925000D01*
X46943750Y-35925000D01*
X46912507Y-35923465D01*
X46881565Y-35918875D01*
X46851222Y-35911275D01*
X46821770Y-35900737D01*
X46793492Y-35887362D01*
X46766662Y-35871281D01*
X46741537Y-35852647D01*
X46718360Y-35831640D01*
X46697353Y-35808463D01*
X46678719Y-35783338D01*
X46662638Y-35756508D01*
X46649263Y-35728230D01*
X46638725Y-35698778D01*
X46631125Y-35668435D01*
X46626535Y-35637493D01*
X46625000Y-35606250D01*
X46625000Y-34968750D01*
X46626535Y-34937507D01*
X46631125Y-34906565D01*
X46638725Y-34876222D01*
X46649263Y-34846770D01*
X46662638Y-34818492D01*
X46678719Y-34791662D01*
X46697353Y-34766537D01*
X46718360Y-34743360D01*
X46741537Y-34722353D01*
X46766662Y-34703719D01*
X46793492Y-34687638D01*
X46821770Y-34674263D01*
X46851222Y-34663725D01*
X46881565Y-34656125D01*
X46912507Y-34651535D01*
X46943750Y-34650000D01*
X47656250Y-34650000D01*
X47687493Y-34651535D01*
X47687493Y-34651535D01*
G37*
D12*
X47300000Y-35287500D03*
G04 #@! TD*
D11*
G04 #@! TO.C,D1*
G36*
X33087493Y-33376535D02*
X33118435Y-33381125D01*
X33148778Y-33388725D01*
X33178230Y-33399263D01*
X33206508Y-33412638D01*
X33233338Y-33428719D01*
X33258463Y-33447353D01*
X33281640Y-33468360D01*
X33302647Y-33491537D01*
X33321281Y-33516662D01*
X33337362Y-33543492D01*
X33350737Y-33571770D01*
X33361275Y-33601222D01*
X33368875Y-33631565D01*
X33373465Y-33662507D01*
X33375000Y-33693750D01*
X33375000Y-34331250D01*
X33373465Y-34362493D01*
X33368875Y-34393435D01*
X33361275Y-34423778D01*
X33350737Y-34453230D01*
X33337362Y-34481508D01*
X33321281Y-34508338D01*
X33302647Y-34533463D01*
X33281640Y-34556640D01*
X33258463Y-34577647D01*
X33233338Y-34596281D01*
X33206508Y-34612362D01*
X33178230Y-34625737D01*
X33148778Y-34636275D01*
X33118435Y-34643875D01*
X33087493Y-34648465D01*
X33056250Y-34650000D01*
X32343750Y-34650000D01*
X32312507Y-34648465D01*
X32281565Y-34643875D01*
X32251222Y-34636275D01*
X32221770Y-34625737D01*
X32193492Y-34612362D01*
X32166662Y-34596281D01*
X32141537Y-34577647D01*
X32118360Y-34556640D01*
X32097353Y-34533463D01*
X32078719Y-34508338D01*
X32062638Y-34481508D01*
X32049263Y-34453230D01*
X32038725Y-34423778D01*
X32031125Y-34393435D01*
X32026535Y-34362493D01*
X32025000Y-34331250D01*
X32025000Y-33693750D01*
X32026535Y-33662507D01*
X32031125Y-33631565D01*
X32038725Y-33601222D01*
X32049263Y-33571770D01*
X32062638Y-33543492D01*
X32078719Y-33516662D01*
X32097353Y-33491537D01*
X32118360Y-33468360D01*
X32141537Y-33447353D01*
X32166662Y-33428719D01*
X32193492Y-33412638D01*
X32221770Y-33399263D01*
X32251222Y-33388725D01*
X32281565Y-33381125D01*
X32312507Y-33376535D01*
X32343750Y-33375000D01*
X33056250Y-33375000D01*
X33087493Y-33376535D01*
X33087493Y-33376535D01*
G37*
D12*
X32700000Y-34012500D03*
D11*
G36*
X33087493Y-34951535D02*
X33118435Y-34956125D01*
X33148778Y-34963725D01*
X33178230Y-34974263D01*
X33206508Y-34987638D01*
X33233338Y-35003719D01*
X33258463Y-35022353D01*
X33281640Y-35043360D01*
X33302647Y-35066537D01*
X33321281Y-35091662D01*
X33337362Y-35118492D01*
X33350737Y-35146770D01*
X33361275Y-35176222D01*
X33368875Y-35206565D01*
X33373465Y-35237507D01*
X33375000Y-35268750D01*
X33375000Y-35906250D01*
X33373465Y-35937493D01*
X33368875Y-35968435D01*
X33361275Y-35998778D01*
X33350737Y-36028230D01*
X33337362Y-36056508D01*
X33321281Y-36083338D01*
X33302647Y-36108463D01*
X33281640Y-36131640D01*
X33258463Y-36152647D01*
X33233338Y-36171281D01*
X33206508Y-36187362D01*
X33178230Y-36200737D01*
X33148778Y-36211275D01*
X33118435Y-36218875D01*
X33087493Y-36223465D01*
X33056250Y-36225000D01*
X32343750Y-36225000D01*
X32312507Y-36223465D01*
X32281565Y-36218875D01*
X32251222Y-36211275D01*
X32221770Y-36200737D01*
X32193492Y-36187362D01*
X32166662Y-36171281D01*
X32141537Y-36152647D01*
X32118360Y-36131640D01*
X32097353Y-36108463D01*
X32078719Y-36083338D01*
X32062638Y-36056508D01*
X32049263Y-36028230D01*
X32038725Y-35998778D01*
X32031125Y-35968435D01*
X32026535Y-35937493D01*
X32025000Y-35906250D01*
X32025000Y-35268750D01*
X32026535Y-35237507D01*
X32031125Y-35206565D01*
X32038725Y-35176222D01*
X32049263Y-35146770D01*
X32062638Y-35118492D01*
X32078719Y-35091662D01*
X32097353Y-35066537D01*
X32118360Y-35043360D01*
X32141537Y-35022353D01*
X32166662Y-35003719D01*
X32193492Y-34987638D01*
X32221770Y-34974263D01*
X32251222Y-34963725D01*
X32281565Y-34956125D01*
X32312507Y-34951535D01*
X32343750Y-34950000D01*
X33056250Y-34950000D01*
X33087493Y-34951535D01*
X33087493Y-34951535D01*
G37*
D12*
X32700000Y-35587500D03*
G04 #@! TD*
D11*
G04 #@! TO.C,C1*
G36*
X63927346Y-31226589D02*
X63959380Y-31231341D01*
X63990794Y-31239210D01*
X64021286Y-31250120D01*
X64050561Y-31263966D01*
X64078338Y-31280615D01*
X64104350Y-31299907D01*
X64128345Y-31321655D01*
X64150093Y-31345650D01*
X64169385Y-31371662D01*
X64186034Y-31399439D01*
X64199880Y-31428714D01*
X64210790Y-31459206D01*
X64218659Y-31490620D01*
X64223411Y-31522654D01*
X64225000Y-31555000D01*
X64225000Y-32545000D01*
X64223411Y-32577346D01*
X64218659Y-32609380D01*
X64210790Y-32640794D01*
X64199880Y-32671286D01*
X64186034Y-32700561D01*
X64169385Y-32728338D01*
X64150093Y-32754350D01*
X64128345Y-32778345D01*
X64104350Y-32800093D01*
X64078338Y-32819385D01*
X64050561Y-32836034D01*
X64021286Y-32849880D01*
X63990794Y-32860790D01*
X63959380Y-32868659D01*
X63927346Y-32873411D01*
X63895000Y-32875000D01*
X62405000Y-32875000D01*
X62372654Y-32873411D01*
X62340620Y-32868659D01*
X62309206Y-32860790D01*
X62278714Y-32849880D01*
X62249439Y-32836034D01*
X62221662Y-32819385D01*
X62195650Y-32800093D01*
X62171655Y-32778345D01*
X62149907Y-32754350D01*
X62130615Y-32728338D01*
X62113966Y-32700561D01*
X62100120Y-32671286D01*
X62089210Y-32640794D01*
X62081341Y-32609380D01*
X62076589Y-32577346D01*
X62075000Y-32545000D01*
X62075000Y-31555000D01*
X62076589Y-31522654D01*
X62081341Y-31490620D01*
X62089210Y-31459206D01*
X62100120Y-31428714D01*
X62113966Y-31399439D01*
X62130615Y-31371662D01*
X62149907Y-31345650D01*
X62171655Y-31321655D01*
X62195650Y-31299907D01*
X62221662Y-31280615D01*
X62249439Y-31263966D01*
X62278714Y-31250120D01*
X62309206Y-31239210D01*
X62340620Y-31231341D01*
X62372654Y-31226589D01*
X62405000Y-31225000D01*
X63895000Y-31225000D01*
X63927346Y-31226589D01*
X63927346Y-31226589D01*
G37*
D13*
X63150000Y-32050000D03*
D11*
G36*
X63927346Y-34026589D02*
X63959380Y-34031341D01*
X63990794Y-34039210D01*
X64021286Y-34050120D01*
X64050561Y-34063966D01*
X64078338Y-34080615D01*
X64104350Y-34099907D01*
X64128345Y-34121655D01*
X64150093Y-34145650D01*
X64169385Y-34171662D01*
X64186034Y-34199439D01*
X64199880Y-34228714D01*
X64210790Y-34259206D01*
X64218659Y-34290620D01*
X64223411Y-34322654D01*
X64225000Y-34355000D01*
X64225000Y-35345000D01*
X64223411Y-35377346D01*
X64218659Y-35409380D01*
X64210790Y-35440794D01*
X64199880Y-35471286D01*
X64186034Y-35500561D01*
X64169385Y-35528338D01*
X64150093Y-35554350D01*
X64128345Y-35578345D01*
X64104350Y-35600093D01*
X64078338Y-35619385D01*
X64050561Y-35636034D01*
X64021286Y-35649880D01*
X63990794Y-35660790D01*
X63959380Y-35668659D01*
X63927346Y-35673411D01*
X63895000Y-35675000D01*
X62405000Y-35675000D01*
X62372654Y-35673411D01*
X62340620Y-35668659D01*
X62309206Y-35660790D01*
X62278714Y-35649880D01*
X62249439Y-35636034D01*
X62221662Y-35619385D01*
X62195650Y-35600093D01*
X62171655Y-35578345D01*
X62149907Y-35554350D01*
X62130615Y-35528338D01*
X62113966Y-35500561D01*
X62100120Y-35471286D01*
X62089210Y-35440794D01*
X62081341Y-35409380D01*
X62076589Y-35377346D01*
X62075000Y-35345000D01*
X62075000Y-34355000D01*
X62076589Y-34322654D01*
X62081341Y-34290620D01*
X62089210Y-34259206D01*
X62100120Y-34228714D01*
X62113966Y-34199439D01*
X62130615Y-34171662D01*
X62149907Y-34145650D01*
X62171655Y-34121655D01*
X62195650Y-34099907D01*
X62221662Y-34080615D01*
X62249439Y-34063966D01*
X62278714Y-34050120D01*
X62309206Y-34039210D01*
X62340620Y-34031341D01*
X62372654Y-34026589D01*
X62405000Y-34025000D01*
X63895000Y-34025000D01*
X63927346Y-34026589D01*
X63927346Y-34026589D01*
G37*
D13*
X63150000Y-34850000D03*
G04 #@! TD*
D11*
G04 #@! TO.C,C2*
G36*
X71597346Y-37526589D02*
X71629380Y-37531341D01*
X71660794Y-37539210D01*
X71691286Y-37550120D01*
X71720561Y-37563966D01*
X71748338Y-37580615D01*
X71774350Y-37599907D01*
X71798345Y-37621655D01*
X71820093Y-37645650D01*
X71839385Y-37671662D01*
X71856034Y-37699439D01*
X71869880Y-37728714D01*
X71880790Y-37759206D01*
X71888659Y-37790620D01*
X71893411Y-37822654D01*
X71895000Y-37855000D01*
X71895000Y-39345000D01*
X71893411Y-39377346D01*
X71888659Y-39409380D01*
X71880790Y-39440794D01*
X71869880Y-39471286D01*
X71856034Y-39500561D01*
X71839385Y-39528338D01*
X71820093Y-39554350D01*
X71798345Y-39578345D01*
X71774350Y-39600093D01*
X71748338Y-39619385D01*
X71720561Y-39636034D01*
X71691286Y-39649880D01*
X71660794Y-39660790D01*
X71629380Y-39668659D01*
X71597346Y-39673411D01*
X71565000Y-39675000D01*
X70575000Y-39675000D01*
X70542654Y-39673411D01*
X70510620Y-39668659D01*
X70479206Y-39660790D01*
X70448714Y-39649880D01*
X70419439Y-39636034D01*
X70391662Y-39619385D01*
X70365650Y-39600093D01*
X70341655Y-39578345D01*
X70319907Y-39554350D01*
X70300615Y-39528338D01*
X70283966Y-39500561D01*
X70270120Y-39471286D01*
X70259210Y-39440794D01*
X70251341Y-39409380D01*
X70246589Y-39377346D01*
X70245000Y-39345000D01*
X70245000Y-37855000D01*
X70246589Y-37822654D01*
X70251341Y-37790620D01*
X70259210Y-37759206D01*
X70270120Y-37728714D01*
X70283966Y-37699439D01*
X70300615Y-37671662D01*
X70319907Y-37645650D01*
X70341655Y-37621655D01*
X70365650Y-37599907D01*
X70391662Y-37580615D01*
X70419439Y-37563966D01*
X70448714Y-37550120D01*
X70479206Y-37539210D01*
X70510620Y-37531341D01*
X70542654Y-37526589D01*
X70575000Y-37525000D01*
X71565000Y-37525000D01*
X71597346Y-37526589D01*
X71597346Y-37526589D01*
G37*
D13*
X71070000Y-38600000D03*
D11*
G36*
X68797346Y-37526589D02*
X68829380Y-37531341D01*
X68860794Y-37539210D01*
X68891286Y-37550120D01*
X68920561Y-37563966D01*
X68948338Y-37580615D01*
X68974350Y-37599907D01*
X68998345Y-37621655D01*
X69020093Y-37645650D01*
X69039385Y-37671662D01*
X69056034Y-37699439D01*
X69069880Y-37728714D01*
X69080790Y-37759206D01*
X69088659Y-37790620D01*
X69093411Y-37822654D01*
X69095000Y-37855000D01*
X69095000Y-39345000D01*
X69093411Y-39377346D01*
X69088659Y-39409380D01*
X69080790Y-39440794D01*
X69069880Y-39471286D01*
X69056034Y-39500561D01*
X69039385Y-39528338D01*
X69020093Y-39554350D01*
X68998345Y-39578345D01*
X68974350Y-39600093D01*
X68948338Y-39619385D01*
X68920561Y-39636034D01*
X68891286Y-39649880D01*
X68860794Y-39660790D01*
X68829380Y-39668659D01*
X68797346Y-39673411D01*
X68765000Y-39675000D01*
X67775000Y-39675000D01*
X67742654Y-39673411D01*
X67710620Y-39668659D01*
X67679206Y-39660790D01*
X67648714Y-39649880D01*
X67619439Y-39636034D01*
X67591662Y-39619385D01*
X67565650Y-39600093D01*
X67541655Y-39578345D01*
X67519907Y-39554350D01*
X67500615Y-39528338D01*
X67483966Y-39500561D01*
X67470120Y-39471286D01*
X67459210Y-39440794D01*
X67451341Y-39409380D01*
X67446589Y-39377346D01*
X67445000Y-39345000D01*
X67445000Y-37855000D01*
X67446589Y-37822654D01*
X67451341Y-37790620D01*
X67459210Y-37759206D01*
X67470120Y-37728714D01*
X67483966Y-37699439D01*
X67500615Y-37671662D01*
X67519907Y-37645650D01*
X67541655Y-37621655D01*
X67565650Y-37599907D01*
X67591662Y-37580615D01*
X67619439Y-37563966D01*
X67648714Y-37550120D01*
X67679206Y-37539210D01*
X67710620Y-37531341D01*
X67742654Y-37526589D01*
X67775000Y-37525000D01*
X68765000Y-37525000D01*
X68797346Y-37526589D01*
X68797346Y-37526589D01*
G37*
D13*
X68270000Y-38600000D03*
G04 #@! TD*
D11*
G04 #@! TO.C,C3*
G36*
X71584943Y-41301655D02*
X71618312Y-41306605D01*
X71651035Y-41314802D01*
X71682797Y-41326166D01*
X71713293Y-41340590D01*
X71742227Y-41357932D01*
X71769323Y-41378028D01*
X71794318Y-41400682D01*
X71816972Y-41425677D01*
X71837068Y-41452773D01*
X71854410Y-41481707D01*
X71868834Y-41512203D01*
X71880198Y-41543965D01*
X71888395Y-41576688D01*
X71893345Y-41610057D01*
X71895000Y-41643750D01*
X71895000Y-42756250D01*
X71893345Y-42789943D01*
X71888395Y-42823312D01*
X71880198Y-42856035D01*
X71868834Y-42887797D01*
X71854410Y-42918293D01*
X71837068Y-42947227D01*
X71816972Y-42974323D01*
X71794318Y-42999318D01*
X71769323Y-43021972D01*
X71742227Y-43042068D01*
X71713293Y-43059410D01*
X71682797Y-43073834D01*
X71651035Y-43085198D01*
X71618312Y-43093395D01*
X71584943Y-43098345D01*
X71551250Y-43100000D01*
X70863750Y-43100000D01*
X70830057Y-43098345D01*
X70796688Y-43093395D01*
X70763965Y-43085198D01*
X70732203Y-43073834D01*
X70701707Y-43059410D01*
X70672773Y-43042068D01*
X70645677Y-43021972D01*
X70620682Y-42999318D01*
X70598028Y-42974323D01*
X70577932Y-42947227D01*
X70560590Y-42918293D01*
X70546166Y-42887797D01*
X70534802Y-42856035D01*
X70526605Y-42823312D01*
X70521655Y-42789943D01*
X70520000Y-42756250D01*
X70520000Y-41643750D01*
X70521655Y-41610057D01*
X70526605Y-41576688D01*
X70534802Y-41543965D01*
X70546166Y-41512203D01*
X70560590Y-41481707D01*
X70577932Y-41452773D01*
X70598028Y-41425677D01*
X70620682Y-41400682D01*
X70645677Y-41378028D01*
X70672773Y-41357932D01*
X70701707Y-41340590D01*
X70732203Y-41326166D01*
X70763965Y-41314802D01*
X70796688Y-41306605D01*
X70830057Y-41301655D01*
X70863750Y-41300000D01*
X71551250Y-41300000D01*
X71584943Y-41301655D01*
X71584943Y-41301655D01*
G37*
D14*
X71207500Y-42200000D03*
D11*
G36*
X69709943Y-41301655D02*
X69743312Y-41306605D01*
X69776035Y-41314802D01*
X69807797Y-41326166D01*
X69838293Y-41340590D01*
X69867227Y-41357932D01*
X69894323Y-41378028D01*
X69919318Y-41400682D01*
X69941972Y-41425677D01*
X69962068Y-41452773D01*
X69979410Y-41481707D01*
X69993834Y-41512203D01*
X70005198Y-41543965D01*
X70013395Y-41576688D01*
X70018345Y-41610057D01*
X70020000Y-41643750D01*
X70020000Y-42756250D01*
X70018345Y-42789943D01*
X70013395Y-42823312D01*
X70005198Y-42856035D01*
X69993834Y-42887797D01*
X69979410Y-42918293D01*
X69962068Y-42947227D01*
X69941972Y-42974323D01*
X69919318Y-42999318D01*
X69894323Y-43021972D01*
X69867227Y-43042068D01*
X69838293Y-43059410D01*
X69807797Y-43073834D01*
X69776035Y-43085198D01*
X69743312Y-43093395D01*
X69709943Y-43098345D01*
X69676250Y-43100000D01*
X68988750Y-43100000D01*
X68955057Y-43098345D01*
X68921688Y-43093395D01*
X68888965Y-43085198D01*
X68857203Y-43073834D01*
X68826707Y-43059410D01*
X68797773Y-43042068D01*
X68770677Y-43021972D01*
X68745682Y-42999318D01*
X68723028Y-42974323D01*
X68702932Y-42947227D01*
X68685590Y-42918293D01*
X68671166Y-42887797D01*
X68659802Y-42856035D01*
X68651605Y-42823312D01*
X68646655Y-42789943D01*
X68645000Y-42756250D01*
X68645000Y-41643750D01*
X68646655Y-41610057D01*
X68651605Y-41576688D01*
X68659802Y-41543965D01*
X68671166Y-41512203D01*
X68685590Y-41481707D01*
X68702932Y-41452773D01*
X68723028Y-41425677D01*
X68745682Y-41400682D01*
X68770677Y-41378028D01*
X68797773Y-41357932D01*
X68826707Y-41340590D01*
X68857203Y-41326166D01*
X68888965Y-41314802D01*
X68921688Y-41306605D01*
X68955057Y-41301655D01*
X68988750Y-41300000D01*
X69676250Y-41300000D01*
X69709943Y-41301655D01*
X69709943Y-41301655D01*
G37*
D14*
X69332500Y-42200000D03*
G04 #@! TD*
D11*
G04 #@! TO.C,C4*
G36*
X46837493Y-47926535D02*
X46868435Y-47931125D01*
X46898778Y-47938725D01*
X46928230Y-47949263D01*
X46956508Y-47962638D01*
X46983338Y-47978719D01*
X47008463Y-47997353D01*
X47031640Y-48018360D01*
X47052647Y-48041537D01*
X47071281Y-48066662D01*
X47087362Y-48093492D01*
X47100737Y-48121770D01*
X47111275Y-48151222D01*
X47118875Y-48181565D01*
X47123465Y-48212507D01*
X47125000Y-48243750D01*
X47125000Y-48881250D01*
X47123465Y-48912493D01*
X47118875Y-48943435D01*
X47111275Y-48973778D01*
X47100737Y-49003230D01*
X47087362Y-49031508D01*
X47071281Y-49058338D01*
X47052647Y-49083463D01*
X47031640Y-49106640D01*
X47008463Y-49127647D01*
X46983338Y-49146281D01*
X46956508Y-49162362D01*
X46928230Y-49175737D01*
X46898778Y-49186275D01*
X46868435Y-49193875D01*
X46837493Y-49198465D01*
X46806250Y-49200000D01*
X46093750Y-49200000D01*
X46062507Y-49198465D01*
X46031565Y-49193875D01*
X46001222Y-49186275D01*
X45971770Y-49175737D01*
X45943492Y-49162362D01*
X45916662Y-49146281D01*
X45891537Y-49127647D01*
X45868360Y-49106640D01*
X45847353Y-49083463D01*
X45828719Y-49058338D01*
X45812638Y-49031508D01*
X45799263Y-49003230D01*
X45788725Y-48973778D01*
X45781125Y-48943435D01*
X45776535Y-48912493D01*
X45775000Y-48881250D01*
X45775000Y-48243750D01*
X45776535Y-48212507D01*
X45781125Y-48181565D01*
X45788725Y-48151222D01*
X45799263Y-48121770D01*
X45812638Y-48093492D01*
X45828719Y-48066662D01*
X45847353Y-48041537D01*
X45868360Y-48018360D01*
X45891537Y-47997353D01*
X45916662Y-47978719D01*
X45943492Y-47962638D01*
X45971770Y-47949263D01*
X46001222Y-47938725D01*
X46031565Y-47931125D01*
X46062507Y-47926535D01*
X46093750Y-47925000D01*
X46806250Y-47925000D01*
X46837493Y-47926535D01*
X46837493Y-47926535D01*
G37*
D12*
X46450000Y-48562500D03*
D11*
G36*
X46837493Y-49501535D02*
X46868435Y-49506125D01*
X46898778Y-49513725D01*
X46928230Y-49524263D01*
X46956508Y-49537638D01*
X46983338Y-49553719D01*
X47008463Y-49572353D01*
X47031640Y-49593360D01*
X47052647Y-49616537D01*
X47071281Y-49641662D01*
X47087362Y-49668492D01*
X47100737Y-49696770D01*
X47111275Y-49726222D01*
X47118875Y-49756565D01*
X47123465Y-49787507D01*
X47125000Y-49818750D01*
X47125000Y-50456250D01*
X47123465Y-50487493D01*
X47118875Y-50518435D01*
X47111275Y-50548778D01*
X47100737Y-50578230D01*
X47087362Y-50606508D01*
X47071281Y-50633338D01*
X47052647Y-50658463D01*
X47031640Y-50681640D01*
X47008463Y-50702647D01*
X46983338Y-50721281D01*
X46956508Y-50737362D01*
X46928230Y-50750737D01*
X46898778Y-50761275D01*
X46868435Y-50768875D01*
X46837493Y-50773465D01*
X46806250Y-50775000D01*
X46093750Y-50775000D01*
X46062507Y-50773465D01*
X46031565Y-50768875D01*
X46001222Y-50761275D01*
X45971770Y-50750737D01*
X45943492Y-50737362D01*
X45916662Y-50721281D01*
X45891537Y-50702647D01*
X45868360Y-50681640D01*
X45847353Y-50658463D01*
X45828719Y-50633338D01*
X45812638Y-50606508D01*
X45799263Y-50578230D01*
X45788725Y-50548778D01*
X45781125Y-50518435D01*
X45776535Y-50487493D01*
X45775000Y-50456250D01*
X45775000Y-49818750D01*
X45776535Y-49787507D01*
X45781125Y-49756565D01*
X45788725Y-49726222D01*
X45799263Y-49696770D01*
X45812638Y-49668492D01*
X45828719Y-49641662D01*
X45847353Y-49616537D01*
X45868360Y-49593360D01*
X45891537Y-49572353D01*
X45916662Y-49553719D01*
X45943492Y-49537638D01*
X45971770Y-49524263D01*
X46001222Y-49513725D01*
X46031565Y-49506125D01*
X46062507Y-49501535D01*
X46093750Y-49500000D01*
X46806250Y-49500000D01*
X46837493Y-49501535D01*
X46837493Y-49501535D01*
G37*
D12*
X46450000Y-50137500D03*
G04 #@! TD*
D11*
G04 #@! TO.C,C5*
G36*
X56237493Y-49401535D02*
X56268435Y-49406125D01*
X56298778Y-49413725D01*
X56328230Y-49424263D01*
X56356508Y-49437638D01*
X56383338Y-49453719D01*
X56408463Y-49472353D01*
X56431640Y-49493360D01*
X56452647Y-49516537D01*
X56471281Y-49541662D01*
X56487362Y-49568492D01*
X56500737Y-49596770D01*
X56511275Y-49626222D01*
X56518875Y-49656565D01*
X56523465Y-49687507D01*
X56525000Y-49718750D01*
X56525000Y-50356250D01*
X56523465Y-50387493D01*
X56518875Y-50418435D01*
X56511275Y-50448778D01*
X56500737Y-50478230D01*
X56487362Y-50506508D01*
X56471281Y-50533338D01*
X56452647Y-50558463D01*
X56431640Y-50581640D01*
X56408463Y-50602647D01*
X56383338Y-50621281D01*
X56356508Y-50637362D01*
X56328230Y-50650737D01*
X56298778Y-50661275D01*
X56268435Y-50668875D01*
X56237493Y-50673465D01*
X56206250Y-50675000D01*
X55493750Y-50675000D01*
X55462507Y-50673465D01*
X55431565Y-50668875D01*
X55401222Y-50661275D01*
X55371770Y-50650737D01*
X55343492Y-50637362D01*
X55316662Y-50621281D01*
X55291537Y-50602647D01*
X55268360Y-50581640D01*
X55247353Y-50558463D01*
X55228719Y-50533338D01*
X55212638Y-50506508D01*
X55199263Y-50478230D01*
X55188725Y-50448778D01*
X55181125Y-50418435D01*
X55176535Y-50387493D01*
X55175000Y-50356250D01*
X55175000Y-49718750D01*
X55176535Y-49687507D01*
X55181125Y-49656565D01*
X55188725Y-49626222D01*
X55199263Y-49596770D01*
X55212638Y-49568492D01*
X55228719Y-49541662D01*
X55247353Y-49516537D01*
X55268360Y-49493360D01*
X55291537Y-49472353D01*
X55316662Y-49453719D01*
X55343492Y-49437638D01*
X55371770Y-49424263D01*
X55401222Y-49413725D01*
X55431565Y-49406125D01*
X55462507Y-49401535D01*
X55493750Y-49400000D01*
X56206250Y-49400000D01*
X56237493Y-49401535D01*
X56237493Y-49401535D01*
G37*
D12*
X55850000Y-50037500D03*
D11*
G36*
X56237493Y-47826535D02*
X56268435Y-47831125D01*
X56298778Y-47838725D01*
X56328230Y-47849263D01*
X56356508Y-47862638D01*
X56383338Y-47878719D01*
X56408463Y-47897353D01*
X56431640Y-47918360D01*
X56452647Y-47941537D01*
X56471281Y-47966662D01*
X56487362Y-47993492D01*
X56500737Y-48021770D01*
X56511275Y-48051222D01*
X56518875Y-48081565D01*
X56523465Y-48112507D01*
X56525000Y-48143750D01*
X56525000Y-48781250D01*
X56523465Y-48812493D01*
X56518875Y-48843435D01*
X56511275Y-48873778D01*
X56500737Y-48903230D01*
X56487362Y-48931508D01*
X56471281Y-48958338D01*
X56452647Y-48983463D01*
X56431640Y-49006640D01*
X56408463Y-49027647D01*
X56383338Y-49046281D01*
X56356508Y-49062362D01*
X56328230Y-49075737D01*
X56298778Y-49086275D01*
X56268435Y-49093875D01*
X56237493Y-49098465D01*
X56206250Y-49100000D01*
X55493750Y-49100000D01*
X55462507Y-49098465D01*
X55431565Y-49093875D01*
X55401222Y-49086275D01*
X55371770Y-49075737D01*
X55343492Y-49062362D01*
X55316662Y-49046281D01*
X55291537Y-49027647D01*
X55268360Y-49006640D01*
X55247353Y-48983463D01*
X55228719Y-48958338D01*
X55212638Y-48931508D01*
X55199263Y-48903230D01*
X55188725Y-48873778D01*
X55181125Y-48843435D01*
X55176535Y-48812493D01*
X55175000Y-48781250D01*
X55175000Y-48143750D01*
X55176535Y-48112507D01*
X55181125Y-48081565D01*
X55188725Y-48051222D01*
X55199263Y-48021770D01*
X55212638Y-47993492D01*
X55228719Y-47966662D01*
X55247353Y-47941537D01*
X55268360Y-47918360D01*
X55291537Y-47897353D01*
X55316662Y-47878719D01*
X55343492Y-47862638D01*
X55371770Y-47849263D01*
X55401222Y-47838725D01*
X55431565Y-47831125D01*
X55462507Y-47826535D01*
X55493750Y-47825000D01*
X56206250Y-47825000D01*
X56237493Y-47826535D01*
X56237493Y-47826535D01*
G37*
D12*
X55850000Y-48462500D03*
G04 #@! TD*
D11*
G04 #@! TO.C,C6*
G36*
X51862493Y-37156535D02*
X51893435Y-37161125D01*
X51923778Y-37168725D01*
X51953230Y-37179263D01*
X51981508Y-37192638D01*
X52008338Y-37208719D01*
X52033463Y-37227353D01*
X52056640Y-37248360D01*
X52077647Y-37271537D01*
X52096281Y-37296662D01*
X52112362Y-37323492D01*
X52125737Y-37351770D01*
X52136275Y-37381222D01*
X52143875Y-37411565D01*
X52148465Y-37442507D01*
X52150000Y-37473750D01*
X52150000Y-38186250D01*
X52148465Y-38217493D01*
X52143875Y-38248435D01*
X52136275Y-38278778D01*
X52125737Y-38308230D01*
X52112362Y-38336508D01*
X52096281Y-38363338D01*
X52077647Y-38388463D01*
X52056640Y-38411640D01*
X52033463Y-38432647D01*
X52008338Y-38451281D01*
X51981508Y-38467362D01*
X51953230Y-38480737D01*
X51923778Y-38491275D01*
X51893435Y-38498875D01*
X51862493Y-38503465D01*
X51831250Y-38505000D01*
X51193750Y-38505000D01*
X51162507Y-38503465D01*
X51131565Y-38498875D01*
X51101222Y-38491275D01*
X51071770Y-38480737D01*
X51043492Y-38467362D01*
X51016662Y-38451281D01*
X50991537Y-38432647D01*
X50968360Y-38411640D01*
X50947353Y-38388463D01*
X50928719Y-38363338D01*
X50912638Y-38336508D01*
X50899263Y-38308230D01*
X50888725Y-38278778D01*
X50881125Y-38248435D01*
X50876535Y-38217493D01*
X50875000Y-38186250D01*
X50875000Y-37473750D01*
X50876535Y-37442507D01*
X50881125Y-37411565D01*
X50888725Y-37381222D01*
X50899263Y-37351770D01*
X50912638Y-37323492D01*
X50928719Y-37296662D01*
X50947353Y-37271537D01*
X50968360Y-37248360D01*
X50991537Y-37227353D01*
X51016662Y-37208719D01*
X51043492Y-37192638D01*
X51071770Y-37179263D01*
X51101222Y-37168725D01*
X51131565Y-37161125D01*
X51162507Y-37156535D01*
X51193750Y-37155000D01*
X51831250Y-37155000D01*
X51862493Y-37156535D01*
X51862493Y-37156535D01*
G37*
D12*
X51512500Y-37830000D03*
D11*
G36*
X53437493Y-37156535D02*
X53468435Y-37161125D01*
X53498778Y-37168725D01*
X53528230Y-37179263D01*
X53556508Y-37192638D01*
X53583338Y-37208719D01*
X53608463Y-37227353D01*
X53631640Y-37248360D01*
X53652647Y-37271537D01*
X53671281Y-37296662D01*
X53687362Y-37323492D01*
X53700737Y-37351770D01*
X53711275Y-37381222D01*
X53718875Y-37411565D01*
X53723465Y-37442507D01*
X53725000Y-37473750D01*
X53725000Y-38186250D01*
X53723465Y-38217493D01*
X53718875Y-38248435D01*
X53711275Y-38278778D01*
X53700737Y-38308230D01*
X53687362Y-38336508D01*
X53671281Y-38363338D01*
X53652647Y-38388463D01*
X53631640Y-38411640D01*
X53608463Y-38432647D01*
X53583338Y-38451281D01*
X53556508Y-38467362D01*
X53528230Y-38480737D01*
X53498778Y-38491275D01*
X53468435Y-38498875D01*
X53437493Y-38503465D01*
X53406250Y-38505000D01*
X52768750Y-38505000D01*
X52737507Y-38503465D01*
X52706565Y-38498875D01*
X52676222Y-38491275D01*
X52646770Y-38480737D01*
X52618492Y-38467362D01*
X52591662Y-38451281D01*
X52566537Y-38432647D01*
X52543360Y-38411640D01*
X52522353Y-38388463D01*
X52503719Y-38363338D01*
X52487638Y-38336508D01*
X52474263Y-38308230D01*
X52463725Y-38278778D01*
X52456125Y-38248435D01*
X52451535Y-38217493D01*
X52450000Y-38186250D01*
X52450000Y-37473750D01*
X52451535Y-37442507D01*
X52456125Y-37411565D01*
X52463725Y-37381222D01*
X52474263Y-37351770D01*
X52487638Y-37323492D01*
X52503719Y-37296662D01*
X52522353Y-37271537D01*
X52543360Y-37248360D01*
X52566537Y-37227353D01*
X52591662Y-37208719D01*
X52618492Y-37192638D01*
X52646770Y-37179263D01*
X52676222Y-37168725D01*
X52706565Y-37161125D01*
X52737507Y-37156535D01*
X52768750Y-37155000D01*
X53406250Y-37155000D01*
X53437493Y-37156535D01*
X53437493Y-37156535D01*
G37*
D12*
X53087500Y-37830000D03*
G04 #@! TD*
D11*
G04 #@! TO.C,C7*
G36*
X53437493Y-39696535D02*
X53468435Y-39701125D01*
X53498778Y-39708725D01*
X53528230Y-39719263D01*
X53556508Y-39732638D01*
X53583338Y-39748719D01*
X53608463Y-39767353D01*
X53631640Y-39788360D01*
X53652647Y-39811537D01*
X53671281Y-39836662D01*
X53687362Y-39863492D01*
X53700737Y-39891770D01*
X53711275Y-39921222D01*
X53718875Y-39951565D01*
X53723465Y-39982507D01*
X53725000Y-40013750D01*
X53725000Y-40726250D01*
X53723465Y-40757493D01*
X53718875Y-40788435D01*
X53711275Y-40818778D01*
X53700737Y-40848230D01*
X53687362Y-40876508D01*
X53671281Y-40903338D01*
X53652647Y-40928463D01*
X53631640Y-40951640D01*
X53608463Y-40972647D01*
X53583338Y-40991281D01*
X53556508Y-41007362D01*
X53528230Y-41020737D01*
X53498778Y-41031275D01*
X53468435Y-41038875D01*
X53437493Y-41043465D01*
X53406250Y-41045000D01*
X52768750Y-41045000D01*
X52737507Y-41043465D01*
X52706565Y-41038875D01*
X52676222Y-41031275D01*
X52646770Y-41020737D01*
X52618492Y-41007362D01*
X52591662Y-40991281D01*
X52566537Y-40972647D01*
X52543360Y-40951640D01*
X52522353Y-40928463D01*
X52503719Y-40903338D01*
X52487638Y-40876508D01*
X52474263Y-40848230D01*
X52463725Y-40818778D01*
X52456125Y-40788435D01*
X52451535Y-40757493D01*
X52450000Y-40726250D01*
X52450000Y-40013750D01*
X52451535Y-39982507D01*
X52456125Y-39951565D01*
X52463725Y-39921222D01*
X52474263Y-39891770D01*
X52487638Y-39863492D01*
X52503719Y-39836662D01*
X52522353Y-39811537D01*
X52543360Y-39788360D01*
X52566537Y-39767353D01*
X52591662Y-39748719D01*
X52618492Y-39732638D01*
X52646770Y-39719263D01*
X52676222Y-39708725D01*
X52706565Y-39701125D01*
X52737507Y-39696535D01*
X52768750Y-39695000D01*
X53406250Y-39695000D01*
X53437493Y-39696535D01*
X53437493Y-39696535D01*
G37*
D12*
X53087500Y-40370000D03*
D11*
G36*
X51862493Y-39696535D02*
X51893435Y-39701125D01*
X51923778Y-39708725D01*
X51953230Y-39719263D01*
X51981508Y-39732638D01*
X52008338Y-39748719D01*
X52033463Y-39767353D01*
X52056640Y-39788360D01*
X52077647Y-39811537D01*
X52096281Y-39836662D01*
X52112362Y-39863492D01*
X52125737Y-39891770D01*
X52136275Y-39921222D01*
X52143875Y-39951565D01*
X52148465Y-39982507D01*
X52150000Y-40013750D01*
X52150000Y-40726250D01*
X52148465Y-40757493D01*
X52143875Y-40788435D01*
X52136275Y-40818778D01*
X52125737Y-40848230D01*
X52112362Y-40876508D01*
X52096281Y-40903338D01*
X52077647Y-40928463D01*
X52056640Y-40951640D01*
X52033463Y-40972647D01*
X52008338Y-40991281D01*
X51981508Y-41007362D01*
X51953230Y-41020737D01*
X51923778Y-41031275D01*
X51893435Y-41038875D01*
X51862493Y-41043465D01*
X51831250Y-41045000D01*
X51193750Y-41045000D01*
X51162507Y-41043465D01*
X51131565Y-41038875D01*
X51101222Y-41031275D01*
X51071770Y-41020737D01*
X51043492Y-41007362D01*
X51016662Y-40991281D01*
X50991537Y-40972647D01*
X50968360Y-40951640D01*
X50947353Y-40928463D01*
X50928719Y-40903338D01*
X50912638Y-40876508D01*
X50899263Y-40848230D01*
X50888725Y-40818778D01*
X50881125Y-40788435D01*
X50876535Y-40757493D01*
X50875000Y-40726250D01*
X50875000Y-40013750D01*
X50876535Y-39982507D01*
X50881125Y-39951565D01*
X50888725Y-39921222D01*
X50899263Y-39891770D01*
X50912638Y-39863492D01*
X50928719Y-39836662D01*
X50947353Y-39811537D01*
X50968360Y-39788360D01*
X50991537Y-39767353D01*
X51016662Y-39748719D01*
X51043492Y-39732638D01*
X51071770Y-39719263D01*
X51101222Y-39708725D01*
X51131565Y-39701125D01*
X51162507Y-39696535D01*
X51193750Y-39695000D01*
X51831250Y-39695000D01*
X51862493Y-39696535D01*
X51862493Y-39696535D01*
G37*
D12*
X51512500Y-40370000D03*
G04 #@! TD*
D11*
G04 #@! TO.C,C8*
G36*
X56237493Y-46201535D02*
X56268435Y-46206125D01*
X56298778Y-46213725D01*
X56328230Y-46224263D01*
X56356508Y-46237638D01*
X56383338Y-46253719D01*
X56408463Y-46272353D01*
X56431640Y-46293360D01*
X56452647Y-46316537D01*
X56471281Y-46341662D01*
X56487362Y-46368492D01*
X56500737Y-46396770D01*
X56511275Y-46426222D01*
X56518875Y-46456565D01*
X56523465Y-46487507D01*
X56525000Y-46518750D01*
X56525000Y-47156250D01*
X56523465Y-47187493D01*
X56518875Y-47218435D01*
X56511275Y-47248778D01*
X56500737Y-47278230D01*
X56487362Y-47306508D01*
X56471281Y-47333338D01*
X56452647Y-47358463D01*
X56431640Y-47381640D01*
X56408463Y-47402647D01*
X56383338Y-47421281D01*
X56356508Y-47437362D01*
X56328230Y-47450737D01*
X56298778Y-47461275D01*
X56268435Y-47468875D01*
X56237493Y-47473465D01*
X56206250Y-47475000D01*
X55493750Y-47475000D01*
X55462507Y-47473465D01*
X55431565Y-47468875D01*
X55401222Y-47461275D01*
X55371770Y-47450737D01*
X55343492Y-47437362D01*
X55316662Y-47421281D01*
X55291537Y-47402647D01*
X55268360Y-47381640D01*
X55247353Y-47358463D01*
X55228719Y-47333338D01*
X55212638Y-47306508D01*
X55199263Y-47278230D01*
X55188725Y-47248778D01*
X55181125Y-47218435D01*
X55176535Y-47187493D01*
X55175000Y-47156250D01*
X55175000Y-46518750D01*
X55176535Y-46487507D01*
X55181125Y-46456565D01*
X55188725Y-46426222D01*
X55199263Y-46396770D01*
X55212638Y-46368492D01*
X55228719Y-46341662D01*
X55247353Y-46316537D01*
X55268360Y-46293360D01*
X55291537Y-46272353D01*
X55316662Y-46253719D01*
X55343492Y-46237638D01*
X55371770Y-46224263D01*
X55401222Y-46213725D01*
X55431565Y-46206125D01*
X55462507Y-46201535D01*
X55493750Y-46200000D01*
X56206250Y-46200000D01*
X56237493Y-46201535D01*
X56237493Y-46201535D01*
G37*
D12*
X55850000Y-46837500D03*
D11*
G36*
X56237493Y-44626535D02*
X56268435Y-44631125D01*
X56298778Y-44638725D01*
X56328230Y-44649263D01*
X56356508Y-44662638D01*
X56383338Y-44678719D01*
X56408463Y-44697353D01*
X56431640Y-44718360D01*
X56452647Y-44741537D01*
X56471281Y-44766662D01*
X56487362Y-44793492D01*
X56500737Y-44821770D01*
X56511275Y-44851222D01*
X56518875Y-44881565D01*
X56523465Y-44912507D01*
X56525000Y-44943750D01*
X56525000Y-45581250D01*
X56523465Y-45612493D01*
X56518875Y-45643435D01*
X56511275Y-45673778D01*
X56500737Y-45703230D01*
X56487362Y-45731508D01*
X56471281Y-45758338D01*
X56452647Y-45783463D01*
X56431640Y-45806640D01*
X56408463Y-45827647D01*
X56383338Y-45846281D01*
X56356508Y-45862362D01*
X56328230Y-45875737D01*
X56298778Y-45886275D01*
X56268435Y-45893875D01*
X56237493Y-45898465D01*
X56206250Y-45900000D01*
X55493750Y-45900000D01*
X55462507Y-45898465D01*
X55431565Y-45893875D01*
X55401222Y-45886275D01*
X55371770Y-45875737D01*
X55343492Y-45862362D01*
X55316662Y-45846281D01*
X55291537Y-45827647D01*
X55268360Y-45806640D01*
X55247353Y-45783463D01*
X55228719Y-45758338D01*
X55212638Y-45731508D01*
X55199263Y-45703230D01*
X55188725Y-45673778D01*
X55181125Y-45643435D01*
X55176535Y-45612493D01*
X55175000Y-45581250D01*
X55175000Y-44943750D01*
X55176535Y-44912507D01*
X55181125Y-44881565D01*
X55188725Y-44851222D01*
X55199263Y-44821770D01*
X55212638Y-44793492D01*
X55228719Y-44766662D01*
X55247353Y-44741537D01*
X55268360Y-44718360D01*
X55291537Y-44697353D01*
X55316662Y-44678719D01*
X55343492Y-44662638D01*
X55371770Y-44649263D01*
X55401222Y-44638725D01*
X55431565Y-44631125D01*
X55462507Y-44626535D01*
X55493750Y-44625000D01*
X56206250Y-44625000D01*
X56237493Y-44626535D01*
X56237493Y-44626535D01*
G37*
D12*
X55850000Y-45262500D03*
G04 #@! TD*
D15*
G04 #@! TO.C,J1*
X58350000Y-31260000D03*
X57700000Y-31260000D03*
X57050000Y-31260000D03*
X56400000Y-31260000D03*
X55750000Y-31260000D03*
D16*
X59512500Y-30900000D03*
X54587500Y-30900000D03*
D17*
X59960000Y-28600000D03*
X54140000Y-28600000D03*
D18*
X57890000Y-28600000D03*
X56210000Y-28600000D03*
G04 #@! TD*
D19*
G04 #@! TO.C,J3*
X79000000Y-83450000D03*
D20*
X79000000Y-85990000D03*
X79000000Y-88530000D03*
X79000000Y-91070000D03*
X79000000Y-93610000D03*
X79000000Y-96150000D03*
G04 #@! TD*
D19*
G04 #@! TO.C,J4*
X24750000Y-41000000D03*
D20*
X24750000Y-43540000D03*
X24750000Y-46080000D03*
X24750000Y-48620000D03*
X24750000Y-51160000D03*
G04 #@! TD*
D19*
G04 #@! TO.C,J5*
X24750000Y-63100000D03*
D20*
X24750000Y-65640000D03*
X24750000Y-68180000D03*
X24750000Y-70720000D03*
X24750000Y-73260000D03*
X24750000Y-75800000D03*
X24750000Y-78340000D03*
X24750000Y-80880000D03*
X24750000Y-83420000D03*
X24750000Y-85960000D03*
X24750000Y-88500000D03*
X24750000Y-91040000D03*
X24750000Y-93580000D03*
X24750000Y-96120000D03*
G04 #@! TD*
D19*
G04 #@! TO.C,J6*
X79000000Y-41000000D03*
D20*
X79000000Y-43540000D03*
X79000000Y-46080000D03*
X79000000Y-48620000D03*
G04 #@! TD*
G04 #@! TO.C,J7*
X79000000Y-71135000D03*
X79000000Y-68595000D03*
X79000000Y-66055000D03*
X79000000Y-63515000D03*
D19*
X79000000Y-60975000D03*
G04 #@! TD*
D11*
G04 #@! TO.C,R1*
G36*
X33047493Y-29676535D02*
X33078435Y-29681125D01*
X33108778Y-29688725D01*
X33138230Y-29699263D01*
X33166508Y-29712638D01*
X33193338Y-29728719D01*
X33218463Y-29747353D01*
X33241640Y-29768360D01*
X33262647Y-29791537D01*
X33281281Y-29816662D01*
X33297362Y-29843492D01*
X33310737Y-29871770D01*
X33321275Y-29901222D01*
X33328875Y-29931565D01*
X33333465Y-29962507D01*
X33335000Y-29993750D01*
X33335000Y-30631250D01*
X33333465Y-30662493D01*
X33328875Y-30693435D01*
X33321275Y-30723778D01*
X33310737Y-30753230D01*
X33297362Y-30781508D01*
X33281281Y-30808338D01*
X33262647Y-30833463D01*
X33241640Y-30856640D01*
X33218463Y-30877647D01*
X33193338Y-30896281D01*
X33166508Y-30912362D01*
X33138230Y-30925737D01*
X33108778Y-30936275D01*
X33078435Y-30943875D01*
X33047493Y-30948465D01*
X33016250Y-30950000D01*
X32303750Y-30950000D01*
X32272507Y-30948465D01*
X32241565Y-30943875D01*
X32211222Y-30936275D01*
X32181770Y-30925737D01*
X32153492Y-30912362D01*
X32126662Y-30896281D01*
X32101537Y-30877647D01*
X32078360Y-30856640D01*
X32057353Y-30833463D01*
X32038719Y-30808338D01*
X32022638Y-30781508D01*
X32009263Y-30753230D01*
X31998725Y-30723778D01*
X31991125Y-30693435D01*
X31986535Y-30662493D01*
X31985000Y-30631250D01*
X31985000Y-29993750D01*
X31986535Y-29962507D01*
X31991125Y-29931565D01*
X31998725Y-29901222D01*
X32009263Y-29871770D01*
X32022638Y-29843492D01*
X32038719Y-29816662D01*
X32057353Y-29791537D01*
X32078360Y-29768360D01*
X32101537Y-29747353D01*
X32126662Y-29728719D01*
X32153492Y-29712638D01*
X32181770Y-29699263D01*
X32211222Y-29688725D01*
X32241565Y-29681125D01*
X32272507Y-29676535D01*
X32303750Y-29675000D01*
X33016250Y-29675000D01*
X33047493Y-29676535D01*
X33047493Y-29676535D01*
G37*
D12*
X32660000Y-30312500D03*
D11*
G36*
X33047493Y-31251535D02*
X33078435Y-31256125D01*
X33108778Y-31263725D01*
X33138230Y-31274263D01*
X33166508Y-31287638D01*
X33193338Y-31303719D01*
X33218463Y-31322353D01*
X33241640Y-31343360D01*
X33262647Y-31366537D01*
X33281281Y-31391662D01*
X33297362Y-31418492D01*
X33310737Y-31446770D01*
X33321275Y-31476222D01*
X33328875Y-31506565D01*
X33333465Y-31537507D01*
X33335000Y-31568750D01*
X33335000Y-32206250D01*
X33333465Y-32237493D01*
X33328875Y-32268435D01*
X33321275Y-32298778D01*
X33310737Y-32328230D01*
X33297362Y-32356508D01*
X33281281Y-32383338D01*
X33262647Y-32408463D01*
X33241640Y-32431640D01*
X33218463Y-32452647D01*
X33193338Y-32471281D01*
X33166508Y-32487362D01*
X33138230Y-32500737D01*
X33108778Y-32511275D01*
X33078435Y-32518875D01*
X33047493Y-32523465D01*
X33016250Y-32525000D01*
X32303750Y-32525000D01*
X32272507Y-32523465D01*
X32241565Y-32518875D01*
X32211222Y-32511275D01*
X32181770Y-32500737D01*
X32153492Y-32487362D01*
X32126662Y-32471281D01*
X32101537Y-32452647D01*
X32078360Y-32431640D01*
X32057353Y-32408463D01*
X32038719Y-32383338D01*
X32022638Y-32356508D01*
X32009263Y-32328230D01*
X31998725Y-32298778D01*
X31991125Y-32268435D01*
X31986535Y-32237493D01*
X31985000Y-32206250D01*
X31985000Y-31568750D01*
X31986535Y-31537507D01*
X31991125Y-31506565D01*
X31998725Y-31476222D01*
X32009263Y-31446770D01*
X32022638Y-31418492D01*
X32038719Y-31391662D01*
X32057353Y-31366537D01*
X32078360Y-31343360D01*
X32101537Y-31322353D01*
X32126662Y-31303719D01*
X32153492Y-31287638D01*
X32181770Y-31274263D01*
X32211222Y-31263725D01*
X32241565Y-31256125D01*
X32272507Y-31251535D01*
X32303750Y-31250000D01*
X33016250Y-31250000D01*
X33047493Y-31251535D01*
X33047493Y-31251535D01*
G37*
D12*
X32660000Y-31887500D03*
G04 #@! TD*
D11*
G04 #@! TO.C,R2*
G36*
X47727493Y-30951535D02*
X47758435Y-30956125D01*
X47788778Y-30963725D01*
X47818230Y-30974263D01*
X47846508Y-30987638D01*
X47873338Y-31003719D01*
X47898463Y-31022353D01*
X47921640Y-31043360D01*
X47942647Y-31066537D01*
X47961281Y-31091662D01*
X47977362Y-31118492D01*
X47990737Y-31146770D01*
X48001275Y-31176222D01*
X48008875Y-31206565D01*
X48013465Y-31237507D01*
X48015000Y-31268750D01*
X48015000Y-31906250D01*
X48013465Y-31937493D01*
X48008875Y-31968435D01*
X48001275Y-31998778D01*
X47990737Y-32028230D01*
X47977362Y-32056508D01*
X47961281Y-32083338D01*
X47942647Y-32108463D01*
X47921640Y-32131640D01*
X47898463Y-32152647D01*
X47873338Y-32171281D01*
X47846508Y-32187362D01*
X47818230Y-32200737D01*
X47788778Y-32211275D01*
X47758435Y-32218875D01*
X47727493Y-32223465D01*
X47696250Y-32225000D01*
X46983750Y-32225000D01*
X46952507Y-32223465D01*
X46921565Y-32218875D01*
X46891222Y-32211275D01*
X46861770Y-32200737D01*
X46833492Y-32187362D01*
X46806662Y-32171281D01*
X46781537Y-32152647D01*
X46758360Y-32131640D01*
X46737353Y-32108463D01*
X46718719Y-32083338D01*
X46702638Y-32056508D01*
X46689263Y-32028230D01*
X46678725Y-31998778D01*
X46671125Y-31968435D01*
X46666535Y-31937493D01*
X46665000Y-31906250D01*
X46665000Y-31268750D01*
X46666535Y-31237507D01*
X46671125Y-31206565D01*
X46678725Y-31176222D01*
X46689263Y-31146770D01*
X46702638Y-31118492D01*
X46718719Y-31091662D01*
X46737353Y-31066537D01*
X46758360Y-31043360D01*
X46781537Y-31022353D01*
X46806662Y-31003719D01*
X46833492Y-30987638D01*
X46861770Y-30974263D01*
X46891222Y-30963725D01*
X46921565Y-30956125D01*
X46952507Y-30951535D01*
X46983750Y-30950000D01*
X47696250Y-30950000D01*
X47727493Y-30951535D01*
X47727493Y-30951535D01*
G37*
D12*
X47340000Y-31587500D03*
D11*
G36*
X47727493Y-29376535D02*
X47758435Y-29381125D01*
X47788778Y-29388725D01*
X47818230Y-29399263D01*
X47846508Y-29412638D01*
X47873338Y-29428719D01*
X47898463Y-29447353D01*
X47921640Y-29468360D01*
X47942647Y-29491537D01*
X47961281Y-29516662D01*
X47977362Y-29543492D01*
X47990737Y-29571770D01*
X48001275Y-29601222D01*
X48008875Y-29631565D01*
X48013465Y-29662507D01*
X48015000Y-29693750D01*
X48015000Y-30331250D01*
X48013465Y-30362493D01*
X48008875Y-30393435D01*
X48001275Y-30423778D01*
X47990737Y-30453230D01*
X47977362Y-30481508D01*
X47961281Y-30508338D01*
X47942647Y-30533463D01*
X47921640Y-30556640D01*
X47898463Y-30577647D01*
X47873338Y-30596281D01*
X47846508Y-30612362D01*
X47818230Y-30625737D01*
X47788778Y-30636275D01*
X47758435Y-30643875D01*
X47727493Y-30648465D01*
X47696250Y-30650000D01*
X46983750Y-30650000D01*
X46952507Y-30648465D01*
X46921565Y-30643875D01*
X46891222Y-30636275D01*
X46861770Y-30625737D01*
X46833492Y-30612362D01*
X46806662Y-30596281D01*
X46781537Y-30577647D01*
X46758360Y-30556640D01*
X46737353Y-30533463D01*
X46718719Y-30508338D01*
X46702638Y-30481508D01*
X46689263Y-30453230D01*
X46678725Y-30423778D01*
X46671125Y-30393435D01*
X46666535Y-30362493D01*
X46665000Y-30331250D01*
X46665000Y-29693750D01*
X46666535Y-29662507D01*
X46671125Y-29631565D01*
X46678725Y-29601222D01*
X46689263Y-29571770D01*
X46702638Y-29543492D01*
X46718719Y-29516662D01*
X46737353Y-29491537D01*
X46758360Y-29468360D01*
X46781537Y-29447353D01*
X46806662Y-29428719D01*
X46833492Y-29412638D01*
X46861770Y-29399263D01*
X46891222Y-29388725D01*
X46921565Y-29381125D01*
X46952507Y-29376535D01*
X46983750Y-29375000D01*
X47696250Y-29375000D01*
X47727493Y-29376535D01*
X47727493Y-29376535D01*
G37*
D12*
X47340000Y-30012500D03*
G04 #@! TD*
D21*
G04 #@! TO.C,Y1*
X55300000Y-37850000D03*
X55300000Y-40350000D03*
G04 #@! TD*
D22*
G04 #@! TO.C,U1*
X68350000Y-28600000D03*
D23*
X68350000Y-34900000D03*
X70650000Y-34900000D03*
X66050000Y-34900000D03*
G04 #@! TD*
D24*
G04 #@! TO.C,U2*
X59600000Y-37890000D03*
X43200000Y-96310000D03*
X59600000Y-40430000D03*
X43200000Y-93770000D03*
X59600000Y-42970000D03*
X43200000Y-91230000D03*
X59600000Y-45510000D03*
X43200000Y-88690000D03*
X59600000Y-48050000D03*
X43200000Y-86150000D03*
X59600000Y-50590000D03*
X43200000Y-83610000D03*
X59600000Y-53130000D03*
X43200000Y-81070000D03*
X59600000Y-55670000D03*
X43200000Y-78530000D03*
X59600000Y-58210000D03*
X43200000Y-75990000D03*
X59600000Y-60750000D03*
X43200000Y-73450000D03*
X59600000Y-63290000D03*
X43200000Y-70910000D03*
X59600000Y-65830000D03*
X43200000Y-68370000D03*
X59600000Y-68370000D03*
X43200000Y-65830000D03*
X59600000Y-70910000D03*
X43200000Y-63290000D03*
X59600000Y-73450000D03*
X43200000Y-60750000D03*
X59600000Y-75990000D03*
X43200000Y-58210000D03*
X59600000Y-78530000D03*
X43200000Y-55670000D03*
X59600000Y-81070000D03*
X43200000Y-53130000D03*
X59600000Y-83610000D03*
X43200000Y-50590000D03*
X59600000Y-86150000D03*
X43200000Y-48050000D03*
X59600000Y-88690000D03*
X43200000Y-45510000D03*
X59600000Y-91230000D03*
X43200000Y-42970000D03*
X59600000Y-93770000D03*
X43200000Y-40430000D03*
X59600000Y-96310000D03*
X43200000Y-37890000D03*
G04 #@! TD*
M02*
