G04 #@! TF.GenerationSoftware,KiCad,Pcbnew,(5.0.0-3-g5ebb6b6)*
G04 #@! TF.CreationDate,2019-01-16T13:26:12+00:00*
G04 #@! TF.ProjectId,Mangler,4D616E676C65722E6B696361645F7063,rev?*
G04 #@! TF.SameCoordinates,Original*
G04 #@! TF.FileFunction,Soldermask,Bot*
G04 #@! TF.FilePolarity,Negative*
%FSLAX46Y46*%
G04 Gerber Fmt 4.6, Leading zero omitted, Abs format (unit mm)*
G04 Created by KiCad (PCBNEW (5.0.0-3-g5ebb6b6)) date Wednesday, 16 January 2019 at 13:26:12*
%MOMM*%
%LPD*%
G01*
G04 APERTURE LIST*
%ADD10R,2.100000X2.100000*%
%ADD11O,2.100000X2.100000*%
%ADD12O,3.500000X2.000000*%
G04 APERTURE END LIST*
D10*
G04 #@! TO.C,J3*
X79000000Y-83450000D03*
D11*
X79000000Y-85990000D03*
X79000000Y-88530000D03*
X79000000Y-91070000D03*
X79000000Y-93610000D03*
X79000000Y-96150000D03*
G04 #@! TD*
D10*
G04 #@! TO.C,J4*
X24750000Y-41000000D03*
D11*
X24750000Y-43540000D03*
X24750000Y-46080000D03*
X24750000Y-48620000D03*
X24750000Y-51160000D03*
G04 #@! TD*
D10*
G04 #@! TO.C,J5*
X24750000Y-63100000D03*
D11*
X24750000Y-65640000D03*
X24750000Y-68180000D03*
X24750000Y-70720000D03*
X24750000Y-73260000D03*
X24750000Y-75800000D03*
X24750000Y-78340000D03*
X24750000Y-80880000D03*
X24750000Y-83420000D03*
X24750000Y-85960000D03*
X24750000Y-88500000D03*
X24750000Y-91040000D03*
X24750000Y-93580000D03*
X24750000Y-96120000D03*
G04 #@! TD*
D10*
G04 #@! TO.C,J6*
X79000000Y-41000000D03*
D11*
X79000000Y-43540000D03*
X79000000Y-46080000D03*
X79000000Y-48620000D03*
G04 #@! TD*
G04 #@! TO.C,J7*
X79000000Y-71135000D03*
X79000000Y-68595000D03*
X79000000Y-66055000D03*
X79000000Y-63515000D03*
D10*
X79000000Y-60975000D03*
G04 #@! TD*
D12*
G04 #@! TO.C,U2*
X59600000Y-37890000D03*
X43200000Y-96310000D03*
X59600000Y-40430000D03*
X43200000Y-93770000D03*
X59600000Y-42970000D03*
X43200000Y-91230000D03*
X59600000Y-45510000D03*
X43200000Y-88690000D03*
X59600000Y-48050000D03*
X43200000Y-86150000D03*
X59600000Y-50590000D03*
X43200000Y-83610000D03*
X59600000Y-53130000D03*
X43200000Y-81070000D03*
X59600000Y-55670000D03*
X43200000Y-78530000D03*
X59600000Y-58210000D03*
X43200000Y-75990000D03*
X59600000Y-60750000D03*
X43200000Y-73450000D03*
X59600000Y-63290000D03*
X43200000Y-70910000D03*
X59600000Y-65830000D03*
X43200000Y-68370000D03*
X59600000Y-68370000D03*
X43200000Y-65830000D03*
X59600000Y-70910000D03*
X43200000Y-63290000D03*
X59600000Y-73450000D03*
X43200000Y-60750000D03*
X59600000Y-75990000D03*
X43200000Y-58210000D03*
X59600000Y-78530000D03*
X43200000Y-55670000D03*
X59600000Y-81070000D03*
X43200000Y-53130000D03*
X59600000Y-83610000D03*
X43200000Y-50590000D03*
X59600000Y-86150000D03*
X43200000Y-48050000D03*
X59600000Y-88690000D03*
X43200000Y-45510000D03*
X59600000Y-91230000D03*
X43200000Y-42970000D03*
X59600000Y-93770000D03*
X43200000Y-40430000D03*
X59600000Y-96310000D03*
X43200000Y-37890000D03*
G04 #@! TD*
M02*
