M48
;DRILL file {KiCad (5.0.0-3-g5ebb6b6)} date Wednesday, 16 January 2019 at 13:26:16
;FORMAT={-:-/ absolute / metric / decimal}
FMAT,2
METRIC,TZ
T1C0.400
T2C1.000
%
G90
G05
M71
T1
X30.15Y-35.6
X31.2Y-34.6
X31.2Y-35.6
X34.3Y-34.6
X34.3Y-35.6
X34.3Y-36.6
X34.9Y-47.6
X34.9Y-49.
X34.9Y-50.4
X36.35Y-47.6
X36.35Y-49.
X36.35Y-50.4
X36.75Y-40.25
X37.8Y-39.4
X37.8Y-41.
X37.8Y-47.6
X37.8Y-49.
X37.8Y-50.4
X38.75Y-38.55
X38.75Y-40.25
X38.75Y-41.9
X47.5Y-43.25
X47.5Y-44.5
X47.5Y-45.75
X47.5Y-70.15
X47.5Y-71.2
X47.5Y-72.3
X47.65Y-65.3
X47.65Y-66.45
X48.65Y-43.25
X48.65Y-44.5
X48.65Y-45.75
X48.65Y-70.15
X48.65Y-71.2
X48.817Y-65.3
X48.817Y-66.45
X49.75Y-70.15
X49.8Y-43.25
X49.8Y-44.5
X49.8Y-45.75
X49.983Y-65.3
X49.983Y-66.45
X50.95Y-43.25
X50.95Y-44.5
X50.95Y-45.75
X51.15Y-65.3
X51.15Y-66.45
X53.8Y-81.05
X54.75Y-81.05
X55.7Y-81.05
X56.2Y-78.45
X56.35Y-34.9
X56.7Y-81.05
X57.7Y-34.95
X62.75Y-46.6
X62.75Y-47.65
X62.75Y-48.7
X63.9Y-47.65
X63.9Y-48.7
X64.1Y-94.35
X64.1Y-95.525
X64.1Y-96.7
X64.3Y-71.
X64.3Y-72.471
X64.3Y-73.943
X64.3Y-75.414
X64.3Y-76.886
X64.3Y-78.357
X64.3Y-79.829
X64.3Y-81.3
X65.05Y-48.7
X65.2Y-42.2
X65.525Y-94.35
X65.525Y-95.525
X65.525Y-96.7
X66.35Y-42.2
X66.35Y-43.25
X66.95Y-94.35
X66.95Y-95.525
X66.95Y-96.7
X67.5Y-42.2
X67.5Y-43.25
X67.5Y-44.3
T2
X79.Y-60.975
X79.Y-63.515
X79.Y-66.055
X79.Y-68.595
X79.Y-71.135
X24.75Y-41.
X24.75Y-43.54
X24.75Y-46.08
X24.75Y-48.62
X24.75Y-51.16
X24.75Y-63.1
X24.75Y-65.64
X24.75Y-68.18
X24.75Y-70.72
X24.75Y-73.26
X24.75Y-75.8
X24.75Y-78.34
X24.75Y-80.88
X24.75Y-83.42
X24.75Y-85.96
X24.75Y-88.5
X24.75Y-91.04
X24.75Y-93.58
X24.75Y-96.12
X43.2Y-37.89
X43.2Y-40.43
X43.2Y-42.97
X43.2Y-45.51
X43.2Y-48.05
X43.2Y-50.59
X43.2Y-53.13
X43.2Y-55.67
X43.2Y-58.21
X43.2Y-60.75
X43.2Y-63.29
X43.2Y-65.83
X43.2Y-68.37
X43.2Y-70.91
X43.2Y-73.45
X43.2Y-75.99
X43.2Y-78.53
X43.2Y-81.07
X43.2Y-83.61
X43.2Y-86.15
X43.2Y-88.69
X43.2Y-91.23
X43.2Y-93.77
X43.2Y-96.31
X59.6Y-37.89
X59.6Y-40.43
X59.6Y-42.97
X59.6Y-45.51
X59.6Y-48.05
X59.6Y-50.59
X59.6Y-53.13
X59.6Y-55.67
X59.6Y-58.21
X59.6Y-60.75
X59.6Y-63.29
X59.6Y-65.83
X59.6Y-68.37
X59.6Y-70.91
X59.6Y-73.45
X59.6Y-75.99
X59.6Y-78.53
X59.6Y-81.07
X59.6Y-83.61
X59.6Y-86.15
X59.6Y-88.69
X59.6Y-91.23
X59.6Y-93.77
X59.6Y-96.31
X79.Y-41.
X79.Y-43.54
X79.Y-46.08
X79.Y-48.62
X79.Y-83.45
X79.Y-85.99
X79.Y-88.53
X79.Y-91.07
X79.Y-93.61
X79.Y-96.15
T0
M30
