G04 #@! TF.GenerationSoftware,KiCad,Pcbnew,(5.0.0-3-g5ebb6b6)*
G04 #@! TF.CreationDate,2019-01-17T20:41:18+00:00*
G04 #@! TF.ProjectId,Mangler,4D616E676C65722E6B696361645F7063,rev?*
G04 #@! TF.SameCoordinates,Original*
G04 #@! TF.FileFunction,Copper,L2,Bot,Signal*
G04 #@! TF.FilePolarity,Positive*
%FSLAX46Y46*%
G04 Gerber Fmt 4.6, Leading zero omitted, Abs format (unit mm)*
G04 Created by KiCad (PCBNEW (5.0.0-3-g5ebb6b6)) date Thursday, 17 January 2019 at 20:41:18*
%MOMM*%
%LPD*%
G01*
G04 APERTURE LIST*
G04 #@! TA.AperFunction,ComponentPad*
%ADD10R,1.700000X1.700000*%
G04 #@! TD*
G04 #@! TA.AperFunction,ComponentPad*
%ADD11O,1.700000X1.700000*%
G04 #@! TD*
G04 #@! TA.AperFunction,ComponentPad*
%ADD12O,3.100000X1.600000*%
G04 #@! TD*
G04 #@! TA.AperFunction,ViaPad*
%ADD13C,0.800000*%
G04 #@! TD*
G04 #@! TA.AperFunction,Conductor*
%ADD14C,1.000000*%
G04 #@! TD*
G04 #@! TA.AperFunction,Conductor*
%ADD15C,0.500000*%
G04 #@! TD*
G04 #@! TA.AperFunction,Conductor*
%ADD16C,0.254000*%
G04 #@! TD*
G04 APERTURE END LIST*
D10*
G04 #@! TO.P,J3,1*
G04 #@! TO.N,A0*
X79000000Y-83450000D03*
D11*
G04 #@! TO.P,J3,2*
G04 #@! TO.N,A1*
X79000000Y-85990000D03*
G04 #@! TO.P,J3,3*
G04 #@! TO.N,A2*
X79000000Y-88530000D03*
G04 #@! TO.P,J3,4*
G04 #@! TO.N,A3*
X79000000Y-91070000D03*
G04 #@! TO.P,J3,5*
G04 #@! TO.N,A4*
X79000000Y-93610000D03*
G04 #@! TO.P,J3,6*
G04 #@! TO.N,A5*
X79000000Y-96150000D03*
G04 #@! TD*
D10*
G04 #@! TO.P,J4,1*
G04 #@! TO.N,+3V3*
X24750000Y-41000000D03*
D11*
G04 #@! TO.P,J4,2*
X24750000Y-43540000D03*
G04 #@! TO.P,J4,3*
G04 #@! TO.N,RESET*
X24750000Y-46080000D03*
G04 #@! TO.P,J4,4*
G04 #@! TO.N,GND*
X24750000Y-48620000D03*
G04 #@! TO.P,J4,5*
X24750000Y-51160000D03*
G04 #@! TD*
D10*
G04 #@! TO.P,J5,1*
G04 #@! TO.N,D0*
X24750000Y-63100000D03*
D11*
G04 #@! TO.P,J5,2*
G04 #@! TO.N,D1*
X24750000Y-65640000D03*
G04 #@! TO.P,J5,3*
G04 #@! TO.N,GND*
X24750000Y-68180000D03*
G04 #@! TO.P,J5,4*
X24750000Y-70720000D03*
G04 #@! TO.P,J5,5*
X24750000Y-73260000D03*
G04 #@! TO.P,J5,6*
G04 #@! TO.N,D5*
X24750000Y-75800000D03*
G04 #@! TO.P,J5,7*
G04 #@! TO.N,D6*
X24750000Y-78340000D03*
G04 #@! TO.P,J5,8*
G04 #@! TO.N,GND*
X24750000Y-80880000D03*
G04 #@! TO.P,J5,9*
X24750000Y-83420000D03*
G04 #@! TO.P,J5,10*
G04 #@! TO.N,D9*
X24750000Y-85960000D03*
G04 #@! TO.P,J5,11*
G04 #@! TO.N,D10*
X24750000Y-88500000D03*
G04 #@! TO.P,J5,12*
G04 #@! TO.N,D11*
X24750000Y-91040000D03*
G04 #@! TO.P,J5,13*
G04 #@! TO.N,D12*
X24750000Y-93580000D03*
G04 #@! TO.P,J5,14*
G04 #@! TO.N,D13*
X24750000Y-96120000D03*
G04 #@! TD*
D10*
G04 #@! TO.P,J6,1*
G04 #@! TO.N,+3V3*
X79000000Y-41000000D03*
D11*
G04 #@! TO.P,J6,2*
G04 #@! TO.N,SCL*
X79000000Y-43540000D03*
G04 #@! TO.P,J6,3*
G04 #@! TO.N,SDA*
X79000000Y-46080000D03*
G04 #@! TO.P,J6,4*
G04 #@! TO.N,GND*
X79000000Y-48620000D03*
G04 #@! TD*
G04 #@! TO.P,J7,5*
G04 #@! TO.N,GND*
X79000000Y-71135000D03*
G04 #@! TO.P,J7,4*
G04 #@! TO.N,MISO*
X79000000Y-68595000D03*
G04 #@! TO.P,J7,3*
G04 #@! TO.N,MOSI*
X79000000Y-66055000D03*
G04 #@! TO.P,J7,2*
G04 #@! TO.N,SCK*
X79000000Y-63515000D03*
D10*
G04 #@! TO.P,J7,1*
G04 #@! TO.N,+3V3*
X79000000Y-60975000D03*
G04 #@! TD*
D12*
G04 #@! TO.P,U2,1*
G04 #@! TO.N,Net-(C6-Pad1)*
X59600000Y-37890000D03*
G04 #@! TO.P,U2,25*
G04 #@! TO.N,D11*
X43200000Y-96310000D03*
G04 #@! TO.P,U2,2*
G04 #@! TO.N,Net-(C7-Pad1)*
X59600000Y-40430000D03*
G04 #@! TO.P,U2,26*
G04 #@! TO.N,D13*
X43200000Y-93770000D03*
G04 #@! TO.P,U2,3*
G04 #@! TO.N,A0*
X59600000Y-42970000D03*
G04 #@! TO.P,U2,27*
G04 #@! TO.N,D10*
X43200000Y-91230000D03*
G04 #@! TO.P,U2,4*
G04 #@! TO.N,Net-(C8-Pad1)*
X59600000Y-45510000D03*
G04 #@! TO.P,U2,28*
G04 #@! TO.N,D12*
X43200000Y-88690000D03*
G04 #@! TO.P,U2,5*
G04 #@! TO.N,GND*
X59600000Y-48050000D03*
G04 #@! TO.P,U2,29*
G04 #@! TO.N,D6*
X43200000Y-86150000D03*
G04 #@! TO.P,U2,6*
G04 #@! TO.N,+3V3*
X59600000Y-50590000D03*
G04 #@! TO.P,U2,30*
G04 #@! TO.N,N/C*
X43200000Y-83610000D03*
G04 #@! TO.P,U2,7*
G04 #@! TO.N,A1*
X59600000Y-53130000D03*
G04 #@! TO.P,U2,31*
G04 #@! TO.N,SDA*
X43200000Y-81070000D03*
G04 #@! TO.P,U2,8*
G04 #@! TO.N,A2*
X59600000Y-55670000D03*
G04 #@! TO.P,U2,32*
G04 #@! TO.N,SCL*
X43200000Y-78530000D03*
G04 #@! TO.P,U2,9*
G04 #@! TO.N,A3*
X59600000Y-58210000D03*
G04 #@! TO.P,U2,33*
G04 #@! TO.N,D-*
X43200000Y-75990000D03*
G04 #@! TO.P,U2,10*
G04 #@! TO.N,A4*
X59600000Y-60750000D03*
G04 #@! TO.P,U2,34*
G04 #@! TO.N,D+*
X43200000Y-73450000D03*
G04 #@! TO.P,U2,11*
G04 #@! TO.N,N/C*
X59600000Y-63290000D03*
G04 #@! TO.P,U2,35*
G04 #@! TO.N,GND*
X43200000Y-70910000D03*
G04 #@! TO.P,U2,12*
G04 #@! TO.N,D9*
X59600000Y-65830000D03*
G04 #@! TO.P,U2,36*
G04 #@! TO.N,+3V3*
X43200000Y-68370000D03*
G04 #@! TO.P,U2,13*
G04 #@! TO.N,N/C*
X59600000Y-68370000D03*
G04 #@! TO.P,U2,37*
X43200000Y-65830000D03*
G04 #@! TO.P,U2,14*
X59600000Y-70910000D03*
G04 #@! TO.P,U2,38*
X43200000Y-63290000D03*
G04 #@! TO.P,U2,15*
G04 #@! TO.N,D1*
X59600000Y-73450000D03*
G04 #@! TO.P,U2,39*
G04 #@! TO.N,N/C*
X43200000Y-60750000D03*
G04 #@! TO.P,U2,16*
G04 #@! TO.N,D0*
X59600000Y-75990000D03*
G04 #@! TO.P,U2,40*
G04 #@! TO.N,RESET*
X43200000Y-58210000D03*
G04 #@! TO.P,U2,17*
G04 #@! TO.N,+3V3*
X59600000Y-78530000D03*
G04 #@! TO.P,U2,41*
G04 #@! TO.N,N/C*
X43200000Y-55670000D03*
G04 #@! TO.P,U2,18*
G04 #@! TO.N,GND*
X59600000Y-81070000D03*
G04 #@! TO.P,U2,42*
X43200000Y-53130000D03*
G04 #@! TO.P,U2,19*
G04 #@! TO.N,MOSI*
X59600000Y-83610000D03*
G04 #@! TO.P,U2,43*
G04 #@! TO.N,Net-(C4-Pad2)*
X43200000Y-50590000D03*
G04 #@! TO.P,U2,20*
G04 #@! TO.N,SCK*
X59600000Y-86150000D03*
G04 #@! TO.P,U2,44*
G04 #@! TO.N,+3V3*
X43200000Y-48050000D03*
G04 #@! TO.P,U2,21*
G04 #@! TO.N,MISO*
X59600000Y-88690000D03*
G04 #@! TO.P,U2,45*
G04 #@! TO.N,SWCLK*
X43200000Y-45510000D03*
G04 #@! TO.P,U2,22*
G04 #@! TO.N,N/C*
X59600000Y-91230000D03*
G04 #@! TO.P,U2,46*
G04 #@! TO.N,SWDIO*
X43200000Y-42970000D03*
G04 #@! TO.P,U2,23*
G04 #@! TO.N,N/C*
X59600000Y-93770000D03*
G04 #@! TO.P,U2,47*
G04 #@! TO.N,A5*
X43200000Y-40430000D03*
G04 #@! TO.P,U2,24*
G04 #@! TO.N,D5*
X59600000Y-96310000D03*
G04 #@! TO.P,U2,48*
G04 #@! TO.N,N/C*
X43200000Y-37890000D03*
G04 #@! TD*
D13*
G04 #@! TO.N,GND*
X56700000Y-81050000D03*
X55700000Y-81050000D03*
X54750000Y-81050000D03*
X53800000Y-81050000D03*
X56200000Y-78450000D03*
X47500000Y-72300000D03*
X47500000Y-71200000D03*
X48650000Y-71200000D03*
X47500000Y-70150000D03*
X48650000Y-70150000D03*
X49750000Y-70150000D03*
X47650000Y-66450000D03*
X48816666Y-66450000D03*
X49983332Y-66450000D03*
X51150000Y-66450000D03*
X47650000Y-65300000D03*
X48816666Y-65300000D03*
X49983332Y-65300000D03*
X51150000Y-65300000D03*
X36750000Y-40250000D03*
X37800000Y-39400000D03*
X37800000Y-41000000D03*
X38750000Y-38550000D03*
X38750000Y-40250000D03*
X38750000Y-41900000D03*
X34300000Y-35600000D03*
X34300000Y-34600000D03*
X34300000Y-36600000D03*
X31200000Y-35600000D03*
X31200000Y-34600000D03*
X30150000Y-35600000D03*
X47500000Y-43250000D03*
X48650000Y-43250000D03*
X49800000Y-43250000D03*
X50950000Y-43250000D03*
X50950000Y-44500000D03*
X49800000Y-44500000D03*
X48650000Y-44500000D03*
X47500000Y-44500000D03*
X47500000Y-45750000D03*
X48650000Y-45750000D03*
X49800000Y-45750000D03*
X50950000Y-45750000D03*
X62750000Y-48700000D03*
X63900000Y-48700000D03*
X65050000Y-48700000D03*
X62750000Y-47650000D03*
X62750000Y-46600000D03*
X63900000Y-47650000D03*
X67500000Y-43250000D03*
X65200000Y-42200000D03*
X66350000Y-42200000D03*
X67500000Y-44300000D03*
X66350000Y-43250000D03*
X67500000Y-42200000D03*
X64300000Y-81300000D03*
X64300000Y-79828568D03*
X64300000Y-78357140D03*
X64300000Y-76885712D03*
X64300000Y-75414284D03*
X64300000Y-73942856D03*
X64300000Y-72471428D03*
X64300000Y-71000000D03*
X64100000Y-94350000D03*
X64100000Y-95525000D03*
X65525000Y-95525000D03*
X65525000Y-94350000D03*
X64100000Y-96700000D03*
X65525000Y-96700000D03*
X66950000Y-96700000D03*
X66950000Y-95525000D03*
X66950000Y-94350000D03*
X37800000Y-47600000D03*
X37800000Y-49000000D03*
X37800000Y-50400000D03*
X36350000Y-50400000D03*
X36350000Y-49000000D03*
X36350000Y-47600000D03*
X34900000Y-47600000D03*
X34900000Y-49000000D03*
X34900000Y-50400000D03*
G04 #@! TO.N,D-*
X57700000Y-34950000D03*
G04 #@! TO.N,D+*
X56350000Y-34900000D03*
G04 #@! TO.N,D0*
X53450000Y-76000000D03*
G04 #@! TO.N,D1*
X40100000Y-78850000D03*
G04 #@! TD*
D14*
G04 #@! TO.N,+3V3*
X79000000Y-59125000D02*
X79000000Y-60975000D01*
X77150000Y-42850000D02*
X77150000Y-57275000D01*
X77150000Y-57275000D02*
X79000000Y-59125000D01*
X79000000Y-41000000D02*
X77150000Y-42850000D01*
D15*
G04 #@! TO.N,D-*
X53509990Y-39140010D02*
X57700000Y-34950000D01*
X41909990Y-39140010D02*
X41300010Y-39749990D01*
X53509990Y-39140010D02*
X41909990Y-39140010D01*
X41199990Y-40947771D02*
X41972209Y-41719990D01*
X41199990Y-39900010D02*
X41199990Y-40947771D01*
X41300010Y-39799990D02*
X41199990Y-39900010D01*
X41972209Y-41719990D02*
X44819990Y-41719990D01*
X41300010Y-39749990D02*
X41300010Y-39799990D01*
X43950000Y-75990000D02*
X43200000Y-75990000D01*
X46300000Y-73640000D02*
X43950000Y-75990000D01*
X46300000Y-43200000D02*
X46300000Y-73640000D01*
X44819990Y-41719990D02*
X46300000Y-43200000D01*
G04 #@! TO.N,D+*
X43950000Y-73450000D02*
X43200000Y-73450000D01*
X45549990Y-71850010D02*
X43950000Y-73450000D01*
X45549990Y-46799990D02*
X45549990Y-71850010D01*
X41972209Y-46799990D02*
X45549990Y-46799990D01*
X40350000Y-37250000D02*
X40350000Y-45600000D01*
X40350000Y-45600000D02*
X41972209Y-46799990D01*
X42842000Y-34900000D02*
X40350000Y-37250000D01*
X56350000Y-34900000D02*
X42842000Y-34900000D01*
G04 #@! TO.N,RESET*
X42395000Y-58210000D02*
X43145000Y-58210000D01*
X39450001Y-55265001D02*
X42395000Y-58210000D01*
X25982081Y-46050000D02*
X39450001Y-46050000D01*
X25952081Y-46080000D02*
X25982081Y-46050000D01*
X24750000Y-46080000D02*
X25952081Y-46080000D01*
X39450001Y-46050000D02*
X39450001Y-55265001D01*
G04 #@! TO.N,A0*
X77650000Y-83450000D02*
X71850000Y-77650000D01*
X79000000Y-83450000D02*
X77650000Y-83450000D01*
X71850000Y-77650000D02*
X71850000Y-52300000D01*
X62520000Y-42970000D02*
X59655000Y-42970000D01*
X71850000Y-52300000D02*
X62520000Y-42970000D01*
G04 #@! TO.N,A1*
X77797919Y-85990000D02*
X70650000Y-78842081D01*
X79000000Y-85990000D02*
X77797919Y-85990000D01*
X70650000Y-78842081D02*
X70650000Y-54800000D01*
X68980000Y-53130000D02*
X59655000Y-53130000D01*
X70650000Y-54800000D02*
X68980000Y-53130000D01*
G04 #@! TO.N,A2*
X79000000Y-88530000D02*
X69500000Y-79030000D01*
X69500000Y-79030000D02*
X69500000Y-57300000D01*
X67870000Y-55670000D02*
X59655000Y-55670000D01*
X69500000Y-57300000D02*
X67870000Y-55670000D01*
G04 #@! TO.N,A3*
X79000000Y-91070000D02*
X67850000Y-79920000D01*
X67850000Y-79920000D02*
X67850000Y-60000000D01*
X66060000Y-58210000D02*
X59655000Y-58210000D01*
X67850000Y-60000000D02*
X66060000Y-58210000D01*
G04 #@! TO.N,A4*
X79000000Y-93610000D02*
X66300000Y-80910000D01*
X66300000Y-80910000D02*
X66300000Y-61950000D01*
X65100000Y-60750000D02*
X59655000Y-60750000D01*
X66300000Y-61950000D02*
X65100000Y-60750000D01*
G04 #@! TO.N,A5*
X79000000Y-96150000D02*
X80750000Y-94400000D01*
X80750000Y-82689998D02*
X73860002Y-75800000D01*
X80750000Y-94400000D02*
X80750000Y-82689998D01*
X73800000Y-75800000D02*
X72650000Y-74650000D01*
X73860002Y-75800000D02*
X73800000Y-75800000D01*
X46445010Y-41680010D02*
X45195000Y-40430000D01*
X45195000Y-40430000D02*
X43145000Y-40430000D01*
X62219972Y-41680010D02*
X46445010Y-41680010D01*
X72650000Y-52110038D02*
X62219972Y-41680010D01*
X72650000Y-74650000D02*
X72650000Y-52110038D01*
G04 #@! TO.N,D0*
X59590000Y-76000000D02*
X59600000Y-75990000D01*
X53450000Y-76000000D02*
X59590000Y-76000000D01*
G04 #@! TO.N,D1*
X41030010Y-79780010D02*
X47119990Y-79780010D01*
X40100000Y-78850000D02*
X41030010Y-79780010D01*
X53450000Y-73450000D02*
X59600000Y-73450000D01*
X47119990Y-79780010D02*
X53450000Y-73450000D01*
G04 #@! TO.N,D9*
X58850000Y-65830000D02*
X59600000Y-65830000D01*
X47439990Y-77240010D02*
X58850000Y-65830000D01*
X33469990Y-77240010D02*
X47439990Y-77240010D01*
X24750000Y-85960000D02*
X33469990Y-77240010D01*
G04 #@! TO.N,D12*
X42395000Y-88690000D02*
X43145000Y-88690000D01*
X41095000Y-89990000D02*
X42395000Y-88690000D01*
X41095000Y-90740000D02*
X41095000Y-89990000D01*
X38255000Y-93580000D02*
X41095000Y-90740000D01*
X24750000Y-93580000D02*
X38255000Y-93580000D01*
G04 #@! TO.N,D13*
X42395000Y-93770000D02*
X43145000Y-93770000D01*
X40894999Y-95270001D02*
X42395000Y-93770000D01*
X25599999Y-95270001D02*
X40894999Y-95270001D01*
X24750000Y-96120000D02*
X25599999Y-95270001D01*
G04 #@! TD*
D16*
G04 #@! TO.N,GND*
G36*
X82265000Y-99490000D02*
X21210000Y-99490000D01*
X21210000Y-81236890D01*
X23308524Y-81236890D01*
X23478355Y-81646924D01*
X23868642Y-82075183D01*
X24027954Y-82150000D01*
X23868642Y-82224817D01*
X23478355Y-82653076D01*
X23308524Y-83063110D01*
X23429845Y-83293000D01*
X24623000Y-83293000D01*
X24623000Y-81007000D01*
X23429845Y-81007000D01*
X23308524Y-81236890D01*
X21210000Y-81236890D01*
X21210000Y-75800000D01*
X23235908Y-75800000D01*
X23351161Y-76379418D01*
X23679375Y-76870625D01*
X23977761Y-77070000D01*
X23679375Y-77269375D01*
X23351161Y-77760582D01*
X23235908Y-78340000D01*
X23351161Y-78919418D01*
X23679375Y-79410625D01*
X23998478Y-79623843D01*
X23868642Y-79684817D01*
X23478355Y-80113076D01*
X23308524Y-80523110D01*
X23429845Y-80753000D01*
X24623000Y-80753000D01*
X24623000Y-80733000D01*
X24877000Y-80733000D01*
X24877000Y-80753000D01*
X26070155Y-80753000D01*
X26191476Y-80523110D01*
X26021645Y-80113076D01*
X25631358Y-79684817D01*
X25501522Y-79623843D01*
X25820625Y-79410625D01*
X26148839Y-78919418D01*
X26264092Y-78340000D01*
X26148839Y-77760582D01*
X25820625Y-77269375D01*
X25522239Y-77070000D01*
X25820625Y-76870625D01*
X26148839Y-76379418D01*
X26264092Y-75800000D01*
X26148839Y-75220582D01*
X25820625Y-74729375D01*
X25501522Y-74516157D01*
X25631358Y-74455183D01*
X26021645Y-74026924D01*
X26191476Y-73616890D01*
X26070155Y-73387000D01*
X24877000Y-73387000D01*
X24877000Y-73407000D01*
X24623000Y-73407000D01*
X24623000Y-73387000D01*
X23429845Y-73387000D01*
X23308524Y-73616890D01*
X23478355Y-74026924D01*
X23868642Y-74455183D01*
X23998478Y-74516157D01*
X23679375Y-74729375D01*
X23351161Y-75220582D01*
X23235908Y-75800000D01*
X21210000Y-75800000D01*
X21210000Y-71076890D01*
X23308524Y-71076890D01*
X23478355Y-71486924D01*
X23868642Y-71915183D01*
X24027954Y-71990000D01*
X23868642Y-72064817D01*
X23478355Y-72493076D01*
X23308524Y-72903110D01*
X23429845Y-73133000D01*
X24623000Y-73133000D01*
X24623000Y-70847000D01*
X24877000Y-70847000D01*
X24877000Y-73133000D01*
X26070155Y-73133000D01*
X26191476Y-72903110D01*
X26021645Y-72493076D01*
X25631358Y-72064817D01*
X25472046Y-71990000D01*
X25631358Y-71915183D01*
X26021645Y-71486924D01*
X26191476Y-71076890D01*
X26070155Y-70847000D01*
X24877000Y-70847000D01*
X24623000Y-70847000D01*
X23429845Y-70847000D01*
X23308524Y-71076890D01*
X21210000Y-71076890D01*
X21210000Y-68536890D01*
X23308524Y-68536890D01*
X23478355Y-68946924D01*
X23868642Y-69375183D01*
X24027954Y-69450000D01*
X23868642Y-69524817D01*
X23478355Y-69953076D01*
X23308524Y-70363110D01*
X23429845Y-70593000D01*
X24623000Y-70593000D01*
X24623000Y-68307000D01*
X24877000Y-68307000D01*
X24877000Y-70593000D01*
X26070155Y-70593000D01*
X26191476Y-70363110D01*
X26021645Y-69953076D01*
X25631358Y-69524817D01*
X25472046Y-69450000D01*
X25631358Y-69375183D01*
X26021645Y-68946924D01*
X26191476Y-68536890D01*
X26070155Y-68307000D01*
X24877000Y-68307000D01*
X24623000Y-68307000D01*
X23429845Y-68307000D01*
X23308524Y-68536890D01*
X21210000Y-68536890D01*
X21210000Y-65640000D01*
X23235908Y-65640000D01*
X23351161Y-66219418D01*
X23679375Y-66710625D01*
X23998478Y-66923843D01*
X23868642Y-66984817D01*
X23478355Y-67413076D01*
X23308524Y-67823110D01*
X23429845Y-68053000D01*
X24623000Y-68053000D01*
X24623000Y-68033000D01*
X24877000Y-68033000D01*
X24877000Y-68053000D01*
X26070155Y-68053000D01*
X26191476Y-67823110D01*
X26021645Y-67413076D01*
X25631358Y-66984817D01*
X25501522Y-66923843D01*
X25820625Y-66710625D01*
X26148839Y-66219418D01*
X26264092Y-65640000D01*
X26148839Y-65060582D01*
X25820625Y-64569375D01*
X25802381Y-64557184D01*
X25847765Y-64548157D01*
X26057809Y-64407809D01*
X26198157Y-64197765D01*
X26247440Y-63950000D01*
X26247440Y-62250000D01*
X26198157Y-62002235D01*
X26057809Y-61792191D01*
X25847765Y-61651843D01*
X25600000Y-61602560D01*
X23900000Y-61602560D01*
X23652235Y-61651843D01*
X23442191Y-61792191D01*
X23301843Y-62002235D01*
X23252560Y-62250000D01*
X23252560Y-63950000D01*
X23301843Y-64197765D01*
X23442191Y-64407809D01*
X23652235Y-64548157D01*
X23697619Y-64557184D01*
X23679375Y-64569375D01*
X23351161Y-65060582D01*
X23235908Y-65640000D01*
X21210000Y-65640000D01*
X21210000Y-51516890D01*
X23308524Y-51516890D01*
X23478355Y-51926924D01*
X23868642Y-52355183D01*
X24393108Y-52601486D01*
X24623000Y-52480819D01*
X24623000Y-51287000D01*
X24877000Y-51287000D01*
X24877000Y-52480819D01*
X25106892Y-52601486D01*
X25631358Y-52355183D01*
X26021645Y-51926924D01*
X26191476Y-51516890D01*
X26070155Y-51287000D01*
X24877000Y-51287000D01*
X24623000Y-51287000D01*
X23429845Y-51287000D01*
X23308524Y-51516890D01*
X21210000Y-51516890D01*
X21210000Y-48976890D01*
X23308524Y-48976890D01*
X23478355Y-49386924D01*
X23868642Y-49815183D01*
X24027954Y-49890000D01*
X23868642Y-49964817D01*
X23478355Y-50393076D01*
X23308524Y-50803110D01*
X23429845Y-51033000D01*
X24623000Y-51033000D01*
X24623000Y-48747000D01*
X24877000Y-48747000D01*
X24877000Y-51033000D01*
X26070155Y-51033000D01*
X26191476Y-50803110D01*
X26021645Y-50393076D01*
X25631358Y-49964817D01*
X25472046Y-49890000D01*
X25631358Y-49815183D01*
X26021645Y-49386924D01*
X26191476Y-48976890D01*
X26070155Y-48747000D01*
X24877000Y-48747000D01*
X24623000Y-48747000D01*
X23429845Y-48747000D01*
X23308524Y-48976890D01*
X21210000Y-48976890D01*
X21210000Y-43540000D01*
X23235908Y-43540000D01*
X23351161Y-44119418D01*
X23679375Y-44610625D01*
X23977761Y-44810000D01*
X23679375Y-45009375D01*
X23351161Y-45500582D01*
X23235908Y-46080000D01*
X23351161Y-46659418D01*
X23679375Y-47150625D01*
X23998478Y-47363843D01*
X23868642Y-47424817D01*
X23478355Y-47853076D01*
X23308524Y-48263110D01*
X23429845Y-48493000D01*
X24623000Y-48493000D01*
X24623000Y-48473000D01*
X24877000Y-48473000D01*
X24877000Y-48493000D01*
X26070155Y-48493000D01*
X26191476Y-48263110D01*
X26021645Y-47853076D01*
X25631358Y-47424817D01*
X25501522Y-47363843D01*
X25820625Y-47150625D01*
X25935302Y-46978999D01*
X25952081Y-46982337D01*
X26039242Y-46965000D01*
X26039246Y-46965000D01*
X26190067Y-46935000D01*
X38565001Y-46935000D01*
X38565002Y-55177836D01*
X38547664Y-55265001D01*
X38616349Y-55610310D01*
X38762577Y-55829155D01*
X38762579Y-55829157D01*
X38811953Y-55903050D01*
X38885846Y-55952424D01*
X41012858Y-58079436D01*
X40986887Y-58210000D01*
X41098260Y-58769909D01*
X41415423Y-59244577D01*
X41767758Y-59480000D01*
X41415423Y-59715423D01*
X41098260Y-60190091D01*
X40986887Y-60750000D01*
X41098260Y-61309909D01*
X41415423Y-61784577D01*
X41767758Y-62020000D01*
X41415423Y-62255423D01*
X41098260Y-62730091D01*
X40986887Y-63290000D01*
X41098260Y-63849909D01*
X41415423Y-64324577D01*
X41767758Y-64560000D01*
X41415423Y-64795423D01*
X41098260Y-65270091D01*
X40986887Y-65830000D01*
X41098260Y-66389909D01*
X41415423Y-66864577D01*
X41767758Y-67100000D01*
X41415423Y-67335423D01*
X41098260Y-67810091D01*
X40986887Y-68370000D01*
X41098260Y-68929909D01*
X41415423Y-69404577D01*
X41771499Y-69642499D01*
X41345500Y-69985104D01*
X41075633Y-70478181D01*
X41058096Y-70560961D01*
X41180085Y-70783000D01*
X43073000Y-70783000D01*
X43073000Y-70763000D01*
X43327000Y-70763000D01*
X43327000Y-70783000D01*
X43347000Y-70783000D01*
X43347000Y-71037000D01*
X43327000Y-71037000D01*
X43327000Y-71057000D01*
X43073000Y-71057000D01*
X43073000Y-71037000D01*
X41180085Y-71037000D01*
X41058096Y-71259039D01*
X41075633Y-71341819D01*
X41345500Y-71834896D01*
X41771499Y-72177501D01*
X41415423Y-72415423D01*
X41098260Y-72890091D01*
X40986887Y-73450000D01*
X41098260Y-74009909D01*
X41415423Y-74484577D01*
X41767758Y-74720000D01*
X41415423Y-74955423D01*
X41098260Y-75430091D01*
X40986887Y-75990000D01*
X41059492Y-76355010D01*
X33557149Y-76355010D01*
X33469989Y-76337673D01*
X33382829Y-76355010D01*
X33382825Y-76355010D01*
X33124680Y-76406358D01*
X33016870Y-76478395D01*
X32905835Y-76552586D01*
X32905834Y-76552587D01*
X32831941Y-76601961D01*
X32782567Y-76675854D01*
X26165424Y-83292998D01*
X26070156Y-83292998D01*
X26191476Y-83063110D01*
X26021645Y-82653076D01*
X25631358Y-82224817D01*
X25472046Y-82150000D01*
X25631358Y-82075183D01*
X26021645Y-81646924D01*
X26191476Y-81236890D01*
X26070155Y-81007000D01*
X24877000Y-81007000D01*
X24877000Y-83293000D01*
X24897000Y-83293000D01*
X24897000Y-83547000D01*
X24877000Y-83547000D01*
X24877000Y-83567000D01*
X24623000Y-83567000D01*
X24623000Y-83547000D01*
X23429845Y-83547000D01*
X23308524Y-83776890D01*
X23478355Y-84186924D01*
X23868642Y-84615183D01*
X23998478Y-84676157D01*
X23679375Y-84889375D01*
X23351161Y-85380582D01*
X23235908Y-85960000D01*
X23351161Y-86539418D01*
X23679375Y-87030625D01*
X23977761Y-87230000D01*
X23679375Y-87429375D01*
X23351161Y-87920582D01*
X23235908Y-88500000D01*
X23351161Y-89079418D01*
X23679375Y-89570625D01*
X23977761Y-89770000D01*
X23679375Y-89969375D01*
X23351161Y-90460582D01*
X23235908Y-91040000D01*
X23351161Y-91619418D01*
X23679375Y-92110625D01*
X23977761Y-92310000D01*
X23679375Y-92509375D01*
X23351161Y-93000582D01*
X23235908Y-93580000D01*
X23351161Y-94159418D01*
X23679375Y-94650625D01*
X23977761Y-94850000D01*
X23679375Y-95049375D01*
X23351161Y-95540582D01*
X23235908Y-96120000D01*
X23351161Y-96699418D01*
X23679375Y-97190625D01*
X24170582Y-97518839D01*
X24603744Y-97605000D01*
X24896256Y-97605000D01*
X25329418Y-97518839D01*
X25820625Y-97190625D01*
X26148839Y-96699418D01*
X26257130Y-96155001D01*
X40807838Y-96155001D01*
X40894999Y-96172338D01*
X40982160Y-96155001D01*
X40982164Y-96155001D01*
X41019183Y-96147638D01*
X40986887Y-96310000D01*
X41098260Y-96869909D01*
X41415423Y-97344577D01*
X41890091Y-97661740D01*
X42308667Y-97745000D01*
X44091333Y-97745000D01*
X44509909Y-97661740D01*
X44984577Y-97344577D01*
X45301740Y-96869909D01*
X45413113Y-96310000D01*
X45301740Y-95750091D01*
X44984577Y-95275423D01*
X44632242Y-95040000D01*
X44984577Y-94804577D01*
X45301740Y-94329909D01*
X45413113Y-93770000D01*
X45301740Y-93210091D01*
X44984577Y-92735423D01*
X44632242Y-92500000D01*
X44984577Y-92264577D01*
X45301740Y-91789909D01*
X45413113Y-91230000D01*
X45301740Y-90670091D01*
X44984577Y-90195423D01*
X44632242Y-89960000D01*
X44984577Y-89724577D01*
X45301740Y-89249909D01*
X45413113Y-88690000D01*
X45301740Y-88130091D01*
X44984577Y-87655423D01*
X44632242Y-87420000D01*
X44984577Y-87184577D01*
X45301740Y-86709909D01*
X45413113Y-86150000D01*
X45301740Y-85590091D01*
X44984577Y-85115423D01*
X44632242Y-84880000D01*
X44984577Y-84644577D01*
X45301740Y-84169909D01*
X45413113Y-83610000D01*
X57386887Y-83610000D01*
X57498260Y-84169909D01*
X57815423Y-84644577D01*
X58167758Y-84880000D01*
X57815423Y-85115423D01*
X57498260Y-85590091D01*
X57386887Y-86150000D01*
X57498260Y-86709909D01*
X57815423Y-87184577D01*
X58167758Y-87420000D01*
X57815423Y-87655423D01*
X57498260Y-88130091D01*
X57386887Y-88690000D01*
X57498260Y-89249909D01*
X57815423Y-89724577D01*
X58167758Y-89960000D01*
X57815423Y-90195423D01*
X57498260Y-90670091D01*
X57386887Y-91230000D01*
X57498260Y-91789909D01*
X57815423Y-92264577D01*
X58167758Y-92500000D01*
X57815423Y-92735423D01*
X57498260Y-93210091D01*
X57386887Y-93770000D01*
X57498260Y-94329909D01*
X57815423Y-94804577D01*
X58167758Y-95040000D01*
X57815423Y-95275423D01*
X57498260Y-95750091D01*
X57386887Y-96310000D01*
X57498260Y-96869909D01*
X57815423Y-97344577D01*
X58290091Y-97661740D01*
X58708667Y-97745000D01*
X60491333Y-97745000D01*
X60909909Y-97661740D01*
X61384577Y-97344577D01*
X61701740Y-96869909D01*
X61813113Y-96310000D01*
X61701740Y-95750091D01*
X61384577Y-95275423D01*
X61032242Y-95040000D01*
X61384577Y-94804577D01*
X61701740Y-94329909D01*
X61813113Y-93770000D01*
X61701740Y-93210091D01*
X61384577Y-92735423D01*
X61032242Y-92500000D01*
X61384577Y-92264577D01*
X61701740Y-91789909D01*
X61813113Y-91230000D01*
X61701740Y-90670091D01*
X61384577Y-90195423D01*
X61032242Y-89960000D01*
X61384577Y-89724577D01*
X61701740Y-89249909D01*
X61813113Y-88690000D01*
X61701740Y-88130091D01*
X61384577Y-87655423D01*
X61032242Y-87420000D01*
X61384577Y-87184577D01*
X61701740Y-86709909D01*
X61813113Y-86150000D01*
X61701740Y-85590091D01*
X61384577Y-85115423D01*
X61032242Y-84880000D01*
X61384577Y-84644577D01*
X61701740Y-84169909D01*
X61813113Y-83610000D01*
X61701740Y-83050091D01*
X61384577Y-82575423D01*
X61028501Y-82337501D01*
X61454500Y-81994896D01*
X61724367Y-81501819D01*
X61741904Y-81419039D01*
X61619915Y-81197000D01*
X59727000Y-81197000D01*
X59727000Y-81217000D01*
X59473000Y-81217000D01*
X59473000Y-81197000D01*
X57580085Y-81197000D01*
X57458096Y-81419039D01*
X57475633Y-81501819D01*
X57745500Y-81994896D01*
X58171499Y-82337501D01*
X57815423Y-82575423D01*
X57498260Y-83050091D01*
X57386887Y-83610000D01*
X45413113Y-83610000D01*
X45301740Y-83050091D01*
X44984577Y-82575423D01*
X44632242Y-82340000D01*
X44984577Y-82104577D01*
X45301740Y-81629909D01*
X45413113Y-81070000D01*
X45332555Y-80665010D01*
X47032829Y-80665010D01*
X47119990Y-80682347D01*
X47207151Y-80665010D01*
X47207155Y-80665010D01*
X47465300Y-80613662D01*
X47758039Y-80418059D01*
X47807415Y-80344163D01*
X52455692Y-75695887D01*
X52415000Y-75794126D01*
X52415000Y-76205874D01*
X52572569Y-76586280D01*
X52863720Y-76877431D01*
X53244126Y-77035000D01*
X53655874Y-77035000D01*
X54018007Y-76885000D01*
X57722161Y-76885000D01*
X57815423Y-77024577D01*
X58167758Y-77260000D01*
X57815423Y-77495423D01*
X57498260Y-77970091D01*
X57386887Y-78530000D01*
X57498260Y-79089909D01*
X57815423Y-79564577D01*
X58171499Y-79802499D01*
X57745500Y-80145104D01*
X57475633Y-80638181D01*
X57458096Y-80720961D01*
X57580085Y-80943000D01*
X59473000Y-80943000D01*
X59473000Y-80923000D01*
X59727000Y-80923000D01*
X59727000Y-80943000D01*
X61619915Y-80943000D01*
X61741904Y-80720961D01*
X61724367Y-80638181D01*
X61454500Y-80145104D01*
X61028501Y-79802499D01*
X61384577Y-79564577D01*
X61701740Y-79089909D01*
X61813113Y-78530000D01*
X61701740Y-77970091D01*
X61384577Y-77495423D01*
X61032242Y-77260000D01*
X61384577Y-77024577D01*
X61701740Y-76549909D01*
X61813113Y-75990000D01*
X61701740Y-75430091D01*
X61384577Y-74955423D01*
X61032242Y-74720000D01*
X61384577Y-74484577D01*
X61701740Y-74009909D01*
X61813113Y-73450000D01*
X61701740Y-72890091D01*
X61384577Y-72415423D01*
X61032242Y-72180000D01*
X61384577Y-71944577D01*
X61701740Y-71469909D01*
X61813113Y-70910000D01*
X61701740Y-70350091D01*
X61384577Y-69875423D01*
X61032242Y-69640000D01*
X61384577Y-69404577D01*
X61701740Y-68929909D01*
X61813113Y-68370000D01*
X61701740Y-67810091D01*
X61384577Y-67335423D01*
X61032242Y-67100000D01*
X61384577Y-66864577D01*
X61701740Y-66389909D01*
X61813113Y-65830000D01*
X61701740Y-65270091D01*
X61384577Y-64795423D01*
X61032242Y-64560000D01*
X61384577Y-64324577D01*
X61701740Y-63849909D01*
X61813113Y-63290000D01*
X61701740Y-62730091D01*
X61384577Y-62255423D01*
X61032242Y-62020000D01*
X61384577Y-61784577D01*
X61484521Y-61635000D01*
X64733422Y-61635000D01*
X65415001Y-62316580D01*
X65415000Y-80822839D01*
X65397663Y-80910000D01*
X65415000Y-80997161D01*
X65415000Y-80997164D01*
X65466348Y-81255309D01*
X65661951Y-81548049D01*
X65735847Y-81597425D01*
X77529462Y-93391041D01*
X77485908Y-93610000D01*
X77601161Y-94189418D01*
X77929375Y-94680625D01*
X78227761Y-94880000D01*
X77929375Y-95079375D01*
X77601161Y-95570582D01*
X77485908Y-96150000D01*
X77601161Y-96729418D01*
X77929375Y-97220625D01*
X78420582Y-97548839D01*
X78853744Y-97635000D01*
X79146256Y-97635000D01*
X79579418Y-97548839D01*
X80070625Y-97220625D01*
X80398839Y-96729418D01*
X80514092Y-96150000D01*
X80470538Y-95931040D01*
X81314156Y-95087423D01*
X81388049Y-95038049D01*
X81496996Y-94875000D01*
X81583652Y-94745310D01*
X81583652Y-94745309D01*
X81635000Y-94487165D01*
X81635000Y-94487161D01*
X81652337Y-94400000D01*
X81635000Y-94312839D01*
X81635000Y-82777159D01*
X81652337Y-82689998D01*
X81635000Y-82602837D01*
X81635000Y-82602833D01*
X81583652Y-82344688D01*
X81525902Y-82258260D01*
X81437424Y-82125843D01*
X81437423Y-82125842D01*
X81388049Y-82051949D01*
X81314156Y-82002575D01*
X74547427Y-75235847D01*
X74498051Y-75161951D01*
X74243329Y-74991750D01*
X73535000Y-74283422D01*
X73535000Y-71491890D01*
X77558524Y-71491890D01*
X77728355Y-71901924D01*
X78118642Y-72330183D01*
X78643108Y-72576486D01*
X78873000Y-72455819D01*
X78873000Y-71262000D01*
X79127000Y-71262000D01*
X79127000Y-72455819D01*
X79356892Y-72576486D01*
X79881358Y-72330183D01*
X80271645Y-71901924D01*
X80441476Y-71491890D01*
X80320155Y-71262000D01*
X79127000Y-71262000D01*
X78873000Y-71262000D01*
X77679845Y-71262000D01*
X77558524Y-71491890D01*
X73535000Y-71491890D01*
X73535000Y-52197197D01*
X73552337Y-52110037D01*
X73535000Y-52022878D01*
X73535000Y-52022873D01*
X73483652Y-51764728D01*
X73288049Y-51471989D01*
X73214156Y-51422615D01*
X64641541Y-42850000D01*
X75992765Y-42850000D01*
X76015000Y-42961783D01*
X76015001Y-57163212D01*
X75992765Y-57275000D01*
X76080854Y-57717854D01*
X76080855Y-57717855D01*
X76331712Y-58093289D01*
X76426480Y-58156611D01*
X77838978Y-59569110D01*
X77692191Y-59667191D01*
X77551843Y-59877235D01*
X77502560Y-60125000D01*
X77502560Y-61825000D01*
X77551843Y-62072765D01*
X77692191Y-62282809D01*
X77902235Y-62423157D01*
X77947619Y-62432184D01*
X77929375Y-62444375D01*
X77601161Y-62935582D01*
X77485908Y-63515000D01*
X77601161Y-64094418D01*
X77929375Y-64585625D01*
X78227761Y-64785000D01*
X77929375Y-64984375D01*
X77601161Y-65475582D01*
X77485908Y-66055000D01*
X77601161Y-66634418D01*
X77929375Y-67125625D01*
X78227761Y-67325000D01*
X77929375Y-67524375D01*
X77601161Y-68015582D01*
X77485908Y-68595000D01*
X77601161Y-69174418D01*
X77929375Y-69665625D01*
X78248478Y-69878843D01*
X78118642Y-69939817D01*
X77728355Y-70368076D01*
X77558524Y-70778110D01*
X77679845Y-71008000D01*
X78873000Y-71008000D01*
X78873000Y-70988000D01*
X79127000Y-70988000D01*
X79127000Y-71008000D01*
X80320155Y-71008000D01*
X80441476Y-70778110D01*
X80271645Y-70368076D01*
X79881358Y-69939817D01*
X79751522Y-69878843D01*
X80070625Y-69665625D01*
X80398839Y-69174418D01*
X80514092Y-68595000D01*
X80398839Y-68015582D01*
X80070625Y-67524375D01*
X79772239Y-67325000D01*
X80070625Y-67125625D01*
X80398839Y-66634418D01*
X80514092Y-66055000D01*
X80398839Y-65475582D01*
X80070625Y-64984375D01*
X79772239Y-64785000D01*
X80070625Y-64585625D01*
X80398839Y-64094418D01*
X80514092Y-63515000D01*
X80398839Y-62935582D01*
X80070625Y-62444375D01*
X80052381Y-62432184D01*
X80097765Y-62423157D01*
X80307809Y-62282809D01*
X80448157Y-62072765D01*
X80497440Y-61825000D01*
X80497440Y-60125000D01*
X80448157Y-59877235D01*
X80307809Y-59667191D01*
X80135000Y-59551723D01*
X80135000Y-59236782D01*
X80157235Y-59124999D01*
X80069146Y-58682145D01*
X79818289Y-58306711D01*
X79723521Y-58243389D01*
X78285000Y-56804869D01*
X78285000Y-49893309D01*
X78643108Y-50061486D01*
X78873000Y-49940819D01*
X78873000Y-48747000D01*
X79127000Y-48747000D01*
X79127000Y-49940819D01*
X79356892Y-50061486D01*
X79881358Y-49815183D01*
X80271645Y-49386924D01*
X80441476Y-48976890D01*
X80320155Y-48747000D01*
X79127000Y-48747000D01*
X78873000Y-48747000D01*
X78853000Y-48747000D01*
X78853000Y-48493000D01*
X78873000Y-48493000D01*
X78873000Y-48473000D01*
X79127000Y-48473000D01*
X79127000Y-48493000D01*
X80320155Y-48493000D01*
X80441476Y-48263110D01*
X80271645Y-47853076D01*
X79881358Y-47424817D01*
X79751522Y-47363843D01*
X80070625Y-47150625D01*
X80398839Y-46659418D01*
X80514092Y-46080000D01*
X80398839Y-45500582D01*
X80070625Y-45009375D01*
X79772239Y-44810000D01*
X80070625Y-44610625D01*
X80398839Y-44119418D01*
X80514092Y-43540000D01*
X80398839Y-42960582D01*
X80070625Y-42469375D01*
X80052381Y-42457184D01*
X80097765Y-42448157D01*
X80307809Y-42307809D01*
X80448157Y-42097765D01*
X80497440Y-41850000D01*
X80497440Y-40150000D01*
X80448157Y-39902235D01*
X80307809Y-39692191D01*
X80097765Y-39551843D01*
X79850000Y-39502560D01*
X78150000Y-39502560D01*
X77902235Y-39551843D01*
X77692191Y-39692191D01*
X77551843Y-39902235D01*
X77502560Y-40150000D01*
X77502560Y-40892308D01*
X76426482Y-41968387D01*
X76331711Y-42031711D01*
X76154009Y-42297662D01*
X76080854Y-42407146D01*
X75992765Y-42850000D01*
X64641541Y-42850000D01*
X62907397Y-41115857D01*
X62858021Y-41041961D01*
X62565282Y-40846358D01*
X62307137Y-40795010D01*
X62307133Y-40795010D01*
X62219972Y-40777673D01*
X62132811Y-40795010D01*
X61740508Y-40795010D01*
X61813113Y-40430000D01*
X61701740Y-39870091D01*
X61384577Y-39395423D01*
X61032242Y-39160000D01*
X61384577Y-38924577D01*
X61701740Y-38449909D01*
X61813113Y-37890000D01*
X61701740Y-37330091D01*
X61384577Y-36855423D01*
X60909909Y-36538260D01*
X60491333Y-36455000D01*
X58708667Y-36455000D01*
X58290091Y-36538260D01*
X57815423Y-36855423D01*
X57498260Y-37330091D01*
X57386887Y-37890000D01*
X57498260Y-38449909D01*
X57815423Y-38924577D01*
X58167758Y-39160000D01*
X57815423Y-39395423D01*
X57498260Y-39870091D01*
X57386887Y-40430000D01*
X57459492Y-40795010D01*
X46811589Y-40795010D01*
X46041588Y-40025010D01*
X53422829Y-40025010D01*
X53509990Y-40042347D01*
X53597151Y-40025010D01*
X53597155Y-40025010D01*
X53855300Y-39973662D01*
X54148039Y-39778059D01*
X54197415Y-39704163D01*
X57924148Y-35977431D01*
X58286280Y-35827431D01*
X58577431Y-35536280D01*
X58735000Y-35155874D01*
X58735000Y-34744126D01*
X58577431Y-34363720D01*
X58286280Y-34072569D01*
X57905874Y-33915000D01*
X57494126Y-33915000D01*
X57113720Y-34072569D01*
X57050000Y-34136289D01*
X56936280Y-34022569D01*
X56555874Y-33865000D01*
X56144126Y-33865000D01*
X55781993Y-34015000D01*
X42942279Y-34015000D01*
X42868451Y-33998051D01*
X42767922Y-34015000D01*
X42754835Y-34015000D01*
X42682048Y-34029478D01*
X42521276Y-34056584D01*
X42509880Y-34063724D01*
X42496690Y-34066348D01*
X42361103Y-34156945D01*
X42298239Y-34196334D01*
X42288723Y-34205308D01*
X42203951Y-34261951D01*
X42161864Y-34324938D01*
X39796723Y-36555308D01*
X39711951Y-36611951D01*
X39621360Y-36747530D01*
X39526829Y-36880401D01*
X39523820Y-36893509D01*
X39516348Y-36904691D01*
X39484531Y-37064644D01*
X39448051Y-37223549D01*
X39465000Y-37324078D01*
X39465001Y-45150646D01*
X39450001Y-45147662D01*
X39362836Y-45165000D01*
X26069240Y-45165000D01*
X25982080Y-45147663D01*
X25921127Y-45159787D01*
X25820625Y-45009375D01*
X25522239Y-44810000D01*
X25820625Y-44610625D01*
X26148839Y-44119418D01*
X26264092Y-43540000D01*
X26148839Y-42960582D01*
X25820625Y-42469375D01*
X25802381Y-42457184D01*
X25847765Y-42448157D01*
X26057809Y-42307809D01*
X26198157Y-42097765D01*
X26247440Y-41850000D01*
X26247440Y-40150000D01*
X26198157Y-39902235D01*
X26057809Y-39692191D01*
X25847765Y-39551843D01*
X25600000Y-39502560D01*
X23900000Y-39502560D01*
X23652235Y-39551843D01*
X23442191Y-39692191D01*
X23301843Y-39902235D01*
X23252560Y-40150000D01*
X23252560Y-41850000D01*
X23301843Y-42097765D01*
X23442191Y-42307809D01*
X23652235Y-42448157D01*
X23697619Y-42457184D01*
X23679375Y-42469375D01*
X23351161Y-42960582D01*
X23235908Y-43540000D01*
X21210000Y-43540000D01*
X21210000Y-27709432D01*
X82265001Y-27660587D01*
X82265000Y-99490000D01*
X82265000Y-99490000D01*
G37*
X82265000Y-99490000D02*
X21210000Y-99490000D01*
X21210000Y-81236890D01*
X23308524Y-81236890D01*
X23478355Y-81646924D01*
X23868642Y-82075183D01*
X24027954Y-82150000D01*
X23868642Y-82224817D01*
X23478355Y-82653076D01*
X23308524Y-83063110D01*
X23429845Y-83293000D01*
X24623000Y-83293000D01*
X24623000Y-81007000D01*
X23429845Y-81007000D01*
X23308524Y-81236890D01*
X21210000Y-81236890D01*
X21210000Y-75800000D01*
X23235908Y-75800000D01*
X23351161Y-76379418D01*
X23679375Y-76870625D01*
X23977761Y-77070000D01*
X23679375Y-77269375D01*
X23351161Y-77760582D01*
X23235908Y-78340000D01*
X23351161Y-78919418D01*
X23679375Y-79410625D01*
X23998478Y-79623843D01*
X23868642Y-79684817D01*
X23478355Y-80113076D01*
X23308524Y-80523110D01*
X23429845Y-80753000D01*
X24623000Y-80753000D01*
X24623000Y-80733000D01*
X24877000Y-80733000D01*
X24877000Y-80753000D01*
X26070155Y-80753000D01*
X26191476Y-80523110D01*
X26021645Y-80113076D01*
X25631358Y-79684817D01*
X25501522Y-79623843D01*
X25820625Y-79410625D01*
X26148839Y-78919418D01*
X26264092Y-78340000D01*
X26148839Y-77760582D01*
X25820625Y-77269375D01*
X25522239Y-77070000D01*
X25820625Y-76870625D01*
X26148839Y-76379418D01*
X26264092Y-75800000D01*
X26148839Y-75220582D01*
X25820625Y-74729375D01*
X25501522Y-74516157D01*
X25631358Y-74455183D01*
X26021645Y-74026924D01*
X26191476Y-73616890D01*
X26070155Y-73387000D01*
X24877000Y-73387000D01*
X24877000Y-73407000D01*
X24623000Y-73407000D01*
X24623000Y-73387000D01*
X23429845Y-73387000D01*
X23308524Y-73616890D01*
X23478355Y-74026924D01*
X23868642Y-74455183D01*
X23998478Y-74516157D01*
X23679375Y-74729375D01*
X23351161Y-75220582D01*
X23235908Y-75800000D01*
X21210000Y-75800000D01*
X21210000Y-71076890D01*
X23308524Y-71076890D01*
X23478355Y-71486924D01*
X23868642Y-71915183D01*
X24027954Y-71990000D01*
X23868642Y-72064817D01*
X23478355Y-72493076D01*
X23308524Y-72903110D01*
X23429845Y-73133000D01*
X24623000Y-73133000D01*
X24623000Y-70847000D01*
X24877000Y-70847000D01*
X24877000Y-73133000D01*
X26070155Y-73133000D01*
X26191476Y-72903110D01*
X26021645Y-72493076D01*
X25631358Y-72064817D01*
X25472046Y-71990000D01*
X25631358Y-71915183D01*
X26021645Y-71486924D01*
X26191476Y-71076890D01*
X26070155Y-70847000D01*
X24877000Y-70847000D01*
X24623000Y-70847000D01*
X23429845Y-70847000D01*
X23308524Y-71076890D01*
X21210000Y-71076890D01*
X21210000Y-68536890D01*
X23308524Y-68536890D01*
X23478355Y-68946924D01*
X23868642Y-69375183D01*
X24027954Y-69450000D01*
X23868642Y-69524817D01*
X23478355Y-69953076D01*
X23308524Y-70363110D01*
X23429845Y-70593000D01*
X24623000Y-70593000D01*
X24623000Y-68307000D01*
X24877000Y-68307000D01*
X24877000Y-70593000D01*
X26070155Y-70593000D01*
X26191476Y-70363110D01*
X26021645Y-69953076D01*
X25631358Y-69524817D01*
X25472046Y-69450000D01*
X25631358Y-69375183D01*
X26021645Y-68946924D01*
X26191476Y-68536890D01*
X26070155Y-68307000D01*
X24877000Y-68307000D01*
X24623000Y-68307000D01*
X23429845Y-68307000D01*
X23308524Y-68536890D01*
X21210000Y-68536890D01*
X21210000Y-65640000D01*
X23235908Y-65640000D01*
X23351161Y-66219418D01*
X23679375Y-66710625D01*
X23998478Y-66923843D01*
X23868642Y-66984817D01*
X23478355Y-67413076D01*
X23308524Y-67823110D01*
X23429845Y-68053000D01*
X24623000Y-68053000D01*
X24623000Y-68033000D01*
X24877000Y-68033000D01*
X24877000Y-68053000D01*
X26070155Y-68053000D01*
X26191476Y-67823110D01*
X26021645Y-67413076D01*
X25631358Y-66984817D01*
X25501522Y-66923843D01*
X25820625Y-66710625D01*
X26148839Y-66219418D01*
X26264092Y-65640000D01*
X26148839Y-65060582D01*
X25820625Y-64569375D01*
X25802381Y-64557184D01*
X25847765Y-64548157D01*
X26057809Y-64407809D01*
X26198157Y-64197765D01*
X26247440Y-63950000D01*
X26247440Y-62250000D01*
X26198157Y-62002235D01*
X26057809Y-61792191D01*
X25847765Y-61651843D01*
X25600000Y-61602560D01*
X23900000Y-61602560D01*
X23652235Y-61651843D01*
X23442191Y-61792191D01*
X23301843Y-62002235D01*
X23252560Y-62250000D01*
X23252560Y-63950000D01*
X23301843Y-64197765D01*
X23442191Y-64407809D01*
X23652235Y-64548157D01*
X23697619Y-64557184D01*
X23679375Y-64569375D01*
X23351161Y-65060582D01*
X23235908Y-65640000D01*
X21210000Y-65640000D01*
X21210000Y-51516890D01*
X23308524Y-51516890D01*
X23478355Y-51926924D01*
X23868642Y-52355183D01*
X24393108Y-52601486D01*
X24623000Y-52480819D01*
X24623000Y-51287000D01*
X24877000Y-51287000D01*
X24877000Y-52480819D01*
X25106892Y-52601486D01*
X25631358Y-52355183D01*
X26021645Y-51926924D01*
X26191476Y-51516890D01*
X26070155Y-51287000D01*
X24877000Y-51287000D01*
X24623000Y-51287000D01*
X23429845Y-51287000D01*
X23308524Y-51516890D01*
X21210000Y-51516890D01*
X21210000Y-48976890D01*
X23308524Y-48976890D01*
X23478355Y-49386924D01*
X23868642Y-49815183D01*
X24027954Y-49890000D01*
X23868642Y-49964817D01*
X23478355Y-50393076D01*
X23308524Y-50803110D01*
X23429845Y-51033000D01*
X24623000Y-51033000D01*
X24623000Y-48747000D01*
X24877000Y-48747000D01*
X24877000Y-51033000D01*
X26070155Y-51033000D01*
X26191476Y-50803110D01*
X26021645Y-50393076D01*
X25631358Y-49964817D01*
X25472046Y-49890000D01*
X25631358Y-49815183D01*
X26021645Y-49386924D01*
X26191476Y-48976890D01*
X26070155Y-48747000D01*
X24877000Y-48747000D01*
X24623000Y-48747000D01*
X23429845Y-48747000D01*
X23308524Y-48976890D01*
X21210000Y-48976890D01*
X21210000Y-43540000D01*
X23235908Y-43540000D01*
X23351161Y-44119418D01*
X23679375Y-44610625D01*
X23977761Y-44810000D01*
X23679375Y-45009375D01*
X23351161Y-45500582D01*
X23235908Y-46080000D01*
X23351161Y-46659418D01*
X23679375Y-47150625D01*
X23998478Y-47363843D01*
X23868642Y-47424817D01*
X23478355Y-47853076D01*
X23308524Y-48263110D01*
X23429845Y-48493000D01*
X24623000Y-48493000D01*
X24623000Y-48473000D01*
X24877000Y-48473000D01*
X24877000Y-48493000D01*
X26070155Y-48493000D01*
X26191476Y-48263110D01*
X26021645Y-47853076D01*
X25631358Y-47424817D01*
X25501522Y-47363843D01*
X25820625Y-47150625D01*
X25935302Y-46978999D01*
X25952081Y-46982337D01*
X26039242Y-46965000D01*
X26039246Y-46965000D01*
X26190067Y-46935000D01*
X38565001Y-46935000D01*
X38565002Y-55177836D01*
X38547664Y-55265001D01*
X38616349Y-55610310D01*
X38762577Y-55829155D01*
X38762579Y-55829157D01*
X38811953Y-55903050D01*
X38885846Y-55952424D01*
X41012858Y-58079436D01*
X40986887Y-58210000D01*
X41098260Y-58769909D01*
X41415423Y-59244577D01*
X41767758Y-59480000D01*
X41415423Y-59715423D01*
X41098260Y-60190091D01*
X40986887Y-60750000D01*
X41098260Y-61309909D01*
X41415423Y-61784577D01*
X41767758Y-62020000D01*
X41415423Y-62255423D01*
X41098260Y-62730091D01*
X40986887Y-63290000D01*
X41098260Y-63849909D01*
X41415423Y-64324577D01*
X41767758Y-64560000D01*
X41415423Y-64795423D01*
X41098260Y-65270091D01*
X40986887Y-65830000D01*
X41098260Y-66389909D01*
X41415423Y-66864577D01*
X41767758Y-67100000D01*
X41415423Y-67335423D01*
X41098260Y-67810091D01*
X40986887Y-68370000D01*
X41098260Y-68929909D01*
X41415423Y-69404577D01*
X41771499Y-69642499D01*
X41345500Y-69985104D01*
X41075633Y-70478181D01*
X41058096Y-70560961D01*
X41180085Y-70783000D01*
X43073000Y-70783000D01*
X43073000Y-70763000D01*
X43327000Y-70763000D01*
X43327000Y-70783000D01*
X43347000Y-70783000D01*
X43347000Y-71037000D01*
X43327000Y-71037000D01*
X43327000Y-71057000D01*
X43073000Y-71057000D01*
X43073000Y-71037000D01*
X41180085Y-71037000D01*
X41058096Y-71259039D01*
X41075633Y-71341819D01*
X41345500Y-71834896D01*
X41771499Y-72177501D01*
X41415423Y-72415423D01*
X41098260Y-72890091D01*
X40986887Y-73450000D01*
X41098260Y-74009909D01*
X41415423Y-74484577D01*
X41767758Y-74720000D01*
X41415423Y-74955423D01*
X41098260Y-75430091D01*
X40986887Y-75990000D01*
X41059492Y-76355010D01*
X33557149Y-76355010D01*
X33469989Y-76337673D01*
X33382829Y-76355010D01*
X33382825Y-76355010D01*
X33124680Y-76406358D01*
X33016870Y-76478395D01*
X32905835Y-76552586D01*
X32905834Y-76552587D01*
X32831941Y-76601961D01*
X32782567Y-76675854D01*
X26165424Y-83292998D01*
X26070156Y-83292998D01*
X26191476Y-83063110D01*
X26021645Y-82653076D01*
X25631358Y-82224817D01*
X25472046Y-82150000D01*
X25631358Y-82075183D01*
X26021645Y-81646924D01*
X26191476Y-81236890D01*
X26070155Y-81007000D01*
X24877000Y-81007000D01*
X24877000Y-83293000D01*
X24897000Y-83293000D01*
X24897000Y-83547000D01*
X24877000Y-83547000D01*
X24877000Y-83567000D01*
X24623000Y-83567000D01*
X24623000Y-83547000D01*
X23429845Y-83547000D01*
X23308524Y-83776890D01*
X23478355Y-84186924D01*
X23868642Y-84615183D01*
X23998478Y-84676157D01*
X23679375Y-84889375D01*
X23351161Y-85380582D01*
X23235908Y-85960000D01*
X23351161Y-86539418D01*
X23679375Y-87030625D01*
X23977761Y-87230000D01*
X23679375Y-87429375D01*
X23351161Y-87920582D01*
X23235908Y-88500000D01*
X23351161Y-89079418D01*
X23679375Y-89570625D01*
X23977761Y-89770000D01*
X23679375Y-89969375D01*
X23351161Y-90460582D01*
X23235908Y-91040000D01*
X23351161Y-91619418D01*
X23679375Y-92110625D01*
X23977761Y-92310000D01*
X23679375Y-92509375D01*
X23351161Y-93000582D01*
X23235908Y-93580000D01*
X23351161Y-94159418D01*
X23679375Y-94650625D01*
X23977761Y-94850000D01*
X23679375Y-95049375D01*
X23351161Y-95540582D01*
X23235908Y-96120000D01*
X23351161Y-96699418D01*
X23679375Y-97190625D01*
X24170582Y-97518839D01*
X24603744Y-97605000D01*
X24896256Y-97605000D01*
X25329418Y-97518839D01*
X25820625Y-97190625D01*
X26148839Y-96699418D01*
X26257130Y-96155001D01*
X40807838Y-96155001D01*
X40894999Y-96172338D01*
X40982160Y-96155001D01*
X40982164Y-96155001D01*
X41019183Y-96147638D01*
X40986887Y-96310000D01*
X41098260Y-96869909D01*
X41415423Y-97344577D01*
X41890091Y-97661740D01*
X42308667Y-97745000D01*
X44091333Y-97745000D01*
X44509909Y-97661740D01*
X44984577Y-97344577D01*
X45301740Y-96869909D01*
X45413113Y-96310000D01*
X45301740Y-95750091D01*
X44984577Y-95275423D01*
X44632242Y-95040000D01*
X44984577Y-94804577D01*
X45301740Y-94329909D01*
X45413113Y-93770000D01*
X45301740Y-93210091D01*
X44984577Y-92735423D01*
X44632242Y-92500000D01*
X44984577Y-92264577D01*
X45301740Y-91789909D01*
X45413113Y-91230000D01*
X45301740Y-90670091D01*
X44984577Y-90195423D01*
X44632242Y-89960000D01*
X44984577Y-89724577D01*
X45301740Y-89249909D01*
X45413113Y-88690000D01*
X45301740Y-88130091D01*
X44984577Y-87655423D01*
X44632242Y-87420000D01*
X44984577Y-87184577D01*
X45301740Y-86709909D01*
X45413113Y-86150000D01*
X45301740Y-85590091D01*
X44984577Y-85115423D01*
X44632242Y-84880000D01*
X44984577Y-84644577D01*
X45301740Y-84169909D01*
X45413113Y-83610000D01*
X57386887Y-83610000D01*
X57498260Y-84169909D01*
X57815423Y-84644577D01*
X58167758Y-84880000D01*
X57815423Y-85115423D01*
X57498260Y-85590091D01*
X57386887Y-86150000D01*
X57498260Y-86709909D01*
X57815423Y-87184577D01*
X58167758Y-87420000D01*
X57815423Y-87655423D01*
X57498260Y-88130091D01*
X57386887Y-88690000D01*
X57498260Y-89249909D01*
X57815423Y-89724577D01*
X58167758Y-89960000D01*
X57815423Y-90195423D01*
X57498260Y-90670091D01*
X57386887Y-91230000D01*
X57498260Y-91789909D01*
X57815423Y-92264577D01*
X58167758Y-92500000D01*
X57815423Y-92735423D01*
X57498260Y-93210091D01*
X57386887Y-93770000D01*
X57498260Y-94329909D01*
X57815423Y-94804577D01*
X58167758Y-95040000D01*
X57815423Y-95275423D01*
X57498260Y-95750091D01*
X57386887Y-96310000D01*
X57498260Y-96869909D01*
X57815423Y-97344577D01*
X58290091Y-97661740D01*
X58708667Y-97745000D01*
X60491333Y-97745000D01*
X60909909Y-97661740D01*
X61384577Y-97344577D01*
X61701740Y-96869909D01*
X61813113Y-96310000D01*
X61701740Y-95750091D01*
X61384577Y-95275423D01*
X61032242Y-95040000D01*
X61384577Y-94804577D01*
X61701740Y-94329909D01*
X61813113Y-93770000D01*
X61701740Y-93210091D01*
X61384577Y-92735423D01*
X61032242Y-92500000D01*
X61384577Y-92264577D01*
X61701740Y-91789909D01*
X61813113Y-91230000D01*
X61701740Y-90670091D01*
X61384577Y-90195423D01*
X61032242Y-89960000D01*
X61384577Y-89724577D01*
X61701740Y-89249909D01*
X61813113Y-88690000D01*
X61701740Y-88130091D01*
X61384577Y-87655423D01*
X61032242Y-87420000D01*
X61384577Y-87184577D01*
X61701740Y-86709909D01*
X61813113Y-86150000D01*
X61701740Y-85590091D01*
X61384577Y-85115423D01*
X61032242Y-84880000D01*
X61384577Y-84644577D01*
X61701740Y-84169909D01*
X61813113Y-83610000D01*
X61701740Y-83050091D01*
X61384577Y-82575423D01*
X61028501Y-82337501D01*
X61454500Y-81994896D01*
X61724367Y-81501819D01*
X61741904Y-81419039D01*
X61619915Y-81197000D01*
X59727000Y-81197000D01*
X59727000Y-81217000D01*
X59473000Y-81217000D01*
X59473000Y-81197000D01*
X57580085Y-81197000D01*
X57458096Y-81419039D01*
X57475633Y-81501819D01*
X57745500Y-81994896D01*
X58171499Y-82337501D01*
X57815423Y-82575423D01*
X57498260Y-83050091D01*
X57386887Y-83610000D01*
X45413113Y-83610000D01*
X45301740Y-83050091D01*
X44984577Y-82575423D01*
X44632242Y-82340000D01*
X44984577Y-82104577D01*
X45301740Y-81629909D01*
X45413113Y-81070000D01*
X45332555Y-80665010D01*
X47032829Y-80665010D01*
X47119990Y-80682347D01*
X47207151Y-80665010D01*
X47207155Y-80665010D01*
X47465300Y-80613662D01*
X47758039Y-80418059D01*
X47807415Y-80344163D01*
X52455692Y-75695887D01*
X52415000Y-75794126D01*
X52415000Y-76205874D01*
X52572569Y-76586280D01*
X52863720Y-76877431D01*
X53244126Y-77035000D01*
X53655874Y-77035000D01*
X54018007Y-76885000D01*
X57722161Y-76885000D01*
X57815423Y-77024577D01*
X58167758Y-77260000D01*
X57815423Y-77495423D01*
X57498260Y-77970091D01*
X57386887Y-78530000D01*
X57498260Y-79089909D01*
X57815423Y-79564577D01*
X58171499Y-79802499D01*
X57745500Y-80145104D01*
X57475633Y-80638181D01*
X57458096Y-80720961D01*
X57580085Y-80943000D01*
X59473000Y-80943000D01*
X59473000Y-80923000D01*
X59727000Y-80923000D01*
X59727000Y-80943000D01*
X61619915Y-80943000D01*
X61741904Y-80720961D01*
X61724367Y-80638181D01*
X61454500Y-80145104D01*
X61028501Y-79802499D01*
X61384577Y-79564577D01*
X61701740Y-79089909D01*
X61813113Y-78530000D01*
X61701740Y-77970091D01*
X61384577Y-77495423D01*
X61032242Y-77260000D01*
X61384577Y-77024577D01*
X61701740Y-76549909D01*
X61813113Y-75990000D01*
X61701740Y-75430091D01*
X61384577Y-74955423D01*
X61032242Y-74720000D01*
X61384577Y-74484577D01*
X61701740Y-74009909D01*
X61813113Y-73450000D01*
X61701740Y-72890091D01*
X61384577Y-72415423D01*
X61032242Y-72180000D01*
X61384577Y-71944577D01*
X61701740Y-71469909D01*
X61813113Y-70910000D01*
X61701740Y-70350091D01*
X61384577Y-69875423D01*
X61032242Y-69640000D01*
X61384577Y-69404577D01*
X61701740Y-68929909D01*
X61813113Y-68370000D01*
X61701740Y-67810091D01*
X61384577Y-67335423D01*
X61032242Y-67100000D01*
X61384577Y-66864577D01*
X61701740Y-66389909D01*
X61813113Y-65830000D01*
X61701740Y-65270091D01*
X61384577Y-64795423D01*
X61032242Y-64560000D01*
X61384577Y-64324577D01*
X61701740Y-63849909D01*
X61813113Y-63290000D01*
X61701740Y-62730091D01*
X61384577Y-62255423D01*
X61032242Y-62020000D01*
X61384577Y-61784577D01*
X61484521Y-61635000D01*
X64733422Y-61635000D01*
X65415001Y-62316580D01*
X65415000Y-80822839D01*
X65397663Y-80910000D01*
X65415000Y-80997161D01*
X65415000Y-80997164D01*
X65466348Y-81255309D01*
X65661951Y-81548049D01*
X65735847Y-81597425D01*
X77529462Y-93391041D01*
X77485908Y-93610000D01*
X77601161Y-94189418D01*
X77929375Y-94680625D01*
X78227761Y-94880000D01*
X77929375Y-95079375D01*
X77601161Y-95570582D01*
X77485908Y-96150000D01*
X77601161Y-96729418D01*
X77929375Y-97220625D01*
X78420582Y-97548839D01*
X78853744Y-97635000D01*
X79146256Y-97635000D01*
X79579418Y-97548839D01*
X80070625Y-97220625D01*
X80398839Y-96729418D01*
X80514092Y-96150000D01*
X80470538Y-95931040D01*
X81314156Y-95087423D01*
X81388049Y-95038049D01*
X81496996Y-94875000D01*
X81583652Y-94745310D01*
X81583652Y-94745309D01*
X81635000Y-94487165D01*
X81635000Y-94487161D01*
X81652337Y-94400000D01*
X81635000Y-94312839D01*
X81635000Y-82777159D01*
X81652337Y-82689998D01*
X81635000Y-82602837D01*
X81635000Y-82602833D01*
X81583652Y-82344688D01*
X81525902Y-82258260D01*
X81437424Y-82125843D01*
X81437423Y-82125842D01*
X81388049Y-82051949D01*
X81314156Y-82002575D01*
X74547427Y-75235847D01*
X74498051Y-75161951D01*
X74243329Y-74991750D01*
X73535000Y-74283422D01*
X73535000Y-71491890D01*
X77558524Y-71491890D01*
X77728355Y-71901924D01*
X78118642Y-72330183D01*
X78643108Y-72576486D01*
X78873000Y-72455819D01*
X78873000Y-71262000D01*
X79127000Y-71262000D01*
X79127000Y-72455819D01*
X79356892Y-72576486D01*
X79881358Y-72330183D01*
X80271645Y-71901924D01*
X80441476Y-71491890D01*
X80320155Y-71262000D01*
X79127000Y-71262000D01*
X78873000Y-71262000D01*
X77679845Y-71262000D01*
X77558524Y-71491890D01*
X73535000Y-71491890D01*
X73535000Y-52197197D01*
X73552337Y-52110037D01*
X73535000Y-52022878D01*
X73535000Y-52022873D01*
X73483652Y-51764728D01*
X73288049Y-51471989D01*
X73214156Y-51422615D01*
X64641541Y-42850000D01*
X75992765Y-42850000D01*
X76015000Y-42961783D01*
X76015001Y-57163212D01*
X75992765Y-57275000D01*
X76080854Y-57717854D01*
X76080855Y-57717855D01*
X76331712Y-58093289D01*
X76426480Y-58156611D01*
X77838978Y-59569110D01*
X77692191Y-59667191D01*
X77551843Y-59877235D01*
X77502560Y-60125000D01*
X77502560Y-61825000D01*
X77551843Y-62072765D01*
X77692191Y-62282809D01*
X77902235Y-62423157D01*
X77947619Y-62432184D01*
X77929375Y-62444375D01*
X77601161Y-62935582D01*
X77485908Y-63515000D01*
X77601161Y-64094418D01*
X77929375Y-64585625D01*
X78227761Y-64785000D01*
X77929375Y-64984375D01*
X77601161Y-65475582D01*
X77485908Y-66055000D01*
X77601161Y-66634418D01*
X77929375Y-67125625D01*
X78227761Y-67325000D01*
X77929375Y-67524375D01*
X77601161Y-68015582D01*
X77485908Y-68595000D01*
X77601161Y-69174418D01*
X77929375Y-69665625D01*
X78248478Y-69878843D01*
X78118642Y-69939817D01*
X77728355Y-70368076D01*
X77558524Y-70778110D01*
X77679845Y-71008000D01*
X78873000Y-71008000D01*
X78873000Y-70988000D01*
X79127000Y-70988000D01*
X79127000Y-71008000D01*
X80320155Y-71008000D01*
X80441476Y-70778110D01*
X80271645Y-70368076D01*
X79881358Y-69939817D01*
X79751522Y-69878843D01*
X80070625Y-69665625D01*
X80398839Y-69174418D01*
X80514092Y-68595000D01*
X80398839Y-68015582D01*
X80070625Y-67524375D01*
X79772239Y-67325000D01*
X80070625Y-67125625D01*
X80398839Y-66634418D01*
X80514092Y-66055000D01*
X80398839Y-65475582D01*
X80070625Y-64984375D01*
X79772239Y-64785000D01*
X80070625Y-64585625D01*
X80398839Y-64094418D01*
X80514092Y-63515000D01*
X80398839Y-62935582D01*
X80070625Y-62444375D01*
X80052381Y-62432184D01*
X80097765Y-62423157D01*
X80307809Y-62282809D01*
X80448157Y-62072765D01*
X80497440Y-61825000D01*
X80497440Y-60125000D01*
X80448157Y-59877235D01*
X80307809Y-59667191D01*
X80135000Y-59551723D01*
X80135000Y-59236782D01*
X80157235Y-59124999D01*
X80069146Y-58682145D01*
X79818289Y-58306711D01*
X79723521Y-58243389D01*
X78285000Y-56804869D01*
X78285000Y-49893309D01*
X78643108Y-50061486D01*
X78873000Y-49940819D01*
X78873000Y-48747000D01*
X79127000Y-48747000D01*
X79127000Y-49940819D01*
X79356892Y-50061486D01*
X79881358Y-49815183D01*
X80271645Y-49386924D01*
X80441476Y-48976890D01*
X80320155Y-48747000D01*
X79127000Y-48747000D01*
X78873000Y-48747000D01*
X78853000Y-48747000D01*
X78853000Y-48493000D01*
X78873000Y-48493000D01*
X78873000Y-48473000D01*
X79127000Y-48473000D01*
X79127000Y-48493000D01*
X80320155Y-48493000D01*
X80441476Y-48263110D01*
X80271645Y-47853076D01*
X79881358Y-47424817D01*
X79751522Y-47363843D01*
X80070625Y-47150625D01*
X80398839Y-46659418D01*
X80514092Y-46080000D01*
X80398839Y-45500582D01*
X80070625Y-45009375D01*
X79772239Y-44810000D01*
X80070625Y-44610625D01*
X80398839Y-44119418D01*
X80514092Y-43540000D01*
X80398839Y-42960582D01*
X80070625Y-42469375D01*
X80052381Y-42457184D01*
X80097765Y-42448157D01*
X80307809Y-42307809D01*
X80448157Y-42097765D01*
X80497440Y-41850000D01*
X80497440Y-40150000D01*
X80448157Y-39902235D01*
X80307809Y-39692191D01*
X80097765Y-39551843D01*
X79850000Y-39502560D01*
X78150000Y-39502560D01*
X77902235Y-39551843D01*
X77692191Y-39692191D01*
X77551843Y-39902235D01*
X77502560Y-40150000D01*
X77502560Y-40892308D01*
X76426482Y-41968387D01*
X76331711Y-42031711D01*
X76154009Y-42297662D01*
X76080854Y-42407146D01*
X75992765Y-42850000D01*
X64641541Y-42850000D01*
X62907397Y-41115857D01*
X62858021Y-41041961D01*
X62565282Y-40846358D01*
X62307137Y-40795010D01*
X62307133Y-40795010D01*
X62219972Y-40777673D01*
X62132811Y-40795010D01*
X61740508Y-40795010D01*
X61813113Y-40430000D01*
X61701740Y-39870091D01*
X61384577Y-39395423D01*
X61032242Y-39160000D01*
X61384577Y-38924577D01*
X61701740Y-38449909D01*
X61813113Y-37890000D01*
X61701740Y-37330091D01*
X61384577Y-36855423D01*
X60909909Y-36538260D01*
X60491333Y-36455000D01*
X58708667Y-36455000D01*
X58290091Y-36538260D01*
X57815423Y-36855423D01*
X57498260Y-37330091D01*
X57386887Y-37890000D01*
X57498260Y-38449909D01*
X57815423Y-38924577D01*
X58167758Y-39160000D01*
X57815423Y-39395423D01*
X57498260Y-39870091D01*
X57386887Y-40430000D01*
X57459492Y-40795010D01*
X46811589Y-40795010D01*
X46041588Y-40025010D01*
X53422829Y-40025010D01*
X53509990Y-40042347D01*
X53597151Y-40025010D01*
X53597155Y-40025010D01*
X53855300Y-39973662D01*
X54148039Y-39778059D01*
X54197415Y-39704163D01*
X57924148Y-35977431D01*
X58286280Y-35827431D01*
X58577431Y-35536280D01*
X58735000Y-35155874D01*
X58735000Y-34744126D01*
X58577431Y-34363720D01*
X58286280Y-34072569D01*
X57905874Y-33915000D01*
X57494126Y-33915000D01*
X57113720Y-34072569D01*
X57050000Y-34136289D01*
X56936280Y-34022569D01*
X56555874Y-33865000D01*
X56144126Y-33865000D01*
X55781993Y-34015000D01*
X42942279Y-34015000D01*
X42868451Y-33998051D01*
X42767922Y-34015000D01*
X42754835Y-34015000D01*
X42682048Y-34029478D01*
X42521276Y-34056584D01*
X42509880Y-34063724D01*
X42496690Y-34066348D01*
X42361103Y-34156945D01*
X42298239Y-34196334D01*
X42288723Y-34205308D01*
X42203951Y-34261951D01*
X42161864Y-34324938D01*
X39796723Y-36555308D01*
X39711951Y-36611951D01*
X39621360Y-36747530D01*
X39526829Y-36880401D01*
X39523820Y-36893509D01*
X39516348Y-36904691D01*
X39484531Y-37064644D01*
X39448051Y-37223549D01*
X39465000Y-37324078D01*
X39465001Y-45150646D01*
X39450001Y-45147662D01*
X39362836Y-45165000D01*
X26069240Y-45165000D01*
X25982080Y-45147663D01*
X25921127Y-45159787D01*
X25820625Y-45009375D01*
X25522239Y-44810000D01*
X25820625Y-44610625D01*
X26148839Y-44119418D01*
X26264092Y-43540000D01*
X26148839Y-42960582D01*
X25820625Y-42469375D01*
X25802381Y-42457184D01*
X25847765Y-42448157D01*
X26057809Y-42307809D01*
X26198157Y-42097765D01*
X26247440Y-41850000D01*
X26247440Y-40150000D01*
X26198157Y-39902235D01*
X26057809Y-39692191D01*
X25847765Y-39551843D01*
X25600000Y-39502560D01*
X23900000Y-39502560D01*
X23652235Y-39551843D01*
X23442191Y-39692191D01*
X23301843Y-39902235D01*
X23252560Y-40150000D01*
X23252560Y-41850000D01*
X23301843Y-42097765D01*
X23442191Y-42307809D01*
X23652235Y-42448157D01*
X23697619Y-42457184D01*
X23679375Y-42469375D01*
X23351161Y-42960582D01*
X23235908Y-43540000D01*
X21210000Y-43540000D01*
X21210000Y-27709432D01*
X82265001Y-27660587D01*
X82265000Y-99490000D01*
G36*
X57386887Y-42970000D02*
X57498260Y-43529909D01*
X57815423Y-44004577D01*
X58167758Y-44240000D01*
X57815423Y-44475423D01*
X57498260Y-44950091D01*
X57386887Y-45510000D01*
X57498260Y-46069909D01*
X57815423Y-46544577D01*
X58171499Y-46782499D01*
X57745500Y-47125104D01*
X57475633Y-47618181D01*
X57458096Y-47700961D01*
X57580085Y-47923000D01*
X59473000Y-47923000D01*
X59473000Y-47903000D01*
X59727000Y-47903000D01*
X59727000Y-47923000D01*
X61619915Y-47923000D01*
X61741904Y-47700961D01*
X61724367Y-47618181D01*
X61454500Y-47125104D01*
X61028501Y-46782499D01*
X61384577Y-46544577D01*
X61701740Y-46069909D01*
X61813113Y-45510000D01*
X61701740Y-44950091D01*
X61384577Y-44475423D01*
X61032242Y-44240000D01*
X61384577Y-44004577D01*
X61484521Y-43855000D01*
X62153422Y-43855000D01*
X70965001Y-52666580D01*
X70965001Y-53863422D01*
X69667425Y-52565847D01*
X69618049Y-52491951D01*
X69325310Y-52296348D01*
X69067165Y-52245000D01*
X69067161Y-52245000D01*
X68980000Y-52227663D01*
X68892839Y-52245000D01*
X61484521Y-52245000D01*
X61384577Y-52095423D01*
X61032242Y-51860000D01*
X61384577Y-51624577D01*
X61701740Y-51149909D01*
X61813113Y-50590000D01*
X61701740Y-50030091D01*
X61384577Y-49555423D01*
X61028501Y-49317501D01*
X61454500Y-48974896D01*
X61724367Y-48481819D01*
X61741904Y-48399039D01*
X61619915Y-48177000D01*
X59727000Y-48177000D01*
X59727000Y-48197000D01*
X59473000Y-48197000D01*
X59473000Y-48177000D01*
X57580085Y-48177000D01*
X57458096Y-48399039D01*
X57475633Y-48481819D01*
X57745500Y-48974896D01*
X58171499Y-49317501D01*
X57815423Y-49555423D01*
X57498260Y-50030091D01*
X57386887Y-50590000D01*
X57498260Y-51149909D01*
X57815423Y-51624577D01*
X58167758Y-51860000D01*
X57815423Y-52095423D01*
X57498260Y-52570091D01*
X57386887Y-53130000D01*
X57498260Y-53689909D01*
X57815423Y-54164577D01*
X58167758Y-54400000D01*
X57815423Y-54635423D01*
X57498260Y-55110091D01*
X57386887Y-55670000D01*
X57498260Y-56229909D01*
X57815423Y-56704577D01*
X58167758Y-56940000D01*
X57815423Y-57175423D01*
X57498260Y-57650091D01*
X57386887Y-58210000D01*
X57498260Y-58769909D01*
X57815423Y-59244577D01*
X58167758Y-59480000D01*
X57815423Y-59715423D01*
X57498260Y-60190091D01*
X57386887Y-60750000D01*
X57498260Y-61309909D01*
X57815423Y-61784577D01*
X58167758Y-62020000D01*
X57815423Y-62255423D01*
X57498260Y-62730091D01*
X57386887Y-63290000D01*
X57498260Y-63849909D01*
X57815423Y-64324577D01*
X58167758Y-64560000D01*
X57815423Y-64795423D01*
X57498260Y-65270091D01*
X57386887Y-65830000D01*
X57421983Y-66006438D01*
X47073412Y-76355010D01*
X45340508Y-76355010D01*
X45413113Y-75990000D01*
X45378017Y-75813561D01*
X46864156Y-74327423D01*
X46938049Y-74278049D01*
X47133652Y-73985310D01*
X47185000Y-73727165D01*
X47185000Y-73727161D01*
X47202337Y-73640000D01*
X47185000Y-73552839D01*
X47185000Y-43287159D01*
X47202337Y-43199999D01*
X47185000Y-43112839D01*
X47185000Y-43112835D01*
X47133652Y-42854690D01*
X47061615Y-42746880D01*
X46987424Y-42635845D01*
X46987423Y-42635844D01*
X46940093Y-42565010D01*
X57467445Y-42565010D01*
X57386887Y-42970000D01*
X57386887Y-42970000D01*
G37*
X57386887Y-42970000D02*
X57498260Y-43529909D01*
X57815423Y-44004577D01*
X58167758Y-44240000D01*
X57815423Y-44475423D01*
X57498260Y-44950091D01*
X57386887Y-45510000D01*
X57498260Y-46069909D01*
X57815423Y-46544577D01*
X58171499Y-46782499D01*
X57745500Y-47125104D01*
X57475633Y-47618181D01*
X57458096Y-47700961D01*
X57580085Y-47923000D01*
X59473000Y-47923000D01*
X59473000Y-47903000D01*
X59727000Y-47903000D01*
X59727000Y-47923000D01*
X61619915Y-47923000D01*
X61741904Y-47700961D01*
X61724367Y-47618181D01*
X61454500Y-47125104D01*
X61028501Y-46782499D01*
X61384577Y-46544577D01*
X61701740Y-46069909D01*
X61813113Y-45510000D01*
X61701740Y-44950091D01*
X61384577Y-44475423D01*
X61032242Y-44240000D01*
X61384577Y-44004577D01*
X61484521Y-43855000D01*
X62153422Y-43855000D01*
X70965001Y-52666580D01*
X70965001Y-53863422D01*
X69667425Y-52565847D01*
X69618049Y-52491951D01*
X69325310Y-52296348D01*
X69067165Y-52245000D01*
X69067161Y-52245000D01*
X68980000Y-52227663D01*
X68892839Y-52245000D01*
X61484521Y-52245000D01*
X61384577Y-52095423D01*
X61032242Y-51860000D01*
X61384577Y-51624577D01*
X61701740Y-51149909D01*
X61813113Y-50590000D01*
X61701740Y-50030091D01*
X61384577Y-49555423D01*
X61028501Y-49317501D01*
X61454500Y-48974896D01*
X61724367Y-48481819D01*
X61741904Y-48399039D01*
X61619915Y-48177000D01*
X59727000Y-48177000D01*
X59727000Y-48197000D01*
X59473000Y-48197000D01*
X59473000Y-48177000D01*
X57580085Y-48177000D01*
X57458096Y-48399039D01*
X57475633Y-48481819D01*
X57745500Y-48974896D01*
X58171499Y-49317501D01*
X57815423Y-49555423D01*
X57498260Y-50030091D01*
X57386887Y-50590000D01*
X57498260Y-51149909D01*
X57815423Y-51624577D01*
X58167758Y-51860000D01*
X57815423Y-52095423D01*
X57498260Y-52570091D01*
X57386887Y-53130000D01*
X57498260Y-53689909D01*
X57815423Y-54164577D01*
X58167758Y-54400000D01*
X57815423Y-54635423D01*
X57498260Y-55110091D01*
X57386887Y-55670000D01*
X57498260Y-56229909D01*
X57815423Y-56704577D01*
X58167758Y-56940000D01*
X57815423Y-57175423D01*
X57498260Y-57650091D01*
X57386887Y-58210000D01*
X57498260Y-58769909D01*
X57815423Y-59244577D01*
X58167758Y-59480000D01*
X57815423Y-59715423D01*
X57498260Y-60190091D01*
X57386887Y-60750000D01*
X57498260Y-61309909D01*
X57815423Y-61784577D01*
X58167758Y-62020000D01*
X57815423Y-62255423D01*
X57498260Y-62730091D01*
X57386887Y-63290000D01*
X57498260Y-63849909D01*
X57815423Y-64324577D01*
X58167758Y-64560000D01*
X57815423Y-64795423D01*
X57498260Y-65270091D01*
X57386887Y-65830000D01*
X57421983Y-66006438D01*
X47073412Y-76355010D01*
X45340508Y-76355010D01*
X45413113Y-75990000D01*
X45378017Y-75813561D01*
X46864156Y-74327423D01*
X46938049Y-74278049D01*
X47133652Y-73985310D01*
X47185000Y-73727165D01*
X47185000Y-73727161D01*
X47202337Y-73640000D01*
X47185000Y-73552839D01*
X47185000Y-43287159D01*
X47202337Y-43199999D01*
X47185000Y-43112839D01*
X47185000Y-43112835D01*
X47133652Y-42854690D01*
X47061615Y-42746880D01*
X46987424Y-42635845D01*
X46987423Y-42635844D01*
X46940093Y-42565010D01*
X57467445Y-42565010D01*
X57386887Y-42970000D01*
G36*
X41203685Y-47332312D02*
X41098260Y-47490091D01*
X40986887Y-48050000D01*
X41098260Y-48609909D01*
X41415423Y-49084577D01*
X41767758Y-49320000D01*
X41415423Y-49555423D01*
X41098260Y-50030091D01*
X40986887Y-50590000D01*
X41098260Y-51149909D01*
X41415423Y-51624577D01*
X41771499Y-51862499D01*
X41345500Y-52205104D01*
X41075633Y-52698181D01*
X41058096Y-52780961D01*
X41180085Y-53003000D01*
X43073000Y-53003000D01*
X43073000Y-52983000D01*
X43327000Y-52983000D01*
X43327000Y-53003000D01*
X43347000Y-53003000D01*
X43347000Y-53257000D01*
X43327000Y-53257000D01*
X43327000Y-53277000D01*
X43073000Y-53277000D01*
X43073000Y-53257000D01*
X41180085Y-53257000D01*
X41058096Y-53479039D01*
X41075633Y-53561819D01*
X41345500Y-54054896D01*
X41771499Y-54397501D01*
X41415423Y-54635423D01*
X41098260Y-55110091D01*
X41006745Y-55570167D01*
X40335001Y-54898423D01*
X40335001Y-46689723D01*
X41203685Y-47332312D01*
X41203685Y-47332312D01*
G37*
X41203685Y-47332312D02*
X41098260Y-47490091D01*
X40986887Y-48050000D01*
X41098260Y-48609909D01*
X41415423Y-49084577D01*
X41767758Y-49320000D01*
X41415423Y-49555423D01*
X41098260Y-50030091D01*
X40986887Y-50590000D01*
X41098260Y-51149909D01*
X41415423Y-51624577D01*
X41771499Y-51862499D01*
X41345500Y-52205104D01*
X41075633Y-52698181D01*
X41058096Y-52780961D01*
X41180085Y-53003000D01*
X43073000Y-53003000D01*
X43073000Y-52983000D01*
X43327000Y-52983000D01*
X43327000Y-53003000D01*
X43347000Y-53003000D01*
X43347000Y-53257000D01*
X43327000Y-53257000D01*
X43327000Y-53277000D01*
X43073000Y-53277000D01*
X43073000Y-53257000D01*
X41180085Y-53257000D01*
X41058096Y-53479039D01*
X41075633Y-53561819D01*
X41345500Y-54054896D01*
X41771499Y-54397501D01*
X41415423Y-54635423D01*
X41098260Y-55110091D01*
X41006745Y-55570167D01*
X40335001Y-54898423D01*
X40335001Y-46689723D01*
X41203685Y-47332312D01*
G04 #@! TD*
M02*
